<?xml version="1.0" encoding="UTF-8"?>
<!DOCTYPE svg PUBLIC "-//W3C//DTD SVG 1.1//EN" "http://www.w3.org/Graphics/SVG/1.1/DTD/svg11.dtd">
<!-- Creator: CorelDRAW -->
<svg xmlns="http://www.w3.org/2000/svg" xml:space="preserve" width="2.1167mm" height="2.1167mm" version="1.1" style="shape-rendering:geometricPrecision; text-rendering:geometricPrecision; image-rendering:optimizeQuality; fill-rule:evenodd; clip-rule:evenodd"
viewBox="0 0 68.94 68.94"
 xmlns:xlink="http://www.w3.org/1999/xlink"
 xmlns:xodm="http://www.corel.com/coreldraw/odm/2003">
 <defs>
  <style type="text/css">
   <![CDATA[
    .fil2 {fill:none}
    .fil44 {fill:none;fill-rule:nonzero}
    .fil42 {fill:#FEFEFE}
    .fil8 {fill:#FFF8AF}
    .fil35 {fill:#201E1E}
    .fil15 {fill:#8E530E}
    .fil16 {fill:#E39C11}
    .fil43 {fill:#FEFEFE;fill-rule:nonzero}
    .fil0 {fill:#FEFEFE;fill-rule:nonzero}
    .fil41 {fill:#FEFEFE;fill-rule:nonzero}
    .fil1 {fill:url(#id249)}
    .fil19 {fill:url(#id250)}
    .fil4 {fill:url(#id251)}
    .fil21 {fill:url(#id252)}
    .fil28 {fill:url(#id253)}
    .fil12 {fill:url(#id254)}
    .fil5 {fill:url(#id255)}
    .fil22 {fill:url(#id256)}
    .fil25 {fill:url(#id257)}
    .fil9 {fill:url(#id258)}
    .fil10 {fill:url(#id259)}
    .fil26 {fill:url(#id260)}
    .fil20 {fill:url(#id261)}
    .fil3 {fill:url(#id262)}
    .fil14 {fill:url(#id263)}
    .fil30 {fill:url(#id264)}
    .fil6 {fill:url(#id265)}
    .fil23 {fill:url(#id266)}
    .fil29 {fill:url(#id267)}
    .fil13 {fill:url(#id268)}
    .fil24 {fill:url(#id269)}
    .fil7 {fill:url(#id270)}
    .fil17 {fill:url(#id271)}
    .fil31 {fill:url(#id272)}
    .fil18 {fill:url(#id273)}
    .fil32 {fill:url(#id274)}
    .fil27 {fill:url(#id275)}
    .fil11 {fill:url(#id276)}
    .fil39 {fill:url(#id277)}
    .fil34 {fill:url(#id278)}
    .fil38 {fill:url(#id279)}
    .fil33 {fill:url(#id280)}
    .fil36 {fill:url(#id281)}
    .fil37 {fill:url(#id282)}
    .fil40 {fill:url(#id283);fill-rule:nonzero}
   ]]>
  </style>
    <clipPath id="id0" style="clip-rule:nonzero">
     <path d="M28.75 28.57l0 -2.79 0.36 0 0 1.59 0.85 -0.82 0.47 0 -0.81 0.75 0.9 1.27 -0.44 0 -0.71 -1.04 -0.25 0.23 0 0.8 -0.36 0z"/>
    </clipPath>
     <clipPath id="id1">
     </clipPath>
     <clipPath id="id2">
      <path d="M28.75 28.57l0 -2.79 0.36 0 0 1.59 0.85 -0.82 0.47 0 -0.81 0.75 0.9 1.27 -0.44 0 -0.71 -1.04 -0.25 0.23 0 0.8 -0.36 0z"/>
     </clipPath>
    <clipPath id="id3" style="clip-rule:nonzero">
     <path d="M31.19 28.57l-0.64 -2.03 0.38 0 0.34 1.17 0.12 0.44c0,-0.02 0.04,-0.16 0.11,-0.42l0.34 -1.19 0.37 0 0.32 1.18 0.11 0.39 0.12 -0.39 0.36 -1.17 0.36 0 -0.67 2.03 -0.37 0 -0.34 -1.21 -0.09 -0.35 -0.43 1.56 -0.38 0z"/>
    </clipPath>
     <clipPath id="id4">
     </clipPath>
     <clipPath id="id5">
      <path d="M31.19 28.57l-0.64 -2.03 0.38 0 0.34 1.17 0.12 0.44c0,-0.02 0.04,-0.16 0.11,-0.42l0.34 -1.19 0.37 0 0.32 1.18 0.11 0.39 0.12 -0.39 0.36 -1.17 0.36 0 -0.67 2.03 -0.37 0 -0.34 -1.21 -0.09 -0.35 -0.43 1.56 -0.38 0z"/>
     </clipPath>
    <clipPath id="id6" style="clip-rule:nonzero">
     <path d="M35.17 28.31c-0.14,0.11 -0.26,0.19 -0.39,0.23 -0.12,0.04 -0.25,0.07 -0.4,0.07 -0.23,0 -0.42,-0.05 -0.54,-0.16 -0.12,-0.11 -0.19,-0.25 -0.19,-0.41 0,-0.1 0.03,-0.19 0.07,-0.27 0.05,-0.08 0.11,-0.15 0.19,-0.2 0.08,-0.05 0.16,-0.09 0.26,-0.11 0.07,-0.02 0.18,-0.03 0.32,-0.05 0.29,-0.03 0.51,-0.07 0.65,-0.12 0,-0.05 0,-0.08 0,-0.09 0,-0.14 -0.03,-0.24 -0.1,-0.29 -0.09,-0.08 -0.23,-0.12 -0.41,-0.12 -0.17,0 -0.3,0.03 -0.37,0.08 -0.08,0.06 -0.14,0.16 -0.18,0.3l-0.36 -0.05c0.04,-0.14 0.09,-0.26 0.16,-0.35 0.07,-0.09 0.18,-0.16 0.32,-0.2 0.14,-0.05 0.3,-0.07 0.49,-0.07 0.18,0 0.33,0.02 0.44,0.06 0.12,0.04 0.2,0.09 0.25,0.15 0.05,0.06 0.09,0.14 0.11,0.23 0.01,0.06 0.02,0.17 0.02,0.32l0 0.46c0,0.32 0.01,0.52 0.02,0.61 0.01,0.08 0.04,0.17 0.08,0.24l-0.37 0c-0.04,-0.07 -0.06,-0.16 -0.07,-0.25zm-0.03 -0.76c-0.13,0.05 -0.33,0.09 -0.59,0.13 -0.15,0.02 -0.26,0.04 -0.32,0.07 -0.06,0.03 -0.11,0.06 -0.14,0.11 -0.03,0.05 -0.05,0.1 -0.05,0.16 0,0.09 0.04,0.17 0.11,0.22 0.07,0.06 0.18,0.09 0.32,0.09 0.14,0 0.26,-0.03 0.37,-0.08 0.1,-0.06 0.19,-0.14 0.24,-0.23 0.04,-0.08 0.06,-0.19 0.06,-0.34l0 -0.13z"/>
    </clipPath>
     <clipPath id="id7">
     </clipPath>
     <clipPath id="id8">
      <path d="M35.17 28.31c-0.14,0.11 -0.26,0.19 -0.39,0.23 -0.12,0.04 -0.25,0.07 -0.4,0.07 -0.23,0 -0.42,-0.05 -0.54,-0.16 -0.12,-0.11 -0.19,-0.25 -0.19,-0.41 0,-0.1 0.03,-0.19 0.07,-0.27 0.05,-0.08 0.11,-0.15 0.19,-0.2 0.08,-0.05 0.16,-0.09 0.26,-0.11 0.07,-0.02 0.18,-0.03 0.32,-0.05 0.29,-0.03 0.51,-0.07 0.65,-0.12 0,-0.05 0,-0.08 0,-0.09 0,-0.14 -0.03,-0.24 -0.1,-0.29 -0.09,-0.08 -0.23,-0.12 -0.41,-0.12 -0.17,0 -0.3,0.03 -0.37,0.08 -0.08,0.06 -0.14,0.16 -0.18,0.3l-0.36 -0.05c0.04,-0.14 0.09,-0.26 0.16,-0.35 0.07,-0.09 0.18,-0.16 0.32,-0.2 0.14,-0.05 0.3,-0.07 0.49,-0.07 0.18,0 0.33,0.02 0.44,0.06 0.12,0.04 0.2,0.09 0.25,0.15 0.05,0.06 0.09,0.14 0.11,0.23 0.01,0.06 0.02,0.17 0.02,0.32l0 0.46c0,0.32 0.01,0.52 0.02,0.61 0.01,0.08 0.04,0.17 0.08,0.24l-0.37 0c-0.04,-0.07 -0.06,-0.16 -0.07,-0.25zm-0.03 -0.76c-0.13,0.05 -0.33,0.09 -0.59,0.13 -0.15,0.02 -0.26,0.04 -0.32,0.07 -0.06,0.03 -0.11,0.06 -0.14,0.11 -0.03,0.05 -0.05,0.1 -0.05,0.16 0,0.09 0.04,0.17 0.11,0.22 0.07,0.06 0.18,0.09 0.32,0.09 0.14,0 0.26,-0.03 0.37,-0.08 0.1,-0.06 0.19,-0.14 0.24,-0.23 0.04,-0.08 0.06,-0.19 0.06,-0.34l0 -0.13z"/>
     </clipPath>
    <clipPath id="id9" style="clip-rule:nonzero">
     <path d="M36.05 28.57l0 -2.03 0.33 0 0 0.31c0.08,-0.14 0.16,-0.24 0.23,-0.28 0.07,-0.05 0.15,-0.07 0.23,-0.07 0.12,0 0.24,0.04 0.37,0.11l-0.13 0.32c-0.08,-0.05 -0.18,-0.07 -0.26,-0.07 -0.08,0 -0.15,0.02 -0.21,0.07 -0.06,0.05 -0.11,0.11 -0.13,0.19 -0.04,0.12 -0.06,0.25 -0.06,0.4l0 1.06 -0.36 0z"/>
    </clipPath>
     <clipPath id="id10">
     </clipPath>
     <clipPath id="id11">
      <path d="M36.05 28.57l0 -2.03 0.33 0 0 0.31c0.08,-0.14 0.16,-0.24 0.23,-0.28 0.07,-0.05 0.15,-0.07 0.23,-0.07 0.12,0 0.24,0.04 0.37,0.11l-0.13 0.32c-0.08,-0.05 -0.18,-0.07 -0.26,-0.07 -0.08,0 -0.15,0.02 -0.21,0.07 -0.06,0.05 -0.11,0.11 -0.13,0.19 -0.04,0.12 -0.06,0.25 -0.06,0.4l0 1.06 -0.36 0z"/>
     </clipPath>
    <clipPath id="id12" style="clip-rule:nonzero">
     <path d="M38.82 28.31c-0.14,0.11 -0.26,0.19 -0.39,0.23 -0.12,0.04 -0.25,0.07 -0.4,0.07 -0.23,0 -0.41,-0.05 -0.54,-0.16 -0.12,-0.11 -0.19,-0.25 -0.19,-0.41 0,-0.1 0.03,-0.19 0.07,-0.27 0.05,-0.08 0.11,-0.15 0.19,-0.2 0.07,-0.05 0.16,-0.09 0.26,-0.11 0.07,-0.02 0.18,-0.03 0.32,-0.05 0.29,-0.03 0.51,-0.07 0.65,-0.12 0,-0.05 0,-0.08 0,-0.09 0,-0.14 -0.03,-0.24 -0.1,-0.29 -0.09,-0.08 -0.23,-0.12 -0.41,-0.12 -0.17,0 -0.3,0.03 -0.38,0.08 -0.08,0.06 -0.14,0.16 -0.18,0.3l-0.36 -0.05c0.04,-0.14 0.09,-0.26 0.16,-0.35 0.07,-0.09 0.18,-0.16 0.32,-0.2 0.14,-0.05 0.3,-0.07 0.49,-0.07 0.18,0 0.33,0.02 0.44,0.06 0.12,0.04 0.2,0.09 0.25,0.15 0.05,0.06 0.09,0.14 0.11,0.23 0.01,0.06 0.02,0.17 0.02,0.32l0 0.46c0,0.32 0.01,0.52 0.02,0.61 0.01,0.08 0.04,0.17 0.08,0.24l-0.37 0c-0.04,-0.07 -0.06,-0.16 -0.07,-0.25zm-0.03 -0.76c-0.13,0.05 -0.33,0.09 -0.59,0.13 -0.15,0.02 -0.26,0.04 -0.32,0.07 -0.06,0.03 -0.11,0.06 -0.14,0.11 -0.03,0.05 -0.05,0.1 -0.05,0.16 0,0.09 0.04,0.17 0.11,0.22 0.07,0.06 0.18,0.09 0.32,0.09 0.14,0 0.26,-0.03 0.37,-0.08 0.1,-0.06 0.19,-0.14 0.24,-0.23 0.04,-0.08 0.06,-0.19 0.06,-0.34l0 -0.13z"/>
    </clipPath>
     <clipPath id="id13">
     </clipPath>
     <clipPath id="id14">
      <path d="M38.82 28.31c-0.14,0.11 -0.26,0.19 -0.39,0.23 -0.12,0.04 -0.25,0.07 -0.4,0.07 -0.23,0 -0.41,-0.05 -0.54,-0.16 -0.12,-0.11 -0.19,-0.25 -0.19,-0.41 0,-0.1 0.03,-0.19 0.07,-0.27 0.05,-0.08 0.11,-0.15 0.19,-0.2 0.07,-0.05 0.16,-0.09 0.26,-0.11 0.07,-0.02 0.18,-0.03 0.32,-0.05 0.29,-0.03 0.51,-0.07 0.65,-0.12 0,-0.05 0,-0.08 0,-0.09 0,-0.14 -0.03,-0.24 -0.1,-0.29 -0.09,-0.08 -0.23,-0.12 -0.41,-0.12 -0.17,0 -0.3,0.03 -0.38,0.08 -0.08,0.06 -0.14,0.16 -0.18,0.3l-0.36 -0.05c0.04,-0.14 0.09,-0.26 0.16,-0.35 0.07,-0.09 0.18,-0.16 0.32,-0.2 0.14,-0.05 0.3,-0.07 0.49,-0.07 0.18,0 0.33,0.02 0.44,0.06 0.12,0.04 0.2,0.09 0.25,0.15 0.05,0.06 0.09,0.14 0.11,0.23 0.01,0.06 0.02,0.17 0.02,0.32l0 0.46c0,0.32 0.01,0.52 0.02,0.61 0.01,0.08 0.04,0.17 0.08,0.24l-0.37 0c-0.04,-0.07 -0.06,-0.16 -0.07,-0.25zm-0.03 -0.76c-0.13,0.05 -0.33,0.09 -0.59,0.13 -0.15,0.02 -0.26,0.04 -0.32,0.07 -0.06,0.03 -0.11,0.06 -0.14,0.11 -0.03,0.05 -0.05,0.1 -0.05,0.16 0,0.09 0.04,0.17 0.11,0.22 0.07,0.06 0.18,0.09 0.32,0.09 0.14,0 0.26,-0.03 0.37,-0.08 0.1,-0.06 0.19,-0.14 0.24,-0.23 0.04,-0.08 0.06,-0.19 0.06,-0.34l0 -0.13z"/>
     </clipPath>
    <clipPath id="id15">
     <path d="M45.11 7.77l-5.04 10.28 -2.63 -8.98 7.67 -1.3z"/>
    </clipPath>
     <clipPath id="id16">
     </clipPath>
     <clipPath id="id17">
      <path d="M45.11 7.77l-5.04 10.28 -2.63 -8.98 7.67 -1.3z"/>
     </clipPath>
    <clipPath id="id18">
     <path d="M22.96 7.65l5.04 10.28 2.63 -8.98 -7.67 -1.3z"/>
    </clipPath>
     <clipPath id="id19">
     </clipPath>
     <clipPath id="id20">
      <path d="M22.96 7.65l5.04 10.28 2.63 -8.98 -7.67 -1.3z"/>
     </clipPath>
    <clipPath id="id21">
     <path d="M40.07 18.05l12.01 -10.14 -2.26 7.12 -6.88 6.11 -5.01 -0.72 2.13 -2.38z"/>
    </clipPath>
     <clipPath id="id22">
     </clipPath>
     <clipPath id="id23">
      <path d="M40.07 18.05l12.01 -10.14 -2.26 7.12 -6.88 6.11 -5.01 -0.72 2.13 -2.38z"/>
     </clipPath>
    <clipPath id="id24">
     <path d="M46.72 21.76l3.19 -3.06 0.18 -5.31 -8.2 7.18 1.41 2.31 3.42 -1.11z"/>
    </clipPath>
     <clipPath id="id25">
     </clipPath>
     <clipPath id="id26">
      <path d="M46.72 21.76l3.19 -3.06 0.18 -5.31 -8.2 7.18 1.41 2.31 3.42 -1.11z"/>
     </clipPath>
    <clipPath id="id27">
     <path d="M49.47 23.38l7.45 -5.18 -4.08 -2.87c0,0 -7.98,8.09 -8.15,7.62 -0.17,-0.47 -0.17,-0.47 -0.17,-0.47l4.94 0.9z"/>
    </clipPath>
     <clipPath id="id28">
     </clipPath>
     <clipPath id="id29">
      <path d="M49.47 23.38l7.45 -5.18 -4.08 -2.87c0,0 -7.98,8.09 -8.15,7.62 -0.17,-0.47 -0.17,-0.47 -0.17,-0.47l4.94 0.9z"/>
     </clipPath>
    <clipPath id="id30">
     <path d="M14.55 23.32l-7.42 -4.27 -2.34 -5.43 15.53 10.44 -5.78 -0.74z"/>
    </clipPath>
     <clipPath id="id31">
     </clipPath>
     <clipPath id="id32">
      <path d="M14.55 23.32l-7.42 -4.27 -2.34 -5.43 15.53 10.44 -5.78 -0.74z"/>
     </clipPath>
    <clipPath id="id33">
     <path d="M46.62 12.52l3.96 -0.92 1.5 -3.69 2.3 3.36 4.15 0.12 -2.7 3.03 1.08 3.78 -3.82 -1.45 -3.4 2.16 0.33 -3.81 -3.41 -2.57z"/>
    </clipPath>
     <clipPath id="id34">
     </clipPath>
     <clipPath id="id35">
      <path d="M46.62 12.52l3.96 -0.92 1.5 -3.69 2.3 3.36 4.15 0.12 -2.7 3.03 1.08 3.78 -3.82 -1.45 -3.4 2.16 0.33 -3.81 -3.41 -2.57z"/>
     </clipPath>
    <clipPath id="id36">
     <path d="M54.39 22.95l7.42 -4.27 2.34 -5.43 -15.53 10.44 5.78 -0.74z"/>
    </clipPath>
     <clipPath id="id37">
     </clipPath>
     <clipPath id="id38">
      <path d="M54.39 22.95l7.42 -4.27 2.34 -5.43 -15.53 10.44 5.78 -0.74z"/>
     </clipPath>
    <clipPath id="id39">
     <path d="M28.87 18.42l-12.01 -10.14 2.26 7.12 6.88 6.11 5.01 -0.72 -2.13 -2.38z"/>
    </clipPath>
     <clipPath id="id40">
     </clipPath>
     <clipPath id="id41">
      <path d="M28.87 18.42l-12.01 -10.14 2.26 7.12 6.88 6.11 5.01 -0.72 -2.13 -2.38z"/>
     </clipPath>
    <clipPath id="id42">
     <path d="M22.22 22.13l-3.19 -3.06 -0.18 -5.31 8.2 7.18 -1.41 2.31 -3.42 -1.11z"/>
    </clipPath>
     <clipPath id="id43">
     </clipPath>
     <clipPath id="id44">
      <path d="M22.22 22.13l-3.19 -3.06 -0.18 -5.31 8.2 7.18 -1.41 2.31 -3.42 -1.11z"/>
     </clipPath>
    <clipPath id="id45">
     <path d="M19.4 23.88l-7.45 -5.18 4.08 -2.87c0,0 7.98,8.09 8.15,7.62 0.17,-0.47 0.17,-0.47 0.17,-0.47l-4.94 0.9z"/>
    </clipPath>
     <clipPath id="id46">
     </clipPath>
     <clipPath id="id47">
      <path d="M19.4 23.88l-7.45 -5.18 4.08 -2.87c0,0 7.98,8.09 8.15,7.62 0.17,-0.47 0.17,-0.47 0.17,-0.47l-4.94 0.9z"/>
     </clipPath>
    <clipPath id="id48">
     <path d="M22.32 12.9l-3.96 -0.92 -1.5 -3.69 -2.3 3.35 -4.15 0.12 2.7 3.03 -1.08 3.78 3.82 -1.45 3.4 2.16 -0.33 -3.81 3.41 -2.57z"/>
    </clipPath>
     <clipPath id="id49">
     </clipPath>
     <clipPath id="id50">
      <path d="M22.32 12.9l-3.96 -0.92 -1.5 -3.69 -2.3 3.35 -4.15 0.12 2.7 3.03 -1.08 3.78 3.82 -1.45 3.4 2.16 -0.33 -3.81 3.41 -2.57z"/>
     </clipPath>
    <clipPath id="id51">
     <path d="M1.79 22.22l9.27 4.31 3.06 -1.71 -8.95 -4.32 -3.39 1.71z"/>
    </clipPath>
     <clipPath id="id52">
     </clipPath>
     <clipPath id="id53">
      <path d="M1.79 22.22l9.27 4.31 3.06 -1.71 -8.95 -4.32 -3.39 1.71z"/>
     </clipPath>
    <clipPath id="id54">
     <path d="M14.9 23.08l-6.91 -5.35 -3.06 3.03 7.94 4.26 2.03 -1.93z"/>
    </clipPath>
     <clipPath id="id55">
     </clipPath>
     <clipPath id="id56">
      <path d="M14.9 23.08l-6.91 -5.35 -3.06 3.03 7.94 4.26 2.03 -1.93z"/>
     </clipPath>
    <clipPath id="id57">
     <path d="M34.04 16.17l-0.04 3.41 -6.93 0.69 6.97 -4.1z"/>
    </clipPath>
     <clipPath id="id58">
     </clipPath>
     <clipPath id="id59">
      <path d="M34.04 16.17l-0.04 3.41 -6.93 0.69 6.97 -4.1z"/>
     </clipPath>
    <clipPath id="id60">
     <path d="M34.02 16.17l0.04 3.41 6.93 0.69 -6.97 -4.1z"/>
    </clipPath>
     <clipPath id="id61">
     </clipPath>
     <clipPath id="id62">
      <path d="M34.02 16.17l0.04 3.41 6.93 0.69 -6.97 -4.1z"/>
     </clipPath>
    <clipPath id="id63">
     <path d="M54.04 22.71l6.91 -5.36 3.06 3.03 -7.94 4.25 -2.03 -1.92z"/>
    </clipPath>
     <clipPath id="id64">
     </clipPath>
     <clipPath id="id65">
      <path d="M54.04 22.71l6.91 -5.36 3.06 3.03 -7.94 4.25 -2.03 -1.92z"/>
     </clipPath>
    <clipPath id="id66">
     <path d="M67.15 21.86l-9.27 4.31 -3.06 -1.71 8.95 -4.32 3.39 1.72z"/>
    </clipPath>
     <clipPath id="id67">
     </clipPath>
     <clipPath id="id68">
      <path d="M67.15 21.86l-9.27 4.31 -3.06 -1.71 8.95 -4.32 3.39 1.72z"/>
     </clipPath>
    <clipPath id="id69">
     <path d="M66.5 18.71l2.44 -2.09 0 -0.2 -3.34 -0.31 -1.46 -2.86 -1.49 2.81 -3.24 0.44 2.39 2.18 -0.65 3.23 2.85 -1.52 3.14 1.48 -0.65 -3.15z"/>
    </clipPath>
     <clipPath id="id70">
     </clipPath>
     <clipPath id="id71">
      <path d="M66.5 18.71l2.44 -2.09 0 -0.2 -3.34 -0.31 -1.46 -2.86 -1.49 2.81 -3.24 0.44 2.39 2.18 -0.65 3.23 2.85 -1.52 3.14 1.48 -0.65 -3.15z"/>
     </clipPath>
    <clipPath id="id72">
     <path d="M2.44 19.08l-2.44 -2.1 0 -0.19 3.34 -0.31 1.46 -2.86 1.49 2.81 3.24 0.44 -2.39 2.18 0.64 3.23 -2.84 -1.52 -3.15 1.48 0.65 -3.14z"/>
    </clipPath>
     <clipPath id="id73">
     </clipPath>
     <clipPath id="id74">
      <path d="M2.44 19.08l-2.44 -2.1 0 -0.19 3.34 -0.31 1.46 -2.86 1.49 2.81 3.24 0.44 -2.39 2.18 0.64 3.23 -2.84 -1.52 -3.15 1.48 0.65 -3.14z"/>
     </clipPath>
    <clipPath id="id75">
     <path d="M22.84 7.69l7.73 -1.02 3.45 -6.67 3.37 6.6 7.72 1.17 -5.59 5.23 1.41 7.31 -6.95 -3.5 -6.92 3.47 1.38 -7.32 -5.61 -5.27z"/>
    </clipPath>
     <clipPath id="id76">
     </clipPath>
     <clipPath id="id77">
      <path d="M22.84 7.69l7.73 -1.02 3.45 -6.67 3.37 6.6 7.72 1.17 -5.59 5.23 1.41 7.31 -6.95 -3.5 -6.92 3.47 1.38 -7.32 -5.61 -5.27z"/>
     </clipPath>
    <clipPath id="id78">
     <path d="M45.11 61.18l-5.04 -10.28 -2.63 8.98 7.67 1.3z"/>
    </clipPath>
     <clipPath id="id79">
     </clipPath>
     <clipPath id="id80">
      <path d="M45.11 61.18l-5.04 -10.28 -2.63 8.98 7.67 1.3z"/>
     </clipPath>
    <clipPath id="id81">
     <path d="M22.96 61.29l5.04 -10.28 2.63 8.98 -7.67 1.3z"/>
    </clipPath>
     <clipPath id="id82">
     </clipPath>
     <clipPath id="id83">
      <path d="M22.96 61.29l5.04 -10.28 2.63 8.98 -7.67 1.3z"/>
     </clipPath>
    <clipPath id="id84">
     <path d="M40.07 50.9l12.01 10.14 -2.26 -7.12 -6.88 -6.11 -5.01 0.72 2.13 2.38z"/>
    </clipPath>
     <clipPath id="id85">
     </clipPath>
     <clipPath id="id86">
      <path d="M40.07 50.9l12.01 10.14 -2.26 -7.12 -6.88 -6.11 -5.01 0.72 2.13 2.38z"/>
     </clipPath>
    <clipPath id="id87">
     <path d="M46.72 47.18l3.19 3.06 0.18 5.31 -8.2 -7.18 1.41 -2.31 3.42 1.11z"/>
    </clipPath>
     <clipPath id="id88">
     </clipPath>
     <clipPath id="id89">
      <path d="M46.72 47.18l3.19 3.06 0.18 5.31 -8.2 -7.18 1.41 -2.31 3.42 1.11z"/>
     </clipPath>
    <clipPath id="id90">
     <path d="M49.47 45.57l7.45 5.18 -4.08 2.87c0,0 -7.98,-8.09 -8.15,-7.62 -0.17,0.47 -0.17,0.47 -0.17,0.47l4.94 -0.9z"/>
    </clipPath>
     <clipPath id="id91">
     </clipPath>
     <clipPath id="id92">
      <path d="M49.47 45.57l7.45 5.18 -4.08 2.87c0,0 -7.98,-8.09 -8.15,-7.62 -0.17,0.47 -0.17,0.47 -0.17,0.47l4.94 -0.9z"/>
     </clipPath>
    <clipPath id="id93">
     <path d="M14.55 45.63l-7.42 4.27 -2.34 5.43 15.53 -10.44 -5.78 0.74z"/>
    </clipPath>
     <clipPath id="id94">
     </clipPath>
     <clipPath id="id95">
      <path d="M14.55 45.63l-7.42 4.27 -2.34 5.43 15.53 -10.44 -5.78 0.74z"/>
     </clipPath>
    <clipPath id="id96">
     <path d="M46.62 56.42l3.96 0.92 1.5 3.69 2.3 -3.36 4.15 -0.12 -2.7 -3.03 1.08 -3.78 -3.82 1.45 -3.4 -2.16 0.33 3.81 -3.41 2.57z"/>
    </clipPath>
     <clipPath id="id97">
     </clipPath>
     <clipPath id="id98">
      <path d="M46.62 56.42l3.96 0.92 1.5 3.69 2.3 -3.36 4.15 -0.12 -2.7 -3.03 1.08 -3.78 -3.82 1.45 -3.4 -2.16 0.33 3.81 -3.41 2.57z"/>
     </clipPath>
    <clipPath id="id99">
     <path d="M54.39 46l7.42 4.27 2.34 5.43 -15.53 -10.44 5.78 0.74z"/>
    </clipPath>
     <clipPath id="id100">
     </clipPath>
     <clipPath id="id101">
      <path d="M54.39 46l7.42 4.27 2.34 5.43 -15.53 -10.44 5.78 0.74z"/>
     </clipPath>
    <clipPath id="id102">
     <path d="M28.87 50.53l-12.01 10.14 2.26 -7.12 6.88 -6.11 5.01 0.72 -2.13 2.38z"/>
    </clipPath>
     <clipPath id="id103">
     </clipPath>
     <clipPath id="id104">
      <path d="M28.87 50.53l-12.01 10.14 2.26 -7.12 6.88 -6.11 5.01 0.72 -2.13 2.38z"/>
     </clipPath>
    <clipPath id="id105">
     <path d="M22.22 46.82l-3.19 3.06 -0.18 5.31 8.2 -7.18 -1.41 -2.31 -3.42 1.11z"/>
    </clipPath>
     <clipPath id="id106">
     </clipPath>
     <clipPath id="id107">
      <path d="M22.22 46.82l-3.19 3.06 -0.18 5.31 8.2 -7.18 -1.41 -2.31 -3.42 1.11z"/>
     </clipPath>
    <clipPath id="id108">
     <path d="M19.4 45.07l-7.45 5.18 4.08 2.87c0,0 7.98,-8.09 8.15,-7.62 0.17,0.47 0.17,0.47 0.17,0.47l-4.94 -0.9z"/>
    </clipPath>
     <clipPath id="id109">
     </clipPath>
     <clipPath id="id110">
      <path d="M19.4 45.07l-7.45 5.18 4.08 2.87c0,0 7.98,-8.09 8.15,-7.62 0.17,0.47 0.17,0.47 0.17,0.47l-4.94 -0.9z"/>
     </clipPath>
    <clipPath id="id111">
     <path d="M22.32 56.05l-3.96 0.92 -1.5 3.69 -2.3 -3.36 -4.15 -0.12 2.7 -3.03 -1.08 -3.78 3.82 1.45 3.4 -2.16 -0.33 3.81 3.41 2.57z"/>
    </clipPath>
     <clipPath id="id112">
     </clipPath>
     <clipPath id="id113">
      <path d="M22.32 56.05l-3.96 0.92 -1.5 3.69 -2.3 -3.36 -4.15 -0.12 2.7 -3.03 -1.08 -3.78 3.82 1.45 3.4 -2.16 -0.33 3.81 3.41 2.57z"/>
     </clipPath>
    <clipPath id="id114">
     <path d="M1.79 46.72l9.27 -4.31 3.06 1.71 -8.95 4.32 -3.39 -1.71z"/>
    </clipPath>
     <clipPath id="id115">
     </clipPath>
     <clipPath id="id116">
      <path d="M1.79 46.72l9.27 -4.31 3.06 1.71 -8.95 4.32 -3.39 -1.71z"/>
     </clipPath>
    <clipPath id="id117">
     <path d="M14.9 45.87l-6.91 5.35 -3.06 -3.03 7.94 -4.26 2.03 1.93z"/>
    </clipPath>
     <clipPath id="id118">
     </clipPath>
     <clipPath id="id119">
      <path d="M14.9 45.87l-6.91 5.35 -3.06 -3.03 7.94 -4.26 2.03 1.93z"/>
     </clipPath>
    <clipPath id="id120">
     <path d="M34.04 52.78l-0.04 -3.41 -6.93 -0.69 6.97 4.1z"/>
    </clipPath>
     <clipPath id="id121">
     </clipPath>
     <clipPath id="id122">
      <path d="M34.04 52.78l-0.04 -3.41 -6.93 -0.69 6.97 4.1z"/>
     </clipPath>
    <clipPath id="id123">
     <path d="M34.02 52.78l0.04 -3.41 6.93 -0.69 -6.97 4.1z"/>
    </clipPath>
     <clipPath id="id124">
     </clipPath>
     <clipPath id="id125">
      <path d="M34.02 52.78l0.04 -3.41 6.93 -0.69 -6.97 4.1z"/>
     </clipPath>
    <clipPath id="id126">
     <path d="M54.04 46.24l6.91 5.36 3.06 -3.03 -7.94 -4.25 -2.03 1.92z"/>
    </clipPath>
     <clipPath id="id127">
     </clipPath>
     <clipPath id="id128">
      <path d="M54.04 46.24l6.91 5.36 3.06 -3.03 -7.94 -4.25 -2.03 1.92z"/>
     </clipPath>
    <clipPath id="id129">
     <path d="M67.15 47.09l-9.27 -4.31 -3.06 1.71 8.95 4.32 3.39 -1.72z"/>
    </clipPath>
     <clipPath id="id130">
     </clipPath>
     <clipPath id="id131">
      <path d="M67.15 47.09l-9.27 -4.31 -3.06 1.71 8.95 4.32 3.39 -1.72z"/>
     </clipPath>
    <clipPath id="id132">
     <path d="M66.5 50.24l2.44 2.09 0 0.2 -3.34 0.31 -1.46 2.86 -1.49 -2.81 -3.24 -0.44 2.39 -2.18 -0.65 -3.23 2.85 1.52 3.14 -1.48 -0.65 3.15z"/>
    </clipPath>
     <clipPath id="id133">
     </clipPath>
     <clipPath id="id134">
      <path d="M66.5 50.24l2.44 2.09 0 0.2 -3.34 0.31 -1.46 2.86 -1.49 -2.81 -3.24 -0.44 2.39 -2.18 -0.65 -3.23 2.85 1.52 3.14 -1.48 -0.65 3.15z"/>
     </clipPath>
    <clipPath id="id135">
     <path d="M2.44 49.87l-2.44 2.1 0 0.19 3.34 0.31 1.46 2.86 1.49 -2.81 3.24 -0.44 -2.39 -2.18 0.64 -3.23 -2.84 1.52 -3.15 -1.48 0.65 3.14z"/>
    </clipPath>
     <clipPath id="id136">
     </clipPath>
     <clipPath id="id137">
      <path d="M2.44 49.87l-2.44 2.1 0 0.19 3.34 0.31 1.46 2.86 1.49 -2.81 3.24 -0.44 -2.39 -2.18 0.64 -3.23 -2.84 1.52 -3.15 -1.48 0.65 3.14z"/>
     </clipPath>
    <clipPath id="id138">
     <path d="M22.84 61.26l7.73 1.02 3.45 6.67 3.37 -6.59 7.72 -1.17 -5.59 -5.23 1.41 -7.31 -6.95 3.5 -6.92 -3.47 1.38 7.32 -5.61 5.27z"/>
    </clipPath>
     <clipPath id="id139">
     </clipPath>
     <clipPath id="id140">
      <path d="M22.84 61.26l7.73 1.02 3.45 6.67 3.37 -6.59 7.72 -1.17 -5.59 -5.23 1.41 -7.31 -6.95 3.5 -6.92 -3.47 1.38 7.32 -5.61 5.27z"/>
     </clipPath>
    <clipPath id="id141">
     <path d="M34.02 49.85c-3.21,0 -5.73,-0.7 -8.4,-1.45 -3.12,-0.87 -6.65,-1.85 -12.1,-1.85l-1.54 0 0 -2.15 -2.23 0 0 -19.77 2.23 0 0 -2.15 1.54 0c5.42,0 9.1,-1 12.34,-1.89 2.67,-0.73 5.19,-1.42 8.17,-1.42 2.9,0 5.32,0.67 7.87,1.38 3.23,0.9 6.9,1.92 12.63,1.92l1.54 0 0 2.15 2.23 0 0 19.77 -2.23 0 0 2.15 -1.54 0c-5.5,0 -9.11,1 -12.3,1.88 -2.65,0.73 -5.15,1.42 -8.21,1.42z"/>
    </clipPath>
     <clipPath id="id142">
     </clipPath>
     <clipPath id="id143">
      <path d="M34.02 49.85c-3.21,0 -5.73,-0.7 -8.4,-1.45 -3.12,-0.87 -6.65,-1.85 -12.1,-1.85l-1.54 0 0 -2.15 -2.23 0 0 -19.77 2.23 0 0 -2.15 1.54 0c5.42,0 9.1,-1 12.34,-1.89 2.67,-0.73 5.19,-1.42 8.17,-1.42 2.9,0 5.32,0.67 7.87,1.38 3.23,0.9 6.9,1.92 12.63,1.92l1.54 0 0 2.15 2.23 0 0 19.77 -2.23 0 0 2.15 -1.54 0c-5.5,0 -9.11,1 -12.3,1.88 -2.65,0.73 -5.15,1.42 -8.21,1.42z"/>
     </clipPath>
    <clipPath id="id144">
     <path d="M34.02 48.27c-2.97,0 -5.38,-0.67 -7.93,-1.38 -3.21,-0.89 -6.83,-1.9 -12.45,-1.92l0 -2.15 -2.23 0 0 -16.61 2.23 0 0 -2.15c5.59,-0.02 9.35,-1.04 12.68,-1.95 2.56,-0.7 4.97,-1.35 7.71,-1.35 2.66,0 4.86,0.61 7.4,1.32 3.32,0.93 7.08,1.97 12.98,1.98l0 2.15 2.23 0 0 16.61 -2.23 0 0 2.15c-5.67,0.02 -9.37,1.04 -12.64,1.94 -2.53,0.7 -4.92,1.36 -7.74,1.36z"/>
    </clipPath>
     <clipPath id="id145">
     </clipPath>
     <clipPath id="id146">
      <path d="M34.02 48.27c-2.97,0 -5.38,-0.67 -7.93,-1.38 -3.21,-0.89 -6.83,-1.9 -12.45,-1.92l0 -2.15 -2.23 0 0 -16.61 2.23 0 0 -2.15c5.59,-0.02 9.35,-1.04 12.68,-1.95 2.56,-0.7 4.97,-1.35 7.71,-1.35 2.66,0 4.86,0.61 7.4,1.32 3.32,0.93 7.08,1.97 12.98,1.98l0 2.15 2.23 0 0 16.61 -2.23 0 0 2.15c-5.67,0.02 -9.37,1.04 -12.64,1.94 -2.53,0.7 -4.92,1.36 -7.74,1.36z"/>
     </clipPath>
    <clipPath id="id147">
     <path d="M34.02 47.68c-2.89,0 -5.25,-0.66 -7.76,-1.36 -3.12,-0.87 -6.64,-1.85 -12,-1.93l0 -2.15 -2.23 0 0 -15.42 2.23 0 0 -2.15c5.33,-0.08 8.99,-1.08 12.22,-1.96 2.51,-0.68 4.89,-1.33 7.54,-1.33 2.57,0 4.73,0.6 7.23,1.3 3.24,0.9 6.9,1.92 12.53,2l0 2.15 2.23 0 0 15.42 -2.23 0 0 2.15c-5.41,0.08 -9.01,1.08 -12.19,1.96 -2.48,0.69 -4.83,1.34 -7.57,1.34z"/>
    </clipPath>
     <clipPath id="id148">
     </clipPath>
     <clipPath id="id149">
      <path d="M34.02 47.68c-2.89,0 -5.25,-0.66 -7.76,-1.36 -3.12,-0.87 -6.64,-1.85 -12,-1.93l0 -2.15 -2.23 0 0 -15.42 2.23 0 0 -2.15c5.33,-0.08 8.99,-1.08 12.22,-1.96 2.51,-0.68 4.89,-1.33 7.54,-1.33 2.57,0 4.73,0.6 7.23,1.3 3.24,0.9 6.9,1.92 12.53,2l0 2.15 2.23 0 0 15.42 -2.23 0 0 2.15c-5.41,0.08 -9.01,1.08 -12.19,1.96 -2.48,0.69 -4.83,1.34 -7.57,1.34z"/>
     </clipPath>
    <clipPath id="id150">
     <path d="M36.65 24.98c0,0.12 -0.08,0.22 -0.18,0.22 -0.1,0 -0.18,-0.1 -0.18,-0.22 0,-0.12 0.08,-0.22 0.18,-0.22 0.1,0 0.18,0.1 0.18,0.22zm-2.46 -1.65c0,0.12 -0.08,0.22 -0.18,0.22 -0.1,0 -0.18,-0.1 -0.18,-0.22 0,-0.12 0.08,-0.22 0.18,-0.22 0.1,0 0.18,0.1 0.18,0.22zm0.75 2.16l-0.93 -1.76 -0.93 1.76 -1.36 -0.31 0.54 1.23 3.48 0 0.54 -1.23 -1.36 0.31zm0.03 -0.15l-0.21 -0.41 0.4 -0.65 0.14 0.99 -0.33 0.07zm-1.94 0l0.21 -0.41 -0.41 -0.65 -0.14 0.99 0.33 0.07zm-1.3 -0.36c0,0.12 -0.08,0.22 -0.18,0.22 -0.09,0 -0.17,-0.1 -0.17,-0.22 0,-0.12 0.08,-0.22 0.17,-0.22 0.1,0 0.18,0.1 0.18,0.22z"/>
    </clipPath>
     <clipPath id="id151">
     </clipPath>
     <clipPath id="id152">
      <path d="M36.65 24.98c0,0.12 -0.08,0.22 -0.18,0.22 -0.1,0 -0.18,-0.1 -0.18,-0.22 0,-0.12 0.08,-0.22 0.18,-0.22 0.1,0 0.18,0.1 0.18,0.22zm-2.46 -1.65c0,0.12 -0.08,0.22 -0.18,0.22 -0.1,0 -0.18,-0.1 -0.18,-0.22 0,-0.12 0.08,-0.22 0.18,-0.22 0.1,0 0.18,0.1 0.18,0.22zm0.75 2.16l-0.93 -1.76 -0.93 1.76 -1.36 -0.31 0.54 1.23 3.48 0 0.54 -1.23 -1.36 0.31zm0.03 -0.15l-0.21 -0.41 0.4 -0.65 0.14 0.99 -0.33 0.07zm-1.94 0l0.21 -0.41 -0.41 -0.65 -0.14 0.99 0.33 0.07zm-1.3 -0.36c0,0.12 -0.08,0.22 -0.18,0.22 -0.09,0 -0.17,-0.1 -0.17,-0.22 0,-0.12 0.08,-0.22 0.17,-0.22 0.1,0 0.18,0.1 0.18,0.22z"/>
     </clipPath>
    <clipPath id="id153">
     <path d="M35.44 44.68l0.15 0.28 0.33 0.05 -0.24 0.22 0.06 0.31 -0.29 -0.15 -0.29 0.15 0.06 -0.31 -0.24 -0.22 0.33 -0.05 0.15 -0.28z"/>
    </clipPath>
     <clipPath id="id154">
     </clipPath>
     <clipPath id="id155">
      <path d="M35.44 44.68l0.15 0.28 0.33 0.05 -0.24 0.22 0.06 0.31 -0.29 -0.15 -0.29 0.15 0.06 -0.31 -0.24 -0.22 0.33 -0.05 0.15 -0.28z"/>
     </clipPath>
    <clipPath id="id156">
     <path d="M33.97 44.76l0.22 0.42 0.49 0.07 -0.36 0.33 0.08 0.46 -0.44 -0.22 -0.44 0.22 0.08 -0.46 -0.35 -0.33 0.49 -0.07 0.22 -0.42z"/>
    </clipPath>
     <clipPath id="id157">
     </clipPath>
     <clipPath id="id158">
      <path d="M33.97 44.76l0.22 0.42 0.49 0.07 -0.36 0.33 0.08 0.46 -0.44 -0.22 -0.44 0.22 0.08 -0.46 -0.35 -0.33 0.49 -0.07 0.22 -0.42z"/>
     </clipPath>
    <clipPath id="id159">
     <path d="M32.59 44.68l0.15 0.28 0.33 0.05 -0.23 0.22 0.06 0.31 -0.29 -0.15 -0.29 0.15 0.06 -0.31 -0.24 -0.22 0.33 -0.05 0.15 -0.28z"/>
    </clipPath>
     <clipPath id="id160">
     </clipPath>
     <clipPath id="id161">
      <path d="M32.59 44.68l0.15 0.28 0.33 0.05 -0.23 0.22 0.06 0.31 -0.29 -0.15 -0.29 0.15 0.06 -0.31 -0.24 -0.22 0.33 -0.05 0.15 -0.28z"/>
     </clipPath>
    <clipPath id="id162" style="clip-rule:nonzero">
     <path d="M23.82 29.09l1.18 1.05 1.64 0 -1.67 -1.53 1.67 -1.53 -1.64 0 -1.18 1.05 -0.55 0 0 -1.05 -1.25 0 0 3.06 1.25 0 0 -1.05 0.55 0z"/>
    </clipPath>
     <clipPath id="id163">
     </clipPath>
     <clipPath id="id164">
      <path d="M23.82 29.09l1.18 1.05 1.64 0 -1.67 -1.53 1.67 -1.53 -1.64 0 -1.18 1.05 -0.55 0 0 -1.05 -1.25 0 0 3.06 1.25 0 0 -1.05 0.55 0z"/>
     </clipPath>
    <clipPath id="id165" style="clip-rule:nonzero">
     <path d="M31.55 29.02l-0.75 -1.93 -1.41 0 -0.75 1.93 -0.74 -1.93 -1.41 0 1.41 3.06 1.49 0 0.71 -1.53 0.7 1.53 1.49 0 1.41 -3.06 -1.41 0 -0.75 1.93z"/>
    </clipPath>
     <clipPath id="id166">
     </clipPath>
     <clipPath id="id167">
      <path d="M31.55 29.02l-0.75 -1.93 -1.41 0 -0.75 1.93 -0.74 -1.93 -1.41 0 1.41 3.06 1.49 0 0.71 -1.53 0.7 1.53 1.49 0 1.41 -3.06 -1.41 0 -0.75 1.93z"/>
     </clipPath>
    <clipPath id="id168" style="clip-rule:nonzero">
     <path d="M35.09 27.97l0.44 0.9 -0.89 0 0.44 -0.9zm-2.47 2.17l1.41 0 0.25 -0.52 1.61 0 0.25 0.52 1.41 0 -1.73 -3.06 -1.49 0 -1.73 3.06z"/>
    </clipPath>
     <clipPath id="id169">
     </clipPath>
     <clipPath id="id170">
      <path d="M35.09 27.97l0.44 0.9 -0.89 0 0.44 -0.9zm-2.47 2.17l1.41 0 0.25 -0.52 1.61 0 0.25 0.52 1.41 0 -1.73 -3.06 -1.49 0 -1.73 3.06z"/>
     </clipPath>
    <clipPath id="id171" style="clip-rule:nonzero">
     <path d="M37.4 27.08l0 3.06 1.26 0 0 -0.75 1.12 0 0.6 0.75 1.34 0 -0.7 -0.86c0.21,-0.09 0.38,-0.23 0.5,-0.42 0.13,-0.19 0.2,-0.39 0.2,-0.63 0.01,-0.63 -0.55,-1.16 -1.21,-1.16l-3.1 0zm2.78 0.89c0.15,0 0.27,0.12 0.27,0.26 0,0.07 -0.02,0.13 -0.08,0.19 -0.06,0.05 -0.12,0.07 -0.2,0.07l-1.53 0 0 -0.52 1.53 0z"/>
    </clipPath>
     <clipPath id="id172">
     </clipPath>
     <clipPath id="id173">
      <path d="M37.4 27.08l0 3.06 1.26 0 0 -0.75 1.12 0 0.6 0.75 1.34 0 -0.7 -0.86c0.21,-0.09 0.38,-0.23 0.5,-0.42 0.13,-0.19 0.2,-0.39 0.2,-0.63 0.01,-0.63 -0.55,-1.16 -1.21,-1.16l-3.1 0zm2.78 0.89c0.15,0 0.27,0.12 0.27,0.26 0,0.07 -0.02,0.13 -0.08,0.19 -0.06,0.05 -0.12,0.07 -0.2,0.07l-1.53 0 0 -0.52 1.53 0z"/>
     </clipPath>
    <clipPath id="id174" style="clip-rule:nonzero">
     <path d="M44.03 27.97l0.44 0.9 -0.89 0 0.44 -0.9zm-2.47 2.17l1.41 0 0.25 -0.52 1.61 0 0.25 0.52 1.41 0 -1.73 -3.06 -1.49 0 -1.72 3.06z"/>
    </clipPath>
     <clipPath id="id175">
     </clipPath>
     <clipPath id="id176">
      <path d="M44.03 27.97l0.44 0.9 -0.89 0 0.44 -0.9zm-2.47 2.17l1.41 0 0.25 -0.52 1.61 0 0.25 0.52 1.41 0 -1.73 -3.06 -1.49 0 -1.72 3.06z"/>
     </clipPath>
    <clipPath id="id177" style="clip-rule:nonzero">
     <path d="M20.05 39.66l0 1.33 1.6 0 0 -3.88 -1.6 0 0 1.32 -2.39 0 0 -1.32 -1.59 0 0 3.88 1.59 0 0 -1.33 2.39 0z"/>
    </clipPath>
     <clipPath id="id178">
     </clipPath>
     <clipPath id="id179">
      <path d="M20.05 39.66l0 1.33 1.6 0 0 -3.88 -1.6 0 0 1.32 -2.39 0 0 -1.32 -1.59 0 0 3.88 1.59 0 0 -1.33 2.39 0z"/>
     </clipPath>
    <clipPath id="id180" style="clip-rule:nonzero">
     <path d="M24.34 38.23l0.56 1.14 -1.12 0 0.56 -1.14zm-3.14 2.75l1.79 0 0.32 -0.66 2.04 0 0.32 0.66 1.79 0 -2.19 -3.88 -1.89 0 -2.19 3.88z"/>
    </clipPath>
     <clipPath id="id181">
     </clipPath>
     <clipPath id="id182">
      <path d="M24.34 38.23l0.56 1.14 -1.12 0 0.56 -1.14zm-3.14 2.75l1.79 0 0.32 -0.66 2.04 0 0.32 0.66 1.79 0 -2.19 -3.88 -1.89 0 -2.19 3.88z"/>
     </clipPath>
    <clipPath id="id183" style="clip-rule:nonzero">
     <path d="M27.03 37.11l0 3.88 1.59 0 0 -0.94 1.42 0 0.77 0.94 1.69 0 -0.89 -1.09c0.27,-0.12 0.48,-0.3 0.64,-0.53 0.16,-0.24 0.24,-0.5 0.24,-0.79 0.01,-0.8 -0.7,-1.48 -1.54,-1.47l-3.93 0zm3.53 1.14c0.2,0 0.35,0.15 0.35,0.33 0,0.09 -0.03,0.17 -0.1,0.23 -0.07,0.06 -0.15,0.09 -0.24,0.09l-1.94 0 0 -0.66 1.94 0z"/>
    </clipPath>
     <clipPath id="id184">
     </clipPath>
     <clipPath id="id185">
      <path d="M27.03 37.11l0 3.88 1.59 0 0 -0.94 1.42 0 0.77 0.94 1.69 0 -0.89 -1.09c0.27,-0.12 0.48,-0.3 0.64,-0.53 0.16,-0.24 0.24,-0.5 0.24,-0.79 0.01,-0.8 -0.7,-1.48 -1.54,-1.47l-3.93 0zm3.53 1.14c0.2,0 0.35,0.15 0.35,0.33 0,0.09 -0.03,0.17 -0.1,0.23 -0.07,0.06 -0.15,0.09 -0.24,0.09l-1.94 0 0 -0.66 1.94 0z"/>
     </clipPath>
    <clipPath id="id186" style="clip-rule:nonzero">
     <path d="M33.57 37.11l-1.79 0 2.09 3.88 1.89 0 2.09 -3.88 -1.79 0 -1.24 2.69 -1.24 -2.69z"/>
    </clipPath>
     <clipPath id="id187">
     </clipPath>
     <clipPath id="id188">
      <path d="M33.57 37.11l-1.79 0 2.09 3.88 1.89 0 2.09 -3.88 -1.79 0 -1.24 2.69 -1.24 -2.69z"/>
     </clipPath>
    <clipPath id="id189" style="clip-rule:nonzero">
     <path d="M37.41 40.98l4.78 0 0 -0.99 -3.19 0 0 -0.5 3.19 0 0 -0.9 -3.19 0 0 -0.5 3.19 0 0 -0.99 -4.78 0 0 3.88z"/>
    </clipPath>
     <clipPath id="id190">
     </clipPath>
     <clipPath id="id191">
      <path d="M37.41 40.98l4.78 0 0 -0.99 -3.19 0 0 -0.5 3.19 0 0 -0.9 -3.19 0 0 -0.5 3.19 0 0 -0.99 -4.78 0 0 3.88z"/>
     </clipPath>
    <clipPath id="id192" style="clip-rule:nonzero">
     <path d="M43.71 38.38c0,-0.31 0.61,-0.38 1.1,-0.38 0.5,0 0.92,0.07 1.1,0.38l1.66 0c-0.15,-1.21 -1.34,-1.36 -2.77,-1.37 -1.43,0 -2.77,0.26 -2.77,1.37 -0,0.97 1.6,1.04 2.74,1.1 0.64,0.03 1.14,0.06 1.14,0.22 0,0.3 -0.61,0.38 -1.1,0.38 -0.5,0 -0.92,-0.08 -1.1,-0.38l-1.67 0c0.15,1.21 1.34,1.37 2.77,1.37 1.43,0 2.77,-0.26 2.77,-1.37 0,-0.97 -1.6,-1.05 -2.74,-1.1 -0.64,-0.03 -1.14,-0.05 -1.14,-0.22z"/>
    </clipPath>
     <clipPath id="id193">
     </clipPath>
     <clipPath id="id194">
      <path d="M43.71 38.38c0,-0.31 0.61,-0.38 1.1,-0.38 0.5,0 0.92,0.07 1.1,0.38l1.66 0c-0.15,-1.21 -1.34,-1.36 -2.77,-1.37 -1.43,0 -2.77,0.26 -2.77,1.37 -0,0.97 1.6,1.04 2.74,1.1 0.64,0.03 1.14,0.06 1.14,0.22 0,0.3 -0.61,0.38 -1.1,0.38 -0.5,0 -0.92,-0.08 -1.1,-0.38l-1.67 0c0.15,1.21 1.34,1.37 2.77,1.37 1.43,0 2.77,-0.26 2.77,-1.37 0,-0.97 -1.6,-1.05 -2.74,-1.1 -0.64,-0.03 -1.14,-0.05 -1.14,-0.22z"/>
     </clipPath>
    <clipPath id="id195" style="clip-rule:nonzero">
     <path d="M50.54 40.98l0 -2.65 1.89 0 0 -1.23 -5.37 0 0 1.23 1.89 0 0 2.65 1.59 0z"/>
    </clipPath>
     <clipPath id="id196">
     </clipPath>
     <clipPath id="id197">
      <path d="M50.54 40.98l0 -2.65 1.89 0 0 -1.23 -5.37 0 0 1.23 1.89 0 0 2.65 1.59 0z"/>
     </clipPath>
    <clipPath id="id198" style="clip-rule:nonzero">
     <path d="M24.5 42.51l0.03 -0.14 1.16 0 0 -0.4 -1.68 0 -0.19 0.8 0 0 0.83 0c0.49,0 0.55,0.07 0.55,0.17 0,0.08 -0.1,0.11 -0.33,0.11 -0.24,-0 -0.43,0 -0.43,-0.15l-0.61 0c0,0.5 0.41,0.59 1.02,0.59 0.31,0 0.55,-0.04 0.72,-0.13 0.17,-0.09 0.25,-0.21 0.25,-0.36 0,-0.46 -0.53,-0.5 -1.16,-0.5l-0.15 0z"/>
    </clipPath>
     <clipPath id="id199">
     </clipPath>
     <clipPath id="id200">
      <path d="M24.5 42.51l0.03 -0.14 1.16 0 0 -0.4 -1.68 0 -0.19 0.8 0 0 0.83 0c0.49,0 0.55,0.07 0.55,0.17 0,0.08 -0.1,0.11 -0.33,0.11 -0.24,-0 -0.43,0 -0.43,-0.15l-0.61 0c0,0.5 0.41,0.59 1.02,0.59 0.31,0 0.55,-0.04 0.72,-0.13 0.17,-0.09 0.25,-0.21 0.25,-0.36 0,-0.46 -0.53,-0.5 -1.16,-0.5l-0.15 0z"/>
     </clipPath>
    <clipPath id="id201" style="clip-rule:nonzero">
     <path d="M27.24 43.46l0 -1.02 0.73 0 0 -0.47 -2.06 0 0 0.47 0.73 0 0 1.02 0.61 0z"/>
    </clipPath>
     <clipPath id="id202">
     </clipPath>
     <clipPath id="id203">
      <path d="M27.24 43.46l0 -1.02 0.73 0 0 -0.47 -2.06 0 0 0.47 0.73 0 0 1.02 0.61 0z"/>
     </clipPath>
    <clipPath id="id204" style="clip-rule:nonzero">
     <path d="M29.74 42.95l0 0.51 0.62 0 0 -1.49 -0.62 0 0 0.51 -0.92 0 0 -0.51 -0.61 0 0 1.49 0.61 0 0 -0.51 0.92 0z"/>
    </clipPath>
     <clipPath id="id205">
     </clipPath>
     <clipPath id="id206">
      <path d="M29.74 42.95l0 0.51 0.62 0 0 -1.49 -0.62 0 0 0.51 -0.92 0 0 -0.51 -0.61 0 0 1.49 0.61 0 0 -0.51 0.92 0z"/>
     </clipPath>
    <clipPath id="id207" style="clip-rule:nonzero">
     <path d="M31.61 43.46l1.83 0 0 -0.38 -1.22 0 0 -0.19 1.22 0 0 -0.35 -1.22 0 0 -0.19 1.22 0 0 -0.38 -1.83 0 0 1.49z"/>
    </clipPath>
     <clipPath id="id208">
     </clipPath>
     <clipPath id="id209">
      <path d="M31.61 43.46l1.83 0 0 -0.38 -1.22 0 0 -0.19 1.22 0 0 -0.35 -1.22 0 0 -0.19 1.22 0 0 -0.38 -1.83 0 0 1.49z"/>
     </clipPath>
    <clipPath id="id210" style="clip-rule:nonzero">
     <path d="M35.35 42.71c0,0.15 -0.09,0.27 -0.25,0.27l-0.67 0 0 -0.54 0.67 0c0.16,0 0.25,0.12 0.25,0.27zm-1.53 -0.74l0 1.49 1.39 0c0.43,0.01 0.75,-0.34 0.75,-0.75 0.01,-0.4 -0.32,-0.75 -0.75,-0.74l-1.39 0z"/>
    </clipPath>
     <clipPath id="id211">
     </clipPath>
     <clipPath id="id212">
      <path d="M35.35 42.71c0,0.15 -0.09,0.27 -0.25,0.27l-0.67 0 0 -0.54 0.67 0c0.16,0 0.25,0.12 0.25,0.27zm-1.53 -0.74l0 1.49 1.39 0c0.43,0.01 0.75,-0.34 0.75,-0.75 0.01,-0.4 -0.32,-0.75 -0.75,-0.74l-1.39 0z"/>
     </clipPath>
    <clipPath id="id213" style="clip-rule:nonzero">
     <path d="M36.19 41.97l0 1.49 0.61 0 0 -1.49 -0.61 0z"/>
    </clipPath>
     <clipPath id="id214">
     </clipPath>
     <clipPath id="id215">
      <path d="M36.19 41.97l0 1.49 0.61 0 0 -1.49 -0.61 0z"/>
     </clipPath>
    <clipPath id="id216" style="clip-rule:nonzero">
     <path d="M38.37 43.46l0 -1.02 0.73 0 0 -0.47 -2.06 0 0 0.47 0.73 0 0 1.02 0.61 0z"/>
    </clipPath>
     <clipPath id="id217">
     </clipPath>
     <clipPath id="id218">
      <path d="M38.37 43.46l0 -1.02 0.73 0 0 -0.47 -2.06 0 0 0.47 0.73 0 0 1.02 0.61 0z"/>
     </clipPath>
    <clipPath id="id219" style="clip-rule:nonzero">
     <path d="M39.35 41.97l0 1.49 0.61 0 0 -1.49 -0.61 0z"/>
    </clipPath>
     <clipPath id="id220">
     </clipPath>
     <clipPath id="id221">
      <path d="M39.35 41.97l0 1.49 0.61 0 0 -1.49 -0.61 0z"/>
     </clipPath>
    <clipPath id="id222" style="clip-rule:nonzero">
     <path d="M41.25 41.93c-0.59,0 -1.07,0.16 -1.07,0.73l0 0.11c-0,0.56 0.48,0.73 1.07,0.73 0.59,0 1.07,-0.16 1.07,-0.73l0 -0.11c0,-0.56 -0.48,-0.73 -1.07,-0.73zm0.46 0.8c0.01,0.24 -0.21,0.29 -0.46,0.29 -0.25,0 -0.46,-0.05 -0.46,-0.29l0 -0.04c-0,-0.24 0.21,-0.29 0.46,-0.29 0.25,0 0.47,0.05 0.46,0.29l0 0.04z"/>
    </clipPath>
     <clipPath id="id223">
     </clipPath>
     <clipPath id="id224">
      <path d="M41.25 41.93c-0.59,0 -1.07,0.16 -1.07,0.73l0 0.11c-0,0.56 0.48,0.73 1.07,0.73 0.59,0 1.07,-0.16 1.07,-0.73l0 -0.11c0,-0.56 -0.48,-0.73 -1.07,-0.73zm0.46 0.8c0.01,0.24 -0.21,0.29 -0.46,0.29 -0.25,0 -0.46,-0.05 -0.46,-0.29l0 -0.04c-0,-0.24 0.21,-0.29 0.46,-0.29 0.25,0 0.47,0.05 0.46,0.29l0 0.04z"/>
     </clipPath>
    <clipPath id="id225" style="clip-rule:nonzero">
     <path d="M44.08 42.76l-0.69 -0.79 -0.84 0 0 1.49 0.61 0 0 -0.91 0.84 0.91 0.69 0 0 -1.49 -0.61 0 0 0.79z"/>
    </clipPath>
     <clipPath id="id226">
     </clipPath>
     <clipPath id="id227">
      <path d="M44.08 42.76l-0.69 -0.79 -0.84 0 0 1.49 0.61 0 0 -0.91 0.84 0.91 0.69 0 0 -1.49 -0.61 0 0 0.79z"/>
     </clipPath>
     <clipPath id="id228">
      <path d="M18.2 35.96l0 -2.86 0.51 0 -0.79 -0.74 2.32 -0.3 0 -0.28 -5.8 0 0 1.33 2.05 0 0 2.86 1.72 0z"/>
     </clipPath>
      <clipPath id="id229">
      </clipPath>
      <clipPath id="id230">
       <path d="M18.2 35.96l0 -2.86 0.51 0 -0.79 -0.74 2.32 -0.3 0 -0.28 -5.8 0 0 1.33 2.05 0 0 2.86 1.72 0z"/>
      </clipPath>
     <clipPath id="id231">
      <path d="M25.31 31.77l0 0.3 1.72 0.26 0 -0.56 -1.72 0zm0 2.67l0 1.29 0.05 0.23 5.11 0 0 -1.33 -3.44 0 0 -1.8 -1.72 1.61z"/>
     </clipPath>
      <clipPath id="id232">
      </clipPath>
      <clipPath id="id233">
       <path d="M25.31 31.77l0 0.3 1.72 0.26 0 -0.56 -1.72 0zm0 2.67l0 1.29 0.05 0.23 5.11 0 0 -1.33 -3.44 0 0 -1.8 -1.72 1.61z"/>
      </clipPath>
     <clipPath id="id234" style="clip-rule:nonzero">
      <path d="M30.7 35.96l5.16 0 0 -1.07 -3.44 0 0 -0.54 3.44 0 0 -0.97 -3.44 0 0 -0.53 3.44 0 0 -1.07 -5.16 0 0 4.19z"/>
     </clipPath>
      <clipPath id="id235">
      </clipPath>
      <clipPath id="id236">
       <path d="M30.7 35.96l5.16 0 0 -1.07 -3.44 0 0 -0.54 3.44 0 0 -0.97 -3.44 0 0 -0.53 3.44 0 0 -1.07 -5.16 0 0 4.19z"/>
      </clipPath>
     <clipPath id="id237" style="clip-rule:nonzero">
      <path d="M40.72 33.99l-1.93 -2.22 -2.36 0 0 4.19 1.72 0 0 -2.56 2.36 2.56 1.94 0 0 -4.19 -1.72 0 0 2.22z"/>
     </clipPath>
      <clipPath id="id238">
      </clipPath>
      <clipPath id="id239">
       <path d="M40.72 33.99l-1.93 -2.22 -2.36 0 0 4.19 1.72 0 0 -2.56 2.36 2.56 1.94 0 0 -4.19 -1.72 0 0 2.22z"/>
      </clipPath>
     <clipPath id="id240" style="clip-rule:nonzero">
      <path d="M46.45 35.96l0 -2.86 2.04 0 0 -1.33 -5.8 0 0 1.33 2.04 0 0 2.86 1.72 0z"/>
     </clipPath>
      <clipPath id="id241">
      </clipPath>
      <clipPath id="id242">
       <path d="M46.45 35.96l0 -2.86 2.04 0 0 -1.33 -5.8 0 0 1.33 2.04 0 0 2.86 1.72 0z"/>
      </clipPath>
     <clipPath id="id243">
      <path d="M19.37 32.74l2.32 -0.3 1.04 -2 1.01 1.98 2.32 0.35 -1.68 1.57 0.42 2.19 -2.08 -1.05 -2.08 1.04 0.41 -2.2 -1.68 -1.58zm1.57 0.35l1.23 -0.16 0.55 -1.07 0.54 1.05 1.23 0.19 -0.89 0.83 0.22 1.17 -1.11 -0.56 -1.1 0.55 0.22 -1.17 -0.9 -0.84z"/>
     </clipPath>
      <clipPath id="id244">
      </clipPath>
      <clipPath id="id245">
       <path d="M19.37 32.74l2.32 -0.3 1.04 -2 1.01 1.98 2.32 0.35 -1.68 1.57 0.42 2.19 -2.08 -1.05 -2.08 1.04 0.41 -2.2 -1.68 -1.58zm1.57 0.35l1.23 -0.16 0.55 -1.07 0.54 1.05 1.23 0.19 -0.89 0.83 0.22 1.17 -1.11 -0.56 -1.1 0.55 0.22 -1.17 -0.9 -0.84z"/>
      </clipPath>
    <clipPath id="id246" style="clip-rule:nonzero">
     <path d="M49.65 33.25c0,-0.34 0.65,-0.41 1.19,-0.41 0.54,0 0.99,0.08 1.19,0.41l1.8 0c-0.17,-1.31 -1.45,-1.48 -3,-1.49 -1.55,0 -3,0.29 -3,1.49 -0,1.05 1.73,1.13 2.96,1.19 0.69,0.03 1.23,0.06 1.23,0.24 0,0.33 -0.66,0.41 -1.19,0.41 -0.54,0 -1,-0.08 -1.19,-0.41l-1.81 0c0.17,1.3 1.45,1.48 3,1.48 1.55,0 3,-0.28 3,-1.48 0,-1.05 -1.73,-1.13 -2.96,-1.19 -0.69,-0.03 -1.23,-0.06 -1.23,-0.24z"/>
    </clipPath>
     <clipPath id="id247">
     </clipPath>
     <clipPath id="id248">
      <path d="M49.65 33.25c0,-0.34 0.65,-0.41 1.19,-0.41 0.54,0 0.99,0.08 1.19,0.41l1.8 0c-0.17,-1.31 -1.45,-1.48 -3,-1.49 -1.55,0 -3,0.29 -3,1.49 -0,1.05 1.73,1.13 2.96,1.19 0.69,0.03 1.23,0.06 1.23,0.24 0,0.33 -0.66,0.41 -1.19,0.41 -0.54,0 -1,-0.08 -1.19,-0.41l-1.81 0c0.17,1.3 1.45,1.48 3,1.48 1.55,0 3,-0.28 3,-1.48 0,-1.05 -1.73,-1.13 -2.96,-1.19 -0.69,-0.03 -1.23,-0.06 -1.23,-0.24z"/>
     </clipPath>
  <linearGradient id="id249" gradientUnits="userSpaceOnUse" x1="37.44" y1="12.91" x2="45.12" y2="12.91">
   <stop offset="0" style="stop-opacity:1; stop-color:#F6E36A"/>
   <stop offset="0.0823529" style="stop-opacity:1; stop-color:#F6D950"/>
   <stop offset="0.180392" style="stop-opacity:1; stop-color:#F6CE36"/>
   <stop offset="0.262745" style="stop-opacity:1; stop-color:#F6DA5B"/>
   <stop offset="0.34902" style="stop-opacity:1; stop-color:#F5E680"/>
   <stop offset="0.494118" style="stop-opacity:1; stop-color:#F4D351"/>
   <stop offset="0.568627" style="stop-opacity:1; stop-color:#F3C022"/>
   <stop offset="0.780392" style="stop-opacity:1; stop-color:#D97F02"/>
   <stop offset="1" style="stop-opacity:1; stop-color:#A24900"/>
  </linearGradient>
  <linearGradient id="id250" gradientUnits="userSpaceOnUse" xlink:href="#id249" x1="37.44" y1="56.04" x2="45.12" y2="56.04">
  </linearGradient>
  <linearGradient id="id251" gradientUnits="userSpaceOnUse" xlink:href="#id249" x1="52.09" y1="14.53" x2="37.94" y2="14.53">
  </linearGradient>
  <linearGradient id="id252" gradientUnits="userSpaceOnUse" xlink:href="#id249" x1="52.09" y1="54.42" x2="37.94" y2="54.42">
  </linearGradient>
  <linearGradient id="id253" gradientUnits="userSpaceOnUse" xlink:href="#id249" x1="11.95" y1="49.09" x2="24.35" y2="49.09">
  </linearGradient>
  <linearGradient id="id254" gradientUnits="userSpaceOnUse" xlink:href="#id249" x1="11.95" y1="19.86" x2="24.35" y2="19.86">
  </linearGradient>
  <linearGradient id="id255" gradientUnits="userSpaceOnUse" xlink:href="#id249" x1="50.09" y1="18.13" x2="41.89" y2="18.13">
  </linearGradient>
  <linearGradient id="id256" gradientUnits="userSpaceOnUse" xlink:href="#id249" x1="50.09" y1="50.81" x2="41.89" y2="50.81">
  </linearGradient>
  <linearGradient id="id257" gradientUnits="userSpaceOnUse" xlink:href="#id249" x1="64.15" y1="50.48" x2="48.61" y2="50.48">
  </linearGradient>
  <linearGradient id="id258" gradientUnits="userSpaceOnUse" xlink:href="#id249" x1="64.15" y1="18.47" x2="48.61" y2="18.47">
  </linearGradient>
  <linearGradient id="id259" gradientUnits="userSpaceOnUse" xlink:href="#id249" x1="16.86" y1="14.9" x2="31" y2="14.9">
  </linearGradient>
  <linearGradient id="id260" gradientUnits="userSpaceOnUse" xlink:href="#id249" x1="16.86" y1="54.05" x2="31" y2="54.05">
  </linearGradient>
  <linearGradient id="id261" gradientUnits="userSpaceOnUse" xlink:href="#id249" x1="30.63" y1="56.15" x2="22.96" y2="56.15">
  </linearGradient>
  <linearGradient id="id262" gradientUnits="userSpaceOnUse" xlink:href="#id249" x1="30.63" y1="12.8" x2="22.96" y2="12.8">
  </linearGradient>
  <linearGradient id="id263" gradientUnits="userSpaceOnUse" xlink:href="#id249" x1="4.93" y1="21.36" x2="14.9" y2="21.36">
  </linearGradient>
  <linearGradient id="id264" gradientUnits="userSpaceOnUse" xlink:href="#id249" x1="4.93" y1="47.58" x2="14.9" y2="47.58">
  </linearGradient>
  <linearGradient id="id265" gradientUnits="userSpaceOnUse" xlink:href="#id249" x1="56.92" y1="19.36" x2="44.52" y2="19.36">
  </linearGradient>
  <linearGradient id="id266" gradientUnits="userSpaceOnUse" xlink:href="#id249" x1="56.92" y1="49.59" x2="44.52" y2="49.59">
  </linearGradient>
  <linearGradient id="id267" gradientUnits="userSpaceOnUse" xlink:href="#id249" x1="1.79" y1="45.43" x2="14.12" y2="45.43">
  </linearGradient>
  <linearGradient id="id268" gradientUnits="userSpaceOnUse" xlink:href="#id249" x1="1.79" y1="23.52" x2="14.12" y2="23.52">
  </linearGradient>
  <linearGradient id="id269" gradientUnits="userSpaceOnUse" xlink:href="#id249" x1="4.79" y1="50.11" x2="20.33" y2="50.11">
  </linearGradient>
  <linearGradient id="id270" gradientUnits="userSpaceOnUse" xlink:href="#id249" x1="4.79" y1="18.84" x2="20.33" y2="18.84">
  </linearGradient>
  <linearGradient id="id271" gradientUnits="userSpaceOnUse" xlink:href="#id249" x1="64.01" y1="20.99" x2="54.04" y2="20.99">
  </linearGradient>
  <linearGradient id="id272" gradientUnits="userSpaceOnUse" xlink:href="#id249" x1="64.01" y1="47.95" x2="54.04" y2="47.95">
  </linearGradient>
  <linearGradient id="id273" gradientUnits="userSpaceOnUse" xlink:href="#id249" x1="67.15" y1="23.15" x2="54.82" y2="23.15">
  </linearGradient>
  <linearGradient id="id274" gradientUnits="userSpaceOnUse" xlink:href="#id249" x1="67.15" y1="45.8" x2="54.82" y2="45.8">
  </linearGradient>
  <linearGradient id="id275" gradientUnits="userSpaceOnUse" xlink:href="#id249" x1="18.85" y1="50.44" x2="27.05" y2="50.44">
  </linearGradient>
  <linearGradient id="id276" gradientUnits="userSpaceOnUse" xlink:href="#id249" x1="18.85" y1="18.5" x2="27.05" y2="18.5">
  </linearGradient>
  <linearGradient id="id277" gradientUnits="userSpaceOnUse" x1="26.51" y1="39.45" x2="38.08" y2="50.37">
   <stop offset="0" style="stop-opacity:1; stop-color:#D2AB67"/>
   <stop offset="0.2" style="stop-opacity:1; stop-color:#BD7729"/>
   <stop offset="0.588235" style="stop-opacity:1; stop-color:#FFE986"/>
   <stop offset="0.780392" style="stop-opacity:1; stop-color:#C48127"/>
   <stop offset="1" style="stop-opacity:1; stop-color:#FDE981"/>
  </linearGradient>
  <linearGradient id="id278" gradientUnits="userSpaceOnUse" x1="13.24" y1="15.19" x2="65.34" y2="63.66">
   <stop offset="0" style="stop-opacity:1; stop-color:#DBA73E"/>
   <stop offset="0.160784" style="stop-opacity:1; stop-color:#D89D3A"/>
   <stop offset="0.301961" style="stop-opacity:1; stop-color:#A46B28"/>
   <stop offset="0.490196" style="stop-opacity:1; stop-color:#8E5723"/>
   <stop offset="0.541176" style="stop-opacity:1; stop-color:#F4F3B8"/>
   <stop offset="0.560784" style="stop-opacity:1; stop-color:#F7ED9A"/>
   <stop offset="0.690196" style="stop-opacity:1; stop-color:#D5B767"/>
   <stop offset="0.74902" style="stop-opacity:1; stop-color:#A76F29"/>
   <stop offset="0.85098" style="stop-opacity:1; stop-color:#D0AB5B"/>
   <stop offset="1" style="stop-opacity:1; stop-color:#E0C77D"/>
  </linearGradient>
  <linearGradient id="id279" gradientUnits="userSpaceOnUse" xlink:href="#id277" x1="27.27" y1="39.2" x2="38.85" y2="50.12">
  </linearGradient>
  <linearGradient id="id280" gradientUnits="userSpaceOnUse" xlink:href="#id278" x1="-3.27" y1="-11.58" x2="53.1" y2="58.11">
  </linearGradient>
  <linearGradient id="id281" gradientUnits="userSpaceOnUse" xlink:href="#id278" x1="25.91" y1="16.34" x2="41.01" y2="28.68">
  </linearGradient>
  <linearGradient id="id282" gradientUnits="userSpaceOnUse" xlink:href="#id277" x1="27.95" y1="38.13" x2="39.53" y2="49.05">
  </linearGradient>
  <linearGradient id="id283" gradientUnits="userSpaceOnUse" xlink:href="#id278" x1="-734.99" y1="-2.13" x2="110.01" y2="50.68">
  </linearGradient>
 </defs>
 <g id="Layer_x0020_1">
  <metadata id="CorelCorpID_0Corel-Layer"/>
  <g id="_1738833353024">
   <path class="fil0" d="M28.75 28.57l0 -2.79 0.36 0 0 1.59 0.85 -0.82 0.47 0 -0.81 0.75 0.9 1.27 -0.44 0 -0.71 -1.04 -0.25 0.23 0 0.8 -0.36 0zm2.44 0l-0.64 -2.03 0.38 0 0.34 1.17 0.12 0.44c0,-0.02 0.04,-0.16 0.11,-0.42l0.34 -1.19 0.37 0 0.32 1.18 0.11 0.39 0.12 -0.39 0.36 -1.17 0.36 0 -0.67 2.03 -0.37 0 -0.34 -1.21 -0.09 -0.35 -0.43 1.56 -0.38 0zm3.98 -0.25c-0.14,0.11 -0.26,0.19 -0.39,0.23 -0.12,0.04 -0.25,0.07 -0.4,0.07 -0.23,0 -0.42,-0.05 -0.54,-0.16 -0.12,-0.11 -0.19,-0.25 -0.19,-0.41 0,-0.1 0.03,-0.19 0.07,-0.27 0.05,-0.08 0.11,-0.15 0.19,-0.2 0.08,-0.05 0.16,-0.09 0.26,-0.11 0.07,-0.02 0.18,-0.03 0.32,-0.05 0.29,-0.03 0.51,-0.07 0.65,-0.12 0,-0.05 0,-0.08 0,-0.09 0,-0.14 -0.03,-0.24 -0.1,-0.29 -0.09,-0.08 -0.23,-0.12 -0.41,-0.12 -0.17,0 -0.3,0.03 -0.37,0.08 -0.08,0.06 -0.14,0.16 -0.18,0.3l-0.36 -0.05c0.04,-0.14 0.09,-0.26 0.16,-0.35 0.07,-0.09 0.18,-0.16 0.32,-0.2 0.14,-0.05 0.3,-0.07 0.49,-0.07 0.18,0 0.33,0.02 0.44,0.06 0.12,0.04 0.2,0.09 0.25,0.15 0.05,0.06 0.09,0.14 0.11,0.23 0.01,0.06 0.02,0.17 0.02,0.32l0 0.46c0,0.32 0.01,0.52 0.02,0.61 0.01,0.08 0.04,0.17 0.08,0.24l-0.37 0c-0.04,-0.07 -0.06,-0.16 -0.07,-0.25zm-0.03 -0.76c-0.13,0.05 -0.33,0.09 -0.59,0.13 -0.15,0.02 -0.26,0.04 -0.32,0.07 -0.06,0.03 -0.11,0.06 -0.14,0.11 -0.03,0.05 -0.05,0.1 -0.05,0.16 0,0.09 0.04,0.17 0.11,0.22 0.07,0.06 0.18,0.09 0.32,0.09 0.14,0 0.26,-0.03 0.37,-0.08 0.1,-0.06 0.19,-0.14 0.24,-0.23 0.04,-0.08 0.06,-0.19 0.06,-0.34l0 -0.13zm0.92 1.02l0 -2.03 0.33 0 0 0.31c0.08,-0.14 0.16,-0.24 0.23,-0.28 0.07,-0.05 0.15,-0.07 0.23,-0.07 0.12,0 0.24,0.04 0.37,0.11l-0.13 0.32c-0.08,-0.05 -0.18,-0.07 -0.26,-0.07 -0.08,0 -0.15,0.02 -0.21,0.07 -0.06,0.05 -0.11,0.11 -0.13,0.19 -0.04,0.12 -0.06,0.25 -0.06,0.4l0 1.06 -0.36 0zm2.77 -0.25c-0.14,0.11 -0.26,0.19 -0.39,0.23 -0.12,0.04 -0.25,0.07 -0.4,0.07 -0.23,0 -0.41,-0.05 -0.54,-0.16 -0.12,-0.11 -0.19,-0.25 -0.19,-0.41 0,-0.1 0.03,-0.19 0.07,-0.27 0.05,-0.08 0.11,-0.15 0.19,-0.2 0.07,-0.05 0.16,-0.09 0.26,-0.11 0.07,-0.02 0.18,-0.03 0.32,-0.05 0.29,-0.03 0.51,-0.07 0.65,-0.12 0,-0.05 0,-0.08 0,-0.09 0,-0.14 -0.03,-0.24 -0.1,-0.29 -0.09,-0.08 -0.23,-0.12 -0.41,-0.12 -0.17,0 -0.3,0.03 -0.38,0.08 -0.08,0.06 -0.14,0.16 -0.18,0.3l-0.36 -0.05c0.04,-0.14 0.09,-0.26 0.16,-0.35 0.07,-0.09 0.18,-0.16 0.32,-0.2 0.14,-0.05 0.3,-0.07 0.49,-0.07 0.18,0 0.33,0.02 0.44,0.06 0.12,0.04 0.2,0.09 0.25,0.15 0.05,0.06 0.09,0.14 0.11,0.23 0.01,0.06 0.02,0.17 0.02,0.32l0 0.46c0,0.32 0.01,0.52 0.02,0.61 0.01,0.08 0.04,0.17 0.08,0.24l-0.37 0c-0.04,-0.07 -0.06,-0.16 -0.07,-0.25zm-0.03 -0.76c-0.13,0.05 -0.33,0.09 -0.59,0.13 -0.15,0.02 -0.26,0.04 -0.32,0.07 -0.06,0.03 -0.11,0.06 -0.14,0.11 -0.03,0.05 -0.05,0.1 -0.05,0.16 0,0.09 0.04,0.17 0.11,0.22 0.07,0.06 0.18,0.09 0.32,0.09 0.14,0 0.26,-0.03 0.37,-0.08 0.1,-0.06 0.19,-0.14 0.24,-0.23 0.04,-0.08 0.06,-0.19 0.06,-0.34l0 -0.13z"/>
   <g style="clip-path:url(#id0)">
    <g>
    </g>
    <g style="clip-path:url(#id1)">
     <image x="144.57" y="6.31" width="72.66" height="92.29" xlink:href="Logo_Images\Logo_ImgID1.png"/>
    </g>
    <g style="clip-path:url(#id2)">
    </g>
   </g>
   <g style="clip-path:url(#id3)">
    <g>
    </g>
    <g style="clip-path:url(#id4)">
     <image x="144.57" y="6.31" width="72.66" height="92.29" xlink:href="Logo_Images\Logo_ImgID2.png"/>
    </g>
    <g style="clip-path:url(#id5)">
    </g>
   </g>
   <g style="clip-path:url(#id6)">
    <g>
    </g>
    <g style="clip-path:url(#id7)">
     <image x="144.57" y="6.31" width="72.66" height="92.29" xlink:href="Logo_Images\Logo_ImgID3.png"/>
    </g>
    <g style="clip-path:url(#id8)">
    </g>
   </g>
   <g style="clip-path:url(#id9)">
    <g>
    </g>
    <g style="clip-path:url(#id10)">
     <image x="144.57" y="6.31" width="72.66" height="92.29" xlink:href="Logo_Images\Logo_ImgID4.png"/>
    </g>
    <g style="clip-path:url(#id11)">
    </g>
   </g>
   <g style="clip-path:url(#id12)">
    <g>
    </g>
    <g style="clip-path:url(#id13)">
     <image x="144.57" y="6.31" width="72.66" height="92.29" xlink:href="Logo_Images\Logo_ImgID5.png"/>
    </g>
    <g style="clip-path:url(#id14)">
    </g>
   </g>
   <polygon class="fil1" points="45.11,7.77 40.07,18.05 37.44,9.07 "/>
   <g style="clip-path:url(#id15)">
    <g>
    </g>
    <g style="clip-path:url(#id16)">
     <image x="144.57" y="6.31" width="72.66" height="92.29" xlink:href="Logo_Images\Logo_ImgID6.png"/>
    </g>
    <g style="clip-path:url(#id17)">
    </g>
   </g>
   <polygon class="fil2" points="45.11,7.77 40.07,18.05 37.44,9.07 "/>
   <polygon class="fil3" points="22.96,7.65 28,17.94 30.63,8.96 "/>
   <g style="clip-path:url(#id18)">
    <g>
    </g>
    <g style="clip-path:url(#id19)">
     <image x="144.57" y="6.31" width="72.66" height="92.29" xlink:href="Logo_Images\Logo_ImgID7.png"/>
    </g>
    <g style="clip-path:url(#id20)">
    </g>
   </g>
   <polygon class="fil2" points="22.96,7.65 28,17.94 30.63,8.96 "/>
   <polygon class="fil4" points="40.07,18.05 52.09,7.91 49.82,15.04 42.95,21.15 37.94,20.43 "/>
   <g style="clip-path:url(#id21)">
    <g>
    </g>
    <g style="clip-path:url(#id22)">
     <image x="144.57" y="6.31" width="72.66" height="92.29" xlink:href="Logo_Images\Logo_ImgID8.png"/>
    </g>
    <g style="clip-path:url(#id23)">
    </g>
   </g>
   <polygon class="fil2" points="40.07,18.05 52.09,7.91 49.82,15.04 42.95,21.15 37.94,20.43 "/>
   <polygon class="fil5" points="46.72,21.76 49.91,18.7 50.09,13.39 41.89,20.57 43.3,22.88 "/>
   <g style="clip-path:url(#id24)">
    <g>
    </g>
    <g style="clip-path:url(#id25)">
     <image x="144.57" y="6.31" width="72.66" height="92.29" xlink:href="Logo_Images\Logo_ImgID9.png"/>
    </g>
    <g style="clip-path:url(#id26)">
    </g>
   </g>
   <polygon class="fil2" points="46.72,21.76 49.91,18.7 50.09,13.39 41.89,20.57 43.3,22.88 "/>
   <path class="fil6" d="M49.47 23.38l7.45 -5.18 -4.08 -2.87c0,0 -7.98,8.09 -8.15,7.62 -0.17,-0.47 -0.17,-0.47 -0.17,-0.47l4.94 0.9z"/>
   <g style="clip-path:url(#id27)">
    <g>
    </g>
    <g style="clip-path:url(#id28)">
     <image x="144.57" y="6.31" width="72.66" height="92.29" xlink:href="Logo_Images\Logo_ImgID10.png"/>
    </g>
    <g style="clip-path:url(#id29)">
    </g>
   </g>
   <path class="fil2" d="M49.47 23.38l7.45 -5.18 -4.08 -2.87c0,0 -7.98,8.09 -8.15,7.62 -0.17,-0.47 -0.17,-0.47 -0.17,-0.47l4.94 0.9z"/>
   <polygon class="fil7" points="14.55,23.32 7.13,19.04 4.79,13.62 20.33,24.05 "/>
   <g style="clip-path:url(#id30)">
    <g>
    </g>
    <g style="clip-path:url(#id31)">
     <image x="144.57" y="6.31" width="72.66" height="92.29" xlink:href="Logo_Images\Logo_ImgID11.png"/>
    </g>
    <g style="clip-path:url(#id32)">
    </g>
   </g>
   <polygon class="fil2" points="14.55,23.32 7.13,19.04 4.79,13.62 20.33,24.05 "/>
   <polygon class="fil8" points="46.62,12.52 50.59,11.61 52.09,7.91 54.38,11.27 58.54,11.4 55.83,14.42 56.92,18.2 53.1,16.75 49.7,18.9 50.03,15.1 "/>
   <g style="clip-path:url(#id33)">
    <g>
    </g>
    <g style="clip-path:url(#id34)">
     <image x="144.57" y="6.31" width="72.66" height="92.29" xlink:href="Logo_Images\Logo_ImgID12.png"/>
    </g>
    <g style="clip-path:url(#id35)">
    </g>
   </g>
   <polygon class="fil2" points="46.62,12.52 50.59,11.61 52.09,7.91 54.38,11.27 58.54,11.4 55.83,14.42 56.92,18.2 53.1,16.75 49.7,18.9 50.03,15.1 "/>
   <polygon class="fil9" points="54.39,22.95 61.81,18.68 64.15,13.25 48.61,23.69 "/>
   <g style="clip-path:url(#id36)">
    <g>
    </g>
    <g style="clip-path:url(#id37)">
     <image x="144.57" y="6.31" width="72.66" height="92.29" xlink:href="Logo_Images\Logo_ImgID13.png"/>
    </g>
    <g style="clip-path:url(#id38)">
    </g>
   </g>
   <polygon class="fil2" points="54.39,22.95 61.81,18.68 64.15,13.25 48.61,23.69 "/>
   <polygon class="fil10" points="28.87,18.42 16.86,8.29 19.12,15.41 25.99,21.52 31,20.8 "/>
   <g style="clip-path:url(#id39)">
    <g>
    </g>
    <g style="clip-path:url(#id40)">
     <image x="144.57" y="6.31" width="72.66" height="92.29" xlink:href="Logo_Images\Logo_ImgID14.png"/>
    </g>
    <g style="clip-path:url(#id41)">
    </g>
   </g>
   <polygon class="fil2" points="28.87,18.42 16.86,8.29 19.12,15.41 25.99,21.52 31,20.8 "/>
   <polygon class="fil11" points="22.22,22.13 19.03,19.07 18.85,13.76 27.05,20.94 25.64,23.25 "/>
   <g style="clip-path:url(#id42)">
    <g>
    </g>
    <g style="clip-path:url(#id43)">
     <image x="144.57" y="6.31" width="72.66" height="92.29" xlink:href="Logo_Images\Logo_ImgID15.png"/>
    </g>
    <g style="clip-path:url(#id44)">
    </g>
   </g>
   <polygon class="fil2" points="22.22,22.13 19.03,19.07 18.85,13.76 27.05,20.94 25.64,23.25 "/>
   <path class="fil12" d="M19.4 23.88l-7.45 -5.18 4.08 -2.87c0,0 7.98,8.09 8.15,7.62 0.17,-0.47 0.17,-0.47 0.17,-0.47l-4.94 0.9z"/>
   <g style="clip-path:url(#id45)">
    <g>
    </g>
    <g style="clip-path:url(#id46)">
     <image x="144.57" y="6.31" width="72.66" height="92.29" xlink:href="Logo_Images\Logo_ImgID16.png"/>
    </g>
    <g style="clip-path:url(#id47)">
    </g>
   </g>
   <path class="fil2" d="M19.4 23.88l-7.45 -5.18 4.08 -2.87c0,0 7.98,8.09 8.15,7.62 0.17,-0.47 0.17,-0.47 0.17,-0.47l-4.94 0.9z"/>
   <polygon class="fil8" points="22.32,12.9 18.35,11.98 16.86,8.29 14.56,11.64 10.4,11.76 13.11,14.79 12.02,18.57 15.84,17.12 19.24,19.28 18.91,15.47 "/>
   <g style="clip-path:url(#id48)">
    <g>
    </g>
    <g style="clip-path:url(#id49)">
     <image x="144.57" y="6.31" width="72.66" height="92.29" xlink:href="Logo_Images\Logo_ImgID17.png"/>
    </g>
    <g style="clip-path:url(#id50)">
    </g>
   </g>
   <polygon class="fil2" points="22.32,12.9 18.35,11.98 16.86,8.29 14.56,11.64 10.4,11.76 13.11,14.79 12.02,18.57 15.84,17.12 19.24,19.28 18.91,15.47 "/>
   <polygon class="fil13" points="1.79,22.22 11.06,26.53 14.13,24.83 5.18,20.51 "/>
   <g style="clip-path:url(#id51)">
    <g>
    </g>
    <g style="clip-path:url(#id52)">
     <image x="144.57" y="6.31" width="72.66" height="92.29" xlink:href="Logo_Images\Logo_ImgID18.png"/>
    </g>
    <g style="clip-path:url(#id53)">
    </g>
   </g>
   <polygon class="fil2" points="1.79,22.22 11.06,26.53 14.13,24.83 5.18,20.51 "/>
   <polygon class="fil14" points="14.9,23.08 8,17.72 4.93,20.75 12.88,25.01 "/>
   <g style="clip-path:url(#id54)">
    <g>
    </g>
    <g style="clip-path:url(#id55)">
     <image x="144.57" y="6.31" width="72.66" height="92.29" xlink:href="Logo_Images\Logo_ImgID19.png"/>
    </g>
    <g style="clip-path:url(#id56)">
    </g>
   </g>
   <polygon class="fil2" points="14.9,23.08 8,17.72 4.93,20.75 12.88,25.01 "/>
   <polygon class="fil15" points="34.04,16.17 34,19.58 27.07,20.27 "/>
   <g style="clip-path:url(#id57)">
    <g>
    </g>
    <g style="clip-path:url(#id58)">
     <image x="144.57" y="6.31" width="72.66" height="92.29" xlink:href="Logo_Images\Logo_ImgID20.png"/>
    </g>
    <g style="clip-path:url(#id59)">
    </g>
   </g>
   <polygon class="fil2" points="34.04,16.17 34,19.58 27.07,20.27 "/>
   <polygon class="fil16" points="34.02,16.17 34.06,19.58 40.99,20.27 "/>
   <g style="clip-path:url(#id60)">
    <g>
    </g>
    <g style="clip-path:url(#id61)">
     <image x="144.57" y="6.31" width="72.66" height="92.29" xlink:href="Logo_Images\Logo_ImgID21.png"/>
    </g>
    <g style="clip-path:url(#id62)">
    </g>
   </g>
   <polygon class="fil2" points="34.02,16.17 34.06,19.58 40.99,20.27 "/>
   <polygon class="fil17" points="54.04,22.71 60.94,17.35 64.01,20.38 56.07,24.63 "/>
   <g style="clip-path:url(#id63)">
    <g>
    </g>
    <g style="clip-path:url(#id64)">
     <image x="144.57" y="6.31" width="72.66" height="92.29" xlink:href="Logo_Images\Logo_ImgID22.png"/>
    </g>
    <g style="clip-path:url(#id65)">
    </g>
   </g>
   <polygon class="fil2" points="54.04,22.71 60.94,17.35 64.01,20.38 56.07,24.63 "/>
   <polygon class="fil18" points="67.15,21.86 57.88,26.16 54.82,24.45 63.77,20.14 "/>
   <g style="clip-path:url(#id66)">
    <g>
    </g>
    <g style="clip-path:url(#id67)">
     <image x="144.57" y="6.31" width="72.66" height="92.29" xlink:href="Logo_Images\Logo_ImgID23.png"/>
    </g>
    <g style="clip-path:url(#id68)">
    </g>
   </g>
   <polygon class="fil2" points="67.15,21.86 57.88,26.16 54.82,24.45 63.77,20.14 "/>
   <polygon class="fil8" points="66.5,18.71 68.94,16.61 68.94,16.42 65.6,16.11 64.15,13.25 62.66,16.06 59.42,16.5 61.81,18.68 61.16,21.9 64.01,20.38 67.15,21.86 "/>
   <g style="clip-path:url(#id69)">
    <g>
    </g>
    <g style="clip-path:url(#id70)">
     <image x="144.57" y="6.31" width="72.66" height="92.29" xlink:href="Logo_Images\Logo_ImgID24.png"/>
    </g>
    <g style="clip-path:url(#id71)">
    </g>
   </g>
   <polygon class="fil2" points="66.5,18.71 68.94,16.61 68.94,16.42 65.6,16.11 64.15,13.25 62.66,16.06 59.42,16.5 61.81,18.68 61.16,21.9 64.01,20.38 67.15,21.86 "/>
   <polygon class="fil8" points="2.44,19.08 -0,16.98 -0,16.79 3.34,16.48 4.79,13.62 6.28,16.43 9.52,16.87 7.13,19.04 7.78,22.27 4.93,20.75 1.79,22.22 "/>
   <g style="clip-path:url(#id72)">
    <g>
    </g>
    <g style="clip-path:url(#id73)">
     <image x="144.57" y="6.31" width="72.66" height="92.29" xlink:href="Logo_Images\Logo_ImgID25.png"/>
    </g>
    <g style="clip-path:url(#id74)">
    </g>
   </g>
   <polygon class="fil2" points="2.44,19.08 -0,16.98 -0,16.79 3.34,16.48 4.79,13.62 6.28,16.43 9.52,16.87 7.13,19.04 7.78,22.27 4.93,20.75 1.79,22.22 "/>
   <polygon class="fil8" points="22.84,7.69 30.57,6.67 34.02,0 37.39,6.6 45.11,7.77 39.53,13 40.94,20.31 34,16.81 27.07,20.27 28.45,12.96 "/>
   <g style="clip-path:url(#id75)">
    <g>
    </g>
    <g style="clip-path:url(#id76)">
     <image x="144.57" y="6.31" width="72.66" height="92.29" xlink:href="Logo_Images\Logo_ImgID26.png"/>
    </g>
    <g style="clip-path:url(#id77)">
    </g>
   </g>
   <polygon class="fil2" points="22.84,7.69 30.57,6.67 34.02,0 37.39,6.6 45.11,7.77 39.53,13 40.94,20.31 34,16.81 27.07,20.27 28.45,12.96 "/>
   <polygon class="fil19" points="45.11,61.18 40.07,50.9 37.44,59.88 "/>
   <g style="clip-path:url(#id78)">
    <g>
    </g>
    <g style="clip-path:url(#id79)">
     <image x="144.57" y="6.31" width="72.66" height="92.29" xlink:href="Logo_Images\Logo_ImgID27.png"/>
    </g>
    <g style="clip-path:url(#id80)">
    </g>
   </g>
   <polygon class="fil2" points="45.11,61.18 40.07,50.9 37.44,59.88 "/>
   <polygon class="fil20" points="22.96,61.29 28,51.01 30.63,59.99 "/>
   <g style="clip-path:url(#id81)">
    <g>
    </g>
    <g style="clip-path:url(#id82)">
     <image x="144.57" y="6.31" width="72.66" height="92.29" xlink:href="Logo_Images\Logo_ImgID28.png"/>
    </g>
    <g style="clip-path:url(#id83)">
    </g>
   </g>
   <polygon class="fil2" points="22.96,61.29 28,51.01 30.63,59.99 "/>
   <polygon class="fil21" points="40.07,50.9 52.09,61.03 49.82,53.91 42.95,47.8 37.94,48.52 "/>
   <g style="clip-path:url(#id84)">
    <g>
    </g>
    <g style="clip-path:url(#id85)">
     <image x="144.57" y="6.31" width="72.66" height="92.29" xlink:href="Logo_Images\Logo_ImgID29.png"/>
    </g>
    <g style="clip-path:url(#id86)">
    </g>
   </g>
   <polygon class="fil2" points="40.07,50.9 52.09,61.03 49.82,53.91 42.95,47.8 37.94,48.52 "/>
   <polygon class="fil22" points="46.72,47.18 49.91,50.24 50.09,55.55 41.89,48.38 43.3,46.07 "/>
   <g style="clip-path:url(#id87)">
    <g>
    </g>
    <g style="clip-path:url(#id88)">
     <image x="144.57" y="6.31" width="72.66" height="92.29" xlink:href="Logo_Images\Logo_ImgID30.png"/>
    </g>
    <g style="clip-path:url(#id89)">
    </g>
   </g>
   <polygon class="fil2" points="46.72,47.18 49.91,50.24 50.09,55.55 41.89,48.38 43.3,46.07 "/>
   <path class="fil23" d="M49.47 45.57l7.45 5.18 -4.08 2.87c0,0 -7.98,-8.09 -8.15,-7.62 -0.17,0.47 -0.17,0.47 -0.17,0.47l4.94 -0.9z"/>
   <g style="clip-path:url(#id90)">
    <g>
    </g>
    <g style="clip-path:url(#id91)">
     <image x="144.57" y="6.31" width="72.66" height="92.29" xlink:href="Logo_Images\Logo_ImgID31.png"/>
    </g>
    <g style="clip-path:url(#id92)">
    </g>
   </g>
   <path class="fil2" d="M49.47 45.57l7.45 5.18 -4.08 2.87c0,0 -7.98,-8.09 -8.15,-7.62 -0.17,0.47 -0.17,0.47 -0.17,0.47l4.94 -0.9z"/>
   <polygon class="fil24" points="14.55,45.63 7.13,49.9 4.79,55.33 20.33,44.89 "/>
   <g style="clip-path:url(#id93)">
    <g>
    </g>
    <g style="clip-path:url(#id94)">
     <image x="144.57" y="6.31" width="72.66" height="92.29" xlink:href="Logo_Images\Logo_ImgID32.png"/>
    </g>
    <g style="clip-path:url(#id95)">
    </g>
   </g>
   <polygon class="fil2" points="14.55,45.63 7.13,49.9 4.79,55.33 20.33,44.89 "/>
   <polygon class="fil8" points="46.62,56.42 50.59,57.34 52.09,61.03 54.38,57.67 58.54,57.55 55.83,54.52 56.92,50.75 53.1,52.2 49.7,50.04 50.03,53.85 "/>
   <g style="clip-path:url(#id96)">
    <g>
    </g>
    <g style="clip-path:url(#id97)">
     <image x="144.57" y="6.31" width="72.66" height="92.29" xlink:href="Logo_Images\Logo_ImgID33.png"/>
    </g>
    <g style="clip-path:url(#id98)">
    </g>
   </g>
   <polygon class="fil2" points="46.62,56.42 50.59,57.34 52.09,61.03 54.38,57.67 58.54,57.55 55.83,54.52 56.92,50.75 53.1,52.2 49.7,50.04 50.03,53.85 "/>
   <polygon class="fil25" points="54.39,46 61.81,50.27 64.15,55.7 48.61,45.26 "/>
   <g style="clip-path:url(#id99)">
    <g>
    </g>
    <g style="clip-path:url(#id100)">
     <image x="144.57" y="6.31" width="72.66" height="92.29" xlink:href="Logo_Images\Logo_ImgID34.png"/>
    </g>
    <g style="clip-path:url(#id101)">
    </g>
   </g>
   <polygon class="fil2" points="54.39,46 61.81,50.27 64.15,55.7 48.61,45.26 "/>
   <polygon class="fil26" points="28.87,50.53 16.86,60.66 19.12,53.54 25.99,47.43 31,48.15 "/>
   <g style="clip-path:url(#id102)">
    <g>
    </g>
    <g style="clip-path:url(#id103)">
     <image x="144.57" y="6.31" width="72.66" height="92.29" xlink:href="Logo_Images\Logo_ImgID35.png"/>
    </g>
    <g style="clip-path:url(#id104)">
    </g>
   </g>
   <polygon class="fil2" points="28.87,50.53 16.86,60.66 19.12,53.54 25.99,47.43 31,48.15 "/>
   <polygon class="fil27" points="22.22,46.82 19.03,49.87 18.85,55.18 27.05,48.01 25.64,45.7 "/>
   <g style="clip-path:url(#id105)">
    <g>
    </g>
    <g style="clip-path:url(#id106)">
     <image x="144.57" y="6.31" width="72.66" height="92.29" xlink:href="Logo_Images\Logo_ImgID36.png"/>
    </g>
    <g style="clip-path:url(#id107)">
    </g>
   </g>
   <polygon class="fil2" points="22.22,46.82 19.03,49.87 18.85,55.18 27.05,48.01 25.64,45.7 "/>
   <path class="fil28" d="M19.4 45.07l-7.45 5.18 4.08 2.87c0,0 7.98,-8.09 8.15,-7.62 0.17,0.47 0.17,0.47 0.17,0.47l-4.94 -0.9z"/>
   <g style="clip-path:url(#id108)">
    <g>
    </g>
    <g style="clip-path:url(#id109)">
     <image x="144.57" y="6.31" width="72.66" height="92.29" xlink:href="Logo_Images\Logo_ImgID37.png"/>
    </g>
    <g style="clip-path:url(#id110)">
    </g>
   </g>
   <path class="fil2" d="M19.4 45.07l-7.45 5.18 4.08 2.87c0,0 7.98,-8.09 8.15,-7.62 0.17,0.47 0.17,0.47 0.17,0.47l-4.94 -0.9z"/>
   <polygon class="fil8" points="22.32,56.05 18.35,56.97 16.86,60.66 14.56,57.3 10.4,57.18 13.11,54.15 12.02,50.38 15.84,51.83 19.24,49.67 18.91,53.48 "/>
   <g style="clip-path:url(#id111)">
    <g>
    </g>
    <g style="clip-path:url(#id112)">
     <image x="144.57" y="6.31" width="72.66" height="92.29" xlink:href="Logo_Images\Logo_ImgID38.png"/>
    </g>
    <g style="clip-path:url(#id113)">
    </g>
   </g>
   <polygon class="fil2" points="22.32,56.05 18.35,56.97 16.86,60.66 14.56,57.3 10.4,57.18 13.11,54.15 12.02,50.38 15.84,51.83 19.24,49.67 18.91,53.48 "/>
   <polygon class="fil29" points="1.79,46.72 11.06,42.41 14.13,44.12 5.18,48.44 "/>
   <g style="clip-path:url(#id114)">
    <g>
    </g>
    <g style="clip-path:url(#id115)">
     <image x="144.57" y="6.31" width="72.66" height="92.29" xlink:href="Logo_Images\Logo_ImgID39.png"/>
    </g>
    <g style="clip-path:url(#id116)">
    </g>
   </g>
   <polygon class="fil2" points="1.79,46.72 11.06,42.41 14.13,44.12 5.18,48.44 "/>
   <polygon class="fil30" points="14.9,45.87 8,51.23 4.93,48.2 12.88,43.94 "/>
   <g style="clip-path:url(#id117)">
    <g>
    </g>
    <g style="clip-path:url(#id118)">
     <image x="144.57" y="6.31" width="72.66" height="92.29" xlink:href="Logo_Images\Logo_ImgID40.png"/>
    </g>
    <g style="clip-path:url(#id119)">
    </g>
   </g>
   <polygon class="fil2" points="14.9,45.87 8,51.23 4.93,48.2 12.88,43.94 "/>
   <polygon class="fil15" points="34.04,52.78 34,49.37 27.07,48.68 "/>
   <g style="clip-path:url(#id120)">
    <g>
    </g>
    <g style="clip-path:url(#id121)">
     <image x="144.57" y="6.31" width="72.66" height="92.29" xlink:href="Logo_Images\Logo_ImgID41.png"/>
    </g>
    <g style="clip-path:url(#id122)">
    </g>
   </g>
   <polygon class="fil2" points="34.04,52.78 34,49.37 27.07,48.68 "/>
   <polygon class="fil16" points="34.02,52.78 34.06,49.37 40.99,48.68 "/>
   <g style="clip-path:url(#id123)">
    <g>
    </g>
    <g style="clip-path:url(#id124)">
     <image x="144.57" y="6.31" width="72.66" height="92.29" xlink:href="Logo_Images\Logo_ImgID42.png"/>
    </g>
    <g style="clip-path:url(#id125)">
    </g>
   </g>
   <polygon class="fil2" points="34.02,52.78 34.06,49.37 40.99,48.68 "/>
   <polygon class="fil31" points="54.04,46.24 60.94,51.6 64.01,48.57 56.07,44.31 "/>
   <g style="clip-path:url(#id126)">
    <g>
    </g>
    <g style="clip-path:url(#id127)">
     <image x="144.57" y="6.31" width="72.66" height="92.29" xlink:href="Logo_Images\Logo_ImgID43.png"/>
    </g>
    <g style="clip-path:url(#id128)">
    </g>
   </g>
   <polygon class="fil2" points="54.04,46.24 60.94,51.6 64.01,48.57 56.07,44.31 "/>
   <polygon class="fil32" points="67.15,47.09 57.88,42.79 54.82,44.49 63.77,48.81 "/>
   <g style="clip-path:url(#id129)">
    <g>
    </g>
    <g style="clip-path:url(#id130)">
     <image x="144.57" y="6.31" width="72.66" height="92.29" xlink:href="Logo_Images\Logo_ImgID44.png"/>
    </g>
    <g style="clip-path:url(#id131)">
    </g>
   </g>
   <polygon class="fil2" points="67.15,47.09 57.88,42.79 54.82,44.49 63.77,48.81 "/>
   <polygon class="fil8" points="66.5,50.24 68.94,52.33 68.94,52.53 65.6,52.84 64.15,55.7 62.66,52.89 59.42,52.45 61.81,50.27 61.16,47.04 64.01,48.57 67.15,47.09 "/>
   <g style="clip-path:url(#id132)">
    <g>
    </g>
    <g style="clip-path:url(#id133)">
     <image x="144.57" y="6.31" width="72.66" height="92.29" xlink:href="Logo_Images\Logo_ImgID45.png"/>
    </g>
    <g style="clip-path:url(#id134)">
    </g>
   </g>
   <polygon class="fil2" points="66.5,50.24 68.94,52.33 68.94,52.53 65.6,52.84 64.15,55.7 62.66,52.89 59.42,52.45 61.81,50.27 61.16,47.04 64.01,48.57 67.15,47.09 "/>
   <polygon class="fil8" points="2.44,49.87 -0,51.96 -0,52.16 3.34,52.47 4.79,55.33 6.28,52.52 9.52,52.08 7.13,49.9 7.78,46.68 4.93,48.2 1.79,46.72 "/>
   <g style="clip-path:url(#id135)">
    <g>
    </g>
    <g style="clip-path:url(#id136)">
     <image x="144.57" y="6.31" width="72.66" height="92.29" xlink:href="Logo_Images\Logo_ImgID46.png"/>
    </g>
    <g style="clip-path:url(#id137)">
    </g>
   </g>
   <polygon class="fil2" points="2.44,49.87 -0,51.96 -0,52.16 3.34,52.47 4.79,55.33 6.28,52.52 9.52,52.08 7.13,49.9 7.78,46.68 4.93,48.2 1.79,46.72 "/>
   <polygon class="fil8" points="22.84,61.26 30.57,62.27 34.02,68.94 37.39,62.35 45.11,61.18 39.53,55.95 40.94,48.64 34,52.14 27.07,48.68 28.45,55.99 "/>
   <g style="clip-path:url(#id138)">
    <g>
    </g>
    <g style="clip-path:url(#id139)">
     <image x="144.57" y="6.31" width="72.66" height="92.29" xlink:href="Logo_Images\Logo_ImgID47.png"/>
    </g>
    <g style="clip-path:url(#id140)">
    </g>
   </g>
   <polygon class="fil2" points="22.84,61.26 30.57,62.27 34.02,68.94 37.39,62.35 45.11,61.18 39.53,55.95 40.94,48.64 34,52.14 27.07,48.68 28.45,55.99 "/>
   <path class="fil33" d="M34.02 49.85c-3.21,0 -5.73,-0.7 -8.4,-1.45 -3.12,-0.87 -6.65,-1.85 -12.1,-1.85l-1.54 0 0 -2.15 -2.23 0 0 -19.77 2.23 0 0 -2.15 1.54 0c5.42,0 9.1,-1 12.34,-1.89 2.67,-0.73 5.19,-1.42 8.17,-1.42 2.9,0 5.32,0.67 7.87,1.38 3.23,0.9 6.9,1.92 12.63,1.92l1.54 0 0 2.15 2.23 0 0 19.77 -2.23 0 0 2.15 -1.54 0c-5.5,0 -9.11,1 -12.3,1.88 -2.65,0.73 -5.15,1.42 -8.21,1.42z"/>
   <g style="clip-path:url(#id141)">
    <g>
    </g>
    <g style="clip-path:url(#id142)">
     <image x="144.57" y="6.31" width="72.66" height="92.29" xlink:href="Logo_Images\Logo_ImgID48.png"/>
    </g>
    <g style="clip-path:url(#id143)">
    </g>
   </g>
   <path class="fil2" d="M34.02 49.85c-3.21,0 -5.73,-0.7 -8.4,-1.45 -3.12,-0.87 -6.65,-1.85 -12.1,-1.85l-1.54 0 0 -2.15 -2.23 0 0 -19.77 2.23 0 0 -2.15 1.54 0c5.42,0 9.1,-1 12.34,-1.89 2.67,-0.73 5.19,-1.42 8.17,-1.42 2.9,0 5.32,0.67 7.87,1.38 3.23,0.9 6.9,1.92 12.63,1.92l1.54 0 0 2.15 2.23 0 0 19.77 -2.23 0 0 2.15 -1.54 0c-5.5,0 -9.11,1 -12.3,1.88 -2.65,0.73 -5.15,1.42 -8.21,1.42z"/>
   <path class="fil34" d="M34.02 48.27c-2.97,0 -5.38,-0.67 -7.93,-1.38 -3.21,-0.89 -6.83,-1.9 -12.45,-1.92l0 -2.15 -2.23 0 0 -16.61 2.23 0 0 -2.15c5.59,-0.02 9.35,-1.04 12.68,-1.95 2.56,-0.7 4.97,-1.35 7.71,-1.35 2.66,0 4.86,0.61 7.4,1.32 3.32,0.93 7.08,1.97 12.98,1.98l0 2.15 2.23 0 0 16.61 -2.23 0 0 2.15c-5.67,0.02 -9.37,1.04 -12.64,1.94 -2.53,0.7 -4.92,1.36 -7.74,1.36z"/>
   <g style="clip-path:url(#id144)">
    <g>
    </g>
    <g style="clip-path:url(#id145)">
     <image x="144.57" y="6.31" width="72.66" height="92.29" xlink:href="Logo_Images\Logo_ImgID49.png"/>
    </g>
    <g style="clip-path:url(#id146)">
    </g>
   </g>
   <path class="fil2" d="M34.02 48.27c-2.97,0 -5.38,-0.67 -7.93,-1.38 -3.21,-0.89 -6.83,-1.9 -12.45,-1.92l0 -2.15 -2.23 0 0 -16.61 2.23 0 0 -2.15c5.59,-0.02 9.35,-1.04 12.68,-1.95 2.56,-0.7 4.97,-1.35 7.71,-1.35 2.66,0 4.86,0.61 7.4,1.32 3.32,0.93 7.08,1.97 12.98,1.98l0 2.15 2.23 0 0 16.61 -2.23 0 0 2.15c-5.67,0.02 -9.37,1.04 -12.64,1.94 -2.53,0.7 -4.92,1.36 -7.74,1.36z"/>
   <path class="fil35" d="M34.02 47.68c-2.89,0 -5.25,-0.66 -7.76,-1.36 -3.12,-0.87 -6.64,-1.85 -12,-1.93l0 -2.15 -2.23 0 0 -15.42 2.23 0 0 -2.15c5.33,-0.08 8.99,-1.08 12.22,-1.96 2.51,-0.68 4.89,-1.33 7.54,-1.33 2.57,0 4.73,0.6 7.23,1.3 3.24,0.9 6.9,1.92 12.53,2l0 2.15 2.23 0 0 15.42 -2.23 0 0 2.15c-5.41,0.08 -9.01,1.08 -12.19,1.96 -2.48,0.69 -4.83,1.34 -7.57,1.34z"/>
   <g style="clip-path:url(#id147)">
    <g>
    </g>
    <g style="clip-path:url(#id148)">
     <image x="144.57" y="6.31" width="72.66" height="92.29" xlink:href="Logo_Images\Logo_ImgID50.png"/>
    </g>
    <g style="clip-path:url(#id149)">
    </g>
   </g>
   <path class="fil2" d="M34.02 47.68c-2.89,0 -5.25,-0.66 -7.76,-1.36 -3.12,-0.87 -6.64,-1.85 -12,-1.93l0 -2.15 -2.23 0 0 -15.42 2.23 0 0 -2.15c5.33,-0.08 8.99,-1.08 12.22,-1.96 2.51,-0.68 4.89,-1.33 7.54,-1.33 2.57,0 4.73,0.6 7.23,1.3 3.24,0.9 6.9,1.92 12.53,2l0 2.15 2.23 0 0 15.42 -2.23 0 0 2.15c-5.41,0.08 -9.01,1.08 -12.19,1.96 -2.48,0.69 -4.83,1.34 -7.57,1.34z"/>
   <path class="fil36" d="M36.65 24.98c0,0.12 -0.08,0.22 -0.18,0.22 -0.1,0 -0.18,-0.1 -0.18,-0.22 0,-0.12 0.08,-0.22 0.18,-0.22 0.1,0 0.18,0.1 0.18,0.22zm-2.46 -1.65c0,0.12 -0.08,0.22 -0.18,0.22 -0.1,0 -0.18,-0.1 -0.18,-0.22 0,-0.12 0.08,-0.22 0.18,-0.22 0.1,0 0.18,0.1 0.18,0.22zm0.75 2.16l-0.93 -1.76 -0.93 1.76 -1.36 -0.31 0.54 1.23 3.48 0 0.54 -1.23 -1.36 0.31zm0.03 -0.15l-0.21 -0.41 0.4 -0.65 0.14 0.99 -0.33 0.07zm-1.94 0l0.21 -0.41 -0.41 -0.65 -0.14 0.99 0.33 0.07zm-1.3 -0.36c0,0.12 -0.08,0.22 -0.18,0.22 -0.09,0 -0.17,-0.1 -0.17,-0.22 0,-0.12 0.08,-0.22 0.17,-0.22 0.1,0 0.18,0.1 0.18,0.22z"/>
   <g style="clip-path:url(#id150)">
    <g>
    </g>
    <g style="clip-path:url(#id151)">
     <image x="144.57" y="6.31" width="72.66" height="92.29" xlink:href="Logo_Images\Logo_ImgID51.png"/>
    </g>
    <g style="clip-path:url(#id152)">
    </g>
   </g>
   <path class="fil2" d="M36.65 24.98c0,0.12 -0.08,0.22 -0.18,0.22 -0.1,0 -0.18,-0.1 -0.18,-0.22 0,-0.12 0.08,-0.22 0.18,-0.22 0.1,0 0.18,0.1 0.18,0.22zm-2.46 -1.65c0,0.12 -0.08,0.22 -0.18,0.22 -0.1,0 -0.18,-0.1 -0.18,-0.22 0,-0.12 0.08,-0.22 0.18,-0.22 0.1,0 0.18,0.1 0.18,0.22zm0.75 2.16l-0.93 -1.76 -0.93 1.76 -1.36 -0.31 0.54 1.23 3.48 0 0.54 -1.23 -1.36 0.31zm0.03 -0.15l-0.21 -0.41 0.4 -0.65 0.14 0.99 -0.33 0.07zm-1.94 0l0.21 -0.41 -0.41 -0.65 -0.14 0.99 0.33 0.07zm-1.3 -0.36c0,0.12 -0.08,0.22 -0.18,0.22 -0.09,0 -0.17,-0.1 -0.17,-0.22 0,-0.12 0.08,-0.22 0.17,-0.22 0.1,0 0.18,0.1 0.18,0.22z"/>
   <polygon class="fil37" points="35.44,44.68 35.59,44.97 35.91,45.01 35.68,45.23 35.73,45.54 35.44,45.4 35.15,45.54 35.2,45.23 34.97,45.01 35.29,44.97 "/>
   <g style="clip-path:url(#id153)">
    <g>
    </g>
    <g style="clip-path:url(#id154)">
     <image x="144.57" y="6.31" width="72.66" height="92.29" xlink:href="Logo_Images\Logo_ImgID52.png"/>
    </g>
    <g style="clip-path:url(#id155)">
    </g>
   </g>
   <polygon class="fil2" points="35.44,44.68 35.59,44.97 35.91,45.01 35.68,45.23 35.73,45.54 35.44,45.4 35.15,45.54 35.2,45.23 34.97,45.01 35.29,44.97 "/>
   <polygon class="fil38" points="33.97,44.76 34.19,45.18 34.68,45.25 34.32,45.58 34.41,46.04 33.97,45.82 33.53,46.04 33.61,45.58 33.26,45.25 33.75,45.18 "/>
   <g style="clip-path:url(#id156)">
    <g>
    </g>
    <g style="clip-path:url(#id157)">
     <image x="144.57" y="6.31" width="72.66" height="92.29" xlink:href="Logo_Images\Logo_ImgID53.png"/>
    </g>
    <g style="clip-path:url(#id158)">
    </g>
   </g>
   <polygon class="fil2" points="33.97,44.76 34.19,45.18 34.68,45.25 34.32,45.58 34.41,46.04 33.97,45.82 33.53,46.04 33.61,45.58 33.26,45.25 33.75,45.18 "/>
   <polygon class="fil39" points="32.59,44.68 32.74,44.97 33.07,45.01 32.83,45.23 32.89,45.54 32.59,45.4 32.3,45.54 32.36,45.23 32.12,45.01 32.45,44.97 "/>
   <g style="clip-path:url(#id159)">
    <g>
    </g>
    <g style="clip-path:url(#id160)">
     <image x="144.57" y="6.31" width="72.66" height="92.29" xlink:href="Logo_Images\Logo_ImgID54.png"/>
    </g>
    <g style="clip-path:url(#id161)">
    </g>
   </g>
   <polygon class="fil2" points="32.59,44.68 32.74,44.97 33.07,45.01 32.83,45.23 32.89,45.54 32.59,45.4 32.3,45.54 32.36,45.23 32.12,45.01 32.45,44.97 "/>
   <path class="fil0" d="M23.82 29.09l1.18 1.05 1.64 0 -1.67 -1.53 1.67 -1.53 -1.64 0 -1.18 1.05 -0.55 0 0 -1.05 -1.25 0 0 3.06 1.25 0 0 -1.05 0.55 0zm7.73 -0.07l-0.75 -1.93 -1.41 0 -0.75 1.93 -0.74 -1.93 -1.41 0 1.41 3.06 1.49 0 0.71 -1.53 0.7 1.53 1.49 0 1.41 -3.06 -1.41 0 -0.75 1.93zm3.54 -1.05l0.44 0.9 -0.89 0 0.44 -0.9zm-2.47 2.17l1.41 0 0.25 -0.52 1.61 0 0.25 0.52 1.41 0 -1.73 -3.06 -1.49 0 -1.73 3.06zm4.78 -3.06l0 3.06 1.26 0 0 -0.75 1.12 0 0.6 0.75 1.34 0 -0.7 -0.86c0.21,-0.09 0.38,-0.23 0.5,-0.42 0.13,-0.19 0.2,-0.39 0.2,-0.63 0.01,-0.63 -0.55,-1.16 -1.21,-1.16l-3.1 0zm2.78 0.89c0.15,0 0.27,0.12 0.27,0.26 0,0.07 -0.02,0.13 -0.08,0.19 -0.06,0.05 -0.12,0.07 -0.2,0.07l-1.53 0 0 -0.52 1.53 0zm3.85 -0.01l0.44 0.9 -0.89 0 0.44 -0.9zm-2.47 2.17l1.41 0 0.25 -0.52 1.61 0 0.25 0.52 1.41 0 -1.73 -3.06 -1.49 0 -1.72 3.06z"/>
   <g style="clip-path:url(#id162)">
    <g>
    </g>
    <g style="clip-path:url(#id163)">
     <image x="143.64" y="5.82" width="71.88" height="91.29" xlink:href="Logo_Images\Logo_ImgID55.png"/>
    </g>
    <g style="clip-path:url(#id164)">
    </g>
   </g>
   <g style="clip-path:url(#id165)">
    <g>
    </g>
    <g style="clip-path:url(#id166)">
     <image x="143.64" y="5.82" width="71.88" height="91.29" xlink:href="Logo_Images\Logo_ImgID56.png"/>
    </g>
    <g style="clip-path:url(#id167)">
    </g>
   </g>
   <g style="clip-path:url(#id168)">
    <g>
    </g>
    <g style="clip-path:url(#id169)">
     <image x="143.64" y="5.82" width="71.88" height="91.29" xlink:href="Logo_Images\Logo_ImgID57.png"/>
    </g>
    <g style="clip-path:url(#id170)">
    </g>
   </g>
   <g style="clip-path:url(#id171)">
    <g>
    </g>
    <g style="clip-path:url(#id172)">
     <image x="143.64" y="5.82" width="71.88" height="91.29" xlink:href="Logo_Images\Logo_ImgID58.png"/>
    </g>
    <g style="clip-path:url(#id173)">
    </g>
   </g>
   <g style="clip-path:url(#id174)">
    <g>
    </g>
    <g style="clip-path:url(#id175)">
     <image x="143.64" y="5.82" width="71.88" height="91.29" xlink:href="Logo_Images\Logo_ImgID59.png"/>
    </g>
    <g style="clip-path:url(#id176)">
    </g>
   </g>
   <path class="fil40" d="M20.05 39.66l0 1.33 1.6 0 0 -3.88 -1.6 0 0 1.32 -2.39 0 0 -1.32 -1.59 0 0 3.88 1.59 0 0 -1.33 2.39 0zm4.29 -1.42l0.56 1.14 -1.12 0 0.56 -1.14zm-3.14 2.75l1.79 0 0.32 -0.66 2.04 0 0.32 0.66 1.79 0 -2.19 -3.88 -1.89 0 -2.19 3.88zm5.82 -3.88l0 3.88 1.59 0 0 -0.94 1.42 0 0.77 0.94 1.69 0 -0.89 -1.09c0.27,-0.12 0.48,-0.3 0.64,-0.53 0.16,-0.24 0.24,-0.5 0.24,-0.79 0.01,-0.8 -0.7,-1.48 -1.54,-1.47l-3.93 0zm3.53 1.14c0.2,0 0.35,0.15 0.35,0.33 0,0.09 -0.03,0.17 -0.1,0.23 -0.07,0.06 -0.15,0.09 -0.24,0.09l-1.94 0 0 -0.66 1.94 0zm3.02 -1.14l-1.79 0 2.09 3.88 1.89 0 2.09 -3.88 -1.79 0 -1.24 2.69 -1.24 -2.69zm3.83 3.88l4.78 0 0 -0.99 -3.19 0 0 -0.5 3.19 0 0 -0.9 -3.19 0 0 -0.5 3.19 0 0 -0.99 -4.78 0 0 3.88zm6.3 -2.61c0,-0.31 0.61,-0.38 1.1,-0.38 0.5,0 0.92,0.07 1.1,0.38l1.66 0c-0.15,-1.21 -1.34,-1.36 -2.77,-1.37 -1.43,0 -2.77,0.26 -2.77,1.37 -0,0.97 1.6,1.04 2.74,1.1 0.64,0.03 1.14,0.06 1.14,0.22 0,0.3 -0.61,0.38 -1.1,0.38 -0.5,0 -0.92,-0.08 -1.1,-0.38l-1.67 0c0.15,1.21 1.34,1.37 2.77,1.37 1.43,0 2.77,-0.26 2.77,-1.37 0,-0.97 -1.6,-1.05 -2.74,-1.1 -0.64,-0.03 -1.14,-0.05 -1.14,-0.22zm6.83 2.61l0 -2.65 1.89 0 0 -1.23 -5.37 0 0 1.23 1.89 0 0 2.65 1.59 0z"/>
   <g style="clip-path:url(#id177)">
    <g>
    </g>
    <g style="clip-path:url(#id178)">
     <image x="143.64" y="6.08" width="71.88" height="91.29" xlink:href="Logo_Images\Logo_ImgID60.png"/>
    </g>
    <g style="clip-path:url(#id179)">
    </g>
   </g>
   <g style="clip-path:url(#id180)">
    <g>
    </g>
    <g style="clip-path:url(#id181)">
     <image x="143.64" y="6.08" width="71.88" height="91.29" xlink:href="Logo_Images\Logo_ImgID61.png"/>
    </g>
    <g style="clip-path:url(#id182)">
    </g>
   </g>
   <g style="clip-path:url(#id183)">
    <g>
    </g>
    <g style="clip-path:url(#id184)">
     <image x="143.64" y="6.08" width="71.88" height="91.29" xlink:href="Logo_Images\Logo_ImgID62.png"/>
    </g>
    <g style="clip-path:url(#id185)">
    </g>
   </g>
   <g style="clip-path:url(#id186)">
    <g>
    </g>
    <g style="clip-path:url(#id187)">
     <image x="143.64" y="6.08" width="71.88" height="91.29" xlink:href="Logo_Images\Logo_ImgID63.png"/>
    </g>
    <g style="clip-path:url(#id188)">
    </g>
   </g>
   <g style="clip-path:url(#id189)">
    <g>
    </g>
    <g style="clip-path:url(#id190)">
     <image x="143.64" y="6.08" width="71.88" height="91.29" xlink:href="Logo_Images\Logo_ImgID64.png"/>
    </g>
    <g style="clip-path:url(#id191)">
    </g>
   </g>
   <g style="clip-path:url(#id192)">
    <g>
    </g>
    <g style="clip-path:url(#id193)">
     <image x="143.64" y="6.08" width="71.88" height="91.29" xlink:href="Logo_Images\Logo_ImgID65.png"/>
    </g>
    <g style="clip-path:url(#id194)">
    </g>
   </g>
   <g style="clip-path:url(#id195)">
    <g>
    </g>
    <g style="clip-path:url(#id196)">
     <image x="143.64" y="6.08" width="71.88" height="91.29" xlink:href="Logo_Images\Logo_ImgID66.png"/>
    </g>
    <g style="clip-path:url(#id197)">
    </g>
   </g>
   <path class="fil41" d="M24.5 42.51l0.03 -0.14 1.16 0 0 -0.4 -1.68 0 -0.19 0.8 0 0 0.83 0c0.49,0 0.55,0.07 0.55,0.17 0,0.08 -0.1,0.11 -0.33,0.11 -0.24,-0 -0.43,0 -0.43,-0.15l-0.61 0c0,0.5 0.41,0.59 1.02,0.59 0.31,0 0.55,-0.04 0.72,-0.13 0.17,-0.09 0.25,-0.21 0.25,-0.36 0,-0.46 -0.53,-0.5 -1.16,-0.5l-0.15 0zm2.74 0.95l0 -1.02 0.73 0 0 -0.47 -2.06 0 0 0.47 0.73 0 0 1.02 0.61 0zm2.5 -0.51l0 0.51 0.62 0 0 -1.49 -0.62 0 0 0.51 -0.92 0 0 -0.51 -0.61 0 0 1.49 0.61 0 0 -0.51 0.92 0zm1.87 0.51l1.83 0 0 -0.38 -1.22 0 0 -0.19 1.22 0 0 -0.35 -1.22 0 0 -0.19 1.22 0 0 -0.38 -1.83 0 0 1.49zm3.73 -0.75c0,0.15 -0.09,0.27 -0.25,0.27l-0.67 0 0 -0.54 0.67 0c0.16,0 0.25,0.12 0.25,0.27zm-1.53 -0.74l0 1.49 1.39 0c0.43,0.01 0.75,-0.34 0.75,-0.75 0.01,-0.4 -0.32,-0.75 -0.75,-0.74l-1.39 0zm2.37 -0l0 1.49 0.61 0 0 -1.49 -0.61 0zm2.18 1.49l0 -1.02 0.73 0 0 -0.47 -2.06 0 0 0.47 0.73 0 0 1.02 0.61 0zm0.98 -1.49l0 1.49 0.61 0 0 -1.49 -0.61 0zm1.91 -0.04c-0.59,0 -1.07,0.16 -1.07,0.73l0 0.11c-0,0.56 0.48,0.73 1.07,0.73 0.59,0 1.07,-0.16 1.07,-0.73l0 -0.11c0,-0.56 -0.48,-0.73 -1.07,-0.73zm0.46 0.8c0.01,0.24 -0.21,0.29 -0.46,0.29 -0.25,0 -0.46,-0.05 -0.46,-0.29l0 -0.04c-0,-0.24 0.21,-0.29 0.46,-0.29 0.25,0 0.47,0.05 0.46,0.29l0 0.04zm2.37 0.03l-0.69 -0.79 -0.84 0 0 1.49 0.61 0 0 -0.91 0.84 0.91 0.69 0 0 -1.49 -0.61 0 0 0.79z"/>
   <g style="clip-path:url(#id198)">
    <g>
    </g>
    <g style="clip-path:url(#id199)">
     <image x="72.83" y="30.05" width="27.61" height="35.07" xlink:href="Logo_Images\Logo_ImgID67.png"/>
    </g>
    <g style="clip-path:url(#id200)">
    </g>
   </g>
   <g style="clip-path:url(#id201)">
    <g>
    </g>
    <g style="clip-path:url(#id202)">
     <image x="72.83" y="30.05" width="27.61" height="35.07" xlink:href="Logo_Images\Logo_ImgID68.png"/>
    </g>
    <g style="clip-path:url(#id203)">
    </g>
   </g>
   <g style="clip-path:url(#id204)">
    <g>
    </g>
    <g style="clip-path:url(#id205)">
     <image x="72.83" y="30.05" width="27.61" height="35.07" xlink:href="Logo_Images\Logo_ImgID69.png"/>
    </g>
    <g style="clip-path:url(#id206)">
    </g>
   </g>
   <g style="clip-path:url(#id207)">
    <g>
    </g>
    <g style="clip-path:url(#id208)">
     <image x="72.83" y="30.05" width="27.61" height="35.07" xlink:href="Logo_Images\Logo_ImgID70.png"/>
    </g>
    <g style="clip-path:url(#id209)">
    </g>
   </g>
   <g style="clip-path:url(#id210)">
    <g>
    </g>
    <g style="clip-path:url(#id211)">
     <image x="72.83" y="30.05" width="27.61" height="35.07" xlink:href="Logo_Images\Logo_ImgID71.png"/>
    </g>
    <g style="clip-path:url(#id212)">
    </g>
   </g>
   <g style="clip-path:url(#id213)">
    <g>
    </g>
    <g style="clip-path:url(#id214)">
     <image x="72.83" y="30.05" width="27.61" height="35.07" xlink:href="Logo_Images\Logo_ImgID72.png"/>
    </g>
    <g style="clip-path:url(#id215)">
    </g>
   </g>
   <g style="clip-path:url(#id216)">
    <g>
    </g>
    <g style="clip-path:url(#id217)">
     <image x="72.83" y="30.05" width="27.61" height="35.07" xlink:href="Logo_Images\Logo_ImgID73.png"/>
    </g>
    <g style="clip-path:url(#id218)">
    </g>
   </g>
   <g style="clip-path:url(#id219)">
    <g>
    </g>
    <g style="clip-path:url(#id220)">
     <image x="72.83" y="30.05" width="27.61" height="35.07" xlink:href="Logo_Images\Logo_ImgID74.png"/>
    </g>
    <g style="clip-path:url(#id221)">
    </g>
   </g>
   <g style="clip-path:url(#id222)">
    <g>
    </g>
    <g style="clip-path:url(#id223)">
     <image x="72.83" y="30.05" width="27.61" height="35.07" xlink:href="Logo_Images\Logo_ImgID75.png"/>
    </g>
    <g style="clip-path:url(#id224)">
    </g>
   </g>
   <g style="clip-path:url(#id225)">
    <g>
    </g>
    <g style="clip-path:url(#id226)">
     <image x="72.83" y="30.05" width="27.61" height="35.07" xlink:href="Logo_Images\Logo_ImgID76.png"/>
    </g>
    <g style="clip-path:url(#id227)">
    </g>
   </g>
   <g>
    <polygon class="fil42" points="18.2,35.96 18.2,33.1 18.71,33.1 17.92,32.36 20.24,32.06 20.24,31.78 14.44,31.78 14.44,33.1 16.48,33.1 16.48,35.96 "/>
    <g style="clip-path:url(#id228)">
     <g>
     </g>
     <g style="clip-path:url(#id229)">
      <image x="140.83" y="5.83" width="71.88" height="91.29" xlink:href="Logo_Images\Logo_ImgID77.png"/>
     </g>
     <g style="clip-path:url(#id230)">
     </g>
    </g>
    <polygon class="fil2" points="18.2,35.96 18.2,33.1 18.71,33.1 17.92,32.36 20.24,32.06 20.24,31.78 14.44,31.78 14.44,33.1 16.48,33.1 16.48,35.96 "/>
    <path class="fil42" d="M25.31 31.77l0 0.3 1.72 0.26 0 -0.56 -1.72 0zm0 2.67l0 1.29 0.05 0.23 5.11 0 0 -1.33 -3.44 0 0 -1.8 -1.72 1.61z"/>
    <g style="clip-path:url(#id231)">
     <g>
     </g>
     <g style="clip-path:url(#id232)">
      <image x="140.83" y="5.83" width="71.88" height="91.29" xlink:href="Logo_Images\Logo_ImgID78.png"/>
     </g>
     <g style="clip-path:url(#id233)">
     </g>
    </g>
    <path class="fil2" d="M25.31 31.77l0 0.3 1.72 0.26 0 -0.56 -1.72 0zm0 2.67l0 1.29 0.05 0.23 5.11 0 0 -1.33 -3.44 0 0 -1.8 -1.72 1.61z"/>
    <polygon class="fil43" points="30.7,35.96 35.85,35.96 35.85,34.89 32.42,34.89 32.42,34.35 35.85,34.35 35.85,33.38 32.42,33.38 32.42,32.85 35.85,32.85 35.85,31.78 30.7,31.78 "/>
    <g style="clip-path:url(#id234)">
     <g>
     </g>
     <g style="clip-path:url(#id235)">
      <image x="140.83" y="5.83" width="71.88" height="91.29" xlink:href="Logo_Images\Logo_ImgID79.png"/>
     </g>
     <g style="clip-path:url(#id236)">
     </g>
    </g>
    <polygon class="fil44" points="30.7,35.96 35.85,35.96 35.85,34.89 32.42,34.89 32.42,34.35 35.85,34.35 35.85,33.38 32.42,33.38 32.42,32.85 35.85,32.85 35.85,31.78 30.7,31.78 "/>
    <polygon class="fil43" points="40.72,33.99 38.78,31.77 36.42,31.77 36.42,35.96 38.14,35.96 38.14,33.4 40.5,35.96 42.44,35.96 42.44,31.77 40.72,31.77 "/>
    <g style="clip-path:url(#id237)">
     <g>
     </g>
     <g style="clip-path:url(#id238)">
      <image x="140.83" y="5.83" width="71.88" height="91.29" xlink:href="Logo_Images\Logo_ImgID80.png"/>
     </g>
     <g style="clip-path:url(#id239)">
     </g>
    </g>
    <polygon class="fil44" points="40.72,33.99 38.78,31.77 36.42,31.77 36.42,35.96 38.14,35.96 38.14,33.4 40.5,35.96 42.44,35.96 42.44,31.77 40.72,31.77 "/>
    <polygon class="fil43" points="46.45,35.96 46.45,33.1 48.49,33.1 48.49,31.78 42.69,31.78 42.69,33.1 44.73,33.1 44.73,35.96 "/>
    <g style="clip-path:url(#id240)">
     <g>
     </g>
     <g style="clip-path:url(#id241)">
      <image x="140.83" y="5.83" width="71.88" height="91.29" xlink:href="Logo_Images\Logo_ImgID81.png"/>
     </g>
     <g style="clip-path:url(#id242)">
     </g>
    </g>
    <polygon class="fil44" points="46.45,35.96 46.45,33.1 48.49,33.1 48.49,31.78 42.69,31.78 42.69,33.1 44.73,33.1 44.73,35.96 "/>
    <path class="fil8" d="M19.37 32.74l2.32 -0.3 1.04 -2 1.01 1.98 2.32 0.35 -1.68 1.57 0.42 2.19 -2.08 -1.05 -2.08 1.04 0.41 -2.2 -1.68 -1.58zm1.57 0.35l1.23 -0.16 0.55 -1.07 0.54 1.05 1.23 0.19 -0.89 0.83 0.22 1.17 -1.11 -0.56 -1.1 0.55 0.22 -1.17 -0.9 -0.84z"/>
    <g style="clip-path:url(#id243)">
     <g>
     </g>
     <g style="clip-path:url(#id244)">
      <image x="140.83" y="5.83" width="71.88" height="91.29" xlink:href="Logo_Images\Logo_ImgID82.png"/>
     </g>
     <g style="clip-path:url(#id245)">
     </g>
    </g>
    <path class="fil2" d="M19.37 32.74l2.32 -0.3 1.04 -2 1.01 1.98 2.32 0.35 -1.68 1.57 0.42 2.19 -2.08 -1.05 -2.08 1.04 0.41 -2.2 -1.68 -1.58zm1.57 0.35l1.23 -0.16 0.55 -1.07 0.54 1.05 1.23 0.19 -0.89 0.83 0.22 1.17 -1.11 -0.56 -1.1 0.55 0.22 -1.17 -0.9 -0.84z"/>
   </g>
   <path class="fil41" d="M49.65 33.25c0,-0.34 0.65,-0.41 1.19,-0.41 0.54,0 0.99,0.08 1.19,0.41l1.8 0c-0.17,-1.31 -1.45,-1.48 -3,-1.49 -1.55,0 -3,0.29 -3,1.49 -0,1.05 1.73,1.13 2.96,1.19 0.69,0.03 1.23,0.06 1.23,0.24 0,0.33 -0.66,0.41 -1.19,0.41 -0.54,0 -1,-0.08 -1.19,-0.41l-1.81 0c0.17,1.3 1.45,1.48 3,1.48 1.55,0 3,-0.28 3,-1.48 0,-1.05 -1.73,-1.13 -2.96,-1.19 -0.69,-0.03 -1.23,-0.06 -1.23,-0.24z"/>
   <g style="clip-path:url(#id246)">
    <g>
    </g>
    <g style="clip-path:url(#id247)">
     <image x="157.82" y="-1.72" width="77.81" height="98.82" xlink:href="Logo_Images\Logo_ImgID83.png"/>
    </g>
    <g style="clip-path:url(#id248)">
    </g>
   </g>
  </g>
 </g>
</svg>
