<svg version="1.1" id="Layer_1" xmlns="http://www.w3.org/2000/svg" xmlns:xlink="http://www.w3.org/1999/xlink" x="0px" y="0px"
	 width="100%" viewBox="0 0 50 50" enable-background="new 0 0 50 50" xml:space="preserve">
<path fill="#47704C" opacity="1.000000" stroke="none" 
	d="
M27.000000,1.000000 
	C34.964111,1.000000 42.928226,1.000000 50.946167,1.000000 
	C50.946167,17.555878 50.946167,34.111954 50.946167,51.000000 
	C43.315647,51.000000 35.626518,51.000000 27.466530,50.625404 
	C28.735792,48.443626 30.475908,46.636444 32.585453,44.445595 
	C32.405579,44.146435 31.767565,43.085327 31.361179,41.931057 
	C31.796749,41.574787 32.000694,41.311680 32.320541,41.039719 
	C32.436447,41.030872 32.658306,40.961395 32.829712,41.191513 
	C33.328316,41.561337 33.655510,41.701046 34.213638,41.914165 
	C34.444572,41.987579 34.918884,42.087128 35.068184,42.394485 
	C36.405819,44.317345 37.594151,45.932842 39.021099,47.872730 
	C41.135731,44.742725 42.456127,42.788326 44.086742,40.878727 
	C44.605114,40.928116 44.813263,40.932697 45.010544,40.965401 
	C44.999680,40.993530 45.058468,40.980095 45.139252,41.260925 
	C45.763866,41.369419 46.307693,41.197083 47.030746,40.701012 
	C48.105309,40.096458 49.000645,39.815639 50.068882,39.480591 
	C49.390514,37.599354 48.772346,35.885059 47.808754,34.138966 
	C47.235199,34.142487 47.007072,34.177811 46.545559,34.041550 
	C45.640026,33.605576 44.967873,33.341187 44.142914,32.819637 
	C43.672836,32.336819 43.355572,32.111160 43.022858,31.457689 
	C42.950287,29.024744 42.893158,27.019608 42.894485,24.599295 
	C42.971573,22.784184 42.990204,21.384251 43.268143,20.013969 
	C43.695148,20.090025 43.862846,20.136429 44.021400,20.616201 
	C44.012253,23.635710 44.012253,26.221851 44.012253,28.807993 
	C44.299656,28.806339 44.587055,28.804684 44.874458,28.803030 
	C44.874458,25.850792 44.874458,22.898554 44.932312,19.714350 
	C44.990166,19.482384 45.047142,19.008921 45.018967,19.018700 
	C44.990788,19.028477 45.028088,19.075024 45.266422,18.997704 
	C45.685295,18.649569 45.865833,18.378754 46.389091,18.030157 
	C46.953144,17.875547 47.174480,17.798723 47.507225,17.722687 
	C47.618637,17.723473 47.745667,17.337816 47.778877,16.996962 
	C47.205334,16.492937 46.598576,16.329767 45.714706,16.009596 
	C44.969452,15.186569 44.501308,14.520545 44.043034,13.640946 
	C44.052898,13.427372 44.046032,12.999822 44.018524,12.999157 
	C43.991020,12.998491 44.008926,13.050527 44.350349,13.011988 
	C45.067036,12.610458 45.442303,12.247466 45.817570,11.884474 
	C45.209316,11.527649 44.601059,11.170825 43.975266,10.485096 
	C42.307953,8.797895 40.706001,7.370831 38.957367,6.154676 
	C38.691895,5.970039 37.625408,6.645388 37.140343,7.132847 
	C36.296555,7.980803 35.617195,8.992380 34.642776,9.975599 
	C34.416653,10.015840 33.979267,10.160394 33.694412,10.185203 
	C33.149273,10.489773 32.888988,10.769533 32.529282,11.005469 
	C32.429863,10.961645 32.212749,10.952769 32.081108,10.738083 
	C31.677498,10.342225 31.405531,10.161055 31.198818,9.639471 
	C31.868578,8.419473 32.473087,7.539888 32.253101,7.859978 
	C30.152851,5.117281 28.576426,3.058641 27.000000,1.000000 
z"/>
<path fill="#47704C" opacity="1.000000" stroke="none" 
	d="
M1.000000,34.000000 
	C1.000000,23.086704 1.000000,12.173408 1.000000,1.000000 
	C8.352139,1.000000 15.707333,1.000000 23.405519,1.342877 
	C21.906013,3.337581 20.041685,4.967023 18.271646,6.693157 
	C18.157404,6.804567 18.770229,7.661538 19.035915,8.458312 
	C19.011297,9.127179 18.995602,9.509422 18.791782,9.920807 
	C18.603657,9.949949 18.254839,10.102541 17.929232,10.073293 
	C17.389240,10.083282 17.174854,10.122520 16.664246,10.011698 
	C14.147038,6.019915 11.632908,8.807623 9.419534,9.478972 
	C9.353149,10.667251 9.427423,11.815681 9.194199,12.897840 
	C8.888857,14.314628 8.340631,15.679070 7.935830,17.058163 
	C7.974777,17.050297 7.970406,16.970951 7.607887,16.978085 
	C6.310169,17.078995 5.374969,17.172773 4.439768,17.266550 
	C4.368611,17.521801 4.297455,17.777052 4.226298,18.032301 
	C5.463680,18.546276 6.701062,19.060249 7.881639,19.744450 
	C7.824834,19.914675 7.979506,20.238543 7.978111,20.655613 
	C7.995982,22.755547 8.015249,24.438406 7.713989,25.920353 
	C7.117016,24.365585 6.840569,23.011732 6.564122,21.657881 
	C6.430847,21.678911 6.297572,21.699942 6.164296,21.720972 
	C6.164296,23.819681 6.164296,25.918392 6.097906,28.378143 
	C6.356965,29.811262 6.682415,30.883335 6.848861,32.211624 
	C6.089140,32.956196 5.488424,33.444557 4.499480,33.958332 
	C3.074169,33.989162 2.037084,33.994579 1.000000,34.000000 
z"/>
<path fill="#47704C" opacity="1.000000" stroke="none" 
	d="
M24.000000,51.000000 
	C16.427488,51.000000 8.854976,51.000000 1.000000,51.000000 
	C1.000000,46.653427 1.000000,42.300842 1.332971,37.468235 
	C2.738425,40.603443 5.252212,41.686836 8.187798,39.762352 
	C8.617595,39.560421 8.795868,39.286736 8.980022,39.021278 
	C8.985902,39.029503 8.992293,39.048721 9.225799,39.040169 
	C9.459304,39.031620 9.922062,39.094296 9.942010,39.456043 
	C9.885102,41.025860 8.257601,41.760349 10.811517,43.327000 
	C14.595503,45.648220 16.119154,41.698273 18.883472,42.295265 
	C18.976187,43.005276 19.001904,43.414791 18.716599,44.015335 
	C18.510155,44.746021 18.574207,45.744476 18.725277,45.757816 
	C21.973787,46.044777 23.293339,48.199959 24.000000,51.000000 
z"/>
<path fill="#FDF6AD" opacity="1.000000" stroke="none" 
	d="
M19.044836,8.171687 
	C18.770229,7.661538 18.157404,6.804567 18.271646,6.693157 
	C20.041685,4.967023 21.906013,3.337581 23.874256,1.342877 
	C24.750000,1.000000 25.500000,1.000000 26.625000,1.000000 
	C28.576426,3.058641 30.152851,5.117281 32.253101,7.859978 
	C32.473087,7.539888 31.868578,8.419473 31.131021,9.986855 
	C31.033203,11.144760 31.068434,11.614867 31.060402,12.478666 
	C30.905476,13.919945 30.793812,14.967532 30.378935,16.034267 
	C29.888144,16.131094 29.700563,16.208773 29.393650,16.281574 
	C29.274317,16.276695 29.103777,16.109442 28.962645,15.879032 
	C28.107950,15.303547 27.394390,14.958470 25.920784,14.382445 
	C24.130024,14.355516 23.099306,14.559535 22.032661,14.520462 
	C21.773720,13.847794 21.550701,13.418216 21.200199,12.703894 
	C20.965792,12.240771 20.858870,12.062394 20.802349,11.557650 
	C20.250113,10.211417 19.647474,9.191552 19.044836,8.171687 
z"/>
<path fill="#FDF6AE" opacity="1.000000" stroke="none" 
	d="
M24.375000,51.000000 
	C23.293339,48.199959 21.973787,46.044777 18.725277,45.757816 
	C18.574207,45.744476 18.510155,44.746021 19.009224,43.966900 
	C20.012476,42.862907 20.412083,41.998379 20.927114,40.786491 
	C21.138073,39.961548 21.233606,39.483955 21.538464,38.864204 
	C22.179926,38.464390 22.612068,38.206741 23.427986,38.007782 
	C25.521828,37.655560 27.231895,37.244648 29.270187,36.879341 
	C30.036089,36.978668 30.473764,37.032391 30.959427,37.438927 
	C31.038275,38.501541 31.069138,39.211338 31.041975,40.271221 
	C31.032484,41.088943 31.081020,41.556580 31.129555,42.024220 
	C31.767565,43.085327 32.405579,44.146435 32.585453,44.445595 
	C30.475908,46.636444 28.735792,48.443626 26.997837,50.625404 
	C26.250000,51.000000 25.500000,51.000000 24.375000,51.000000 
z"/>
<path fill="#FEF7AD" opacity="1.000000" stroke="none" 
	d="
M7.936275,39.690605 
	C5.252212,41.686836 2.738425,40.603443 1.332971,36.994106 
	C1.000000,36.555553 1.000000,36.111111 1.327452,35.439762 
	C3.130970,35.172749 4.607037,35.132637 6.401895,35.092422 
	C7.359365,35.124763 7.998043,35.157204 8.802458,35.460266 
	C9.581883,36.279457 10.195575,36.828026 10.810839,37.540909 
	C10.812412,37.705219 10.828719,38.033459 10.709669,38.013630 
	C10.590619,37.993801 10.352759,37.952724 10.043074,38.019043 
	C9.486356,38.406479 9.239325,38.727600 8.992293,39.048721 
	C8.992293,39.048721 8.985902,39.029503 8.773033,39.075760 
	C8.283831,39.236507 8.075868,39.426041 7.936275,39.690605 
z"/>
<path fill="#F1CE50" opacity="1.000000" stroke="none" 
	d="
M6.083102,35.092525 
	C4.607037,35.132637 3.130970,35.172749 1.327452,35.106430 
	C1.000000,35.000000 1.000000,34.500000 1.000000,34.250000 
	C2.037084,33.994579 3.074169,33.989162 4.732734,34.113430 
	C5.597177,34.526253 5.840139,34.809387 6.083102,35.092525 
z"/>
<path fill="#FCF4AC" opacity="1.000000" stroke="none" 
	d="
M34.868900,9.935360 
	C35.617195,8.992380 36.296555,7.980803 37.140343,7.132847 
	C37.625408,6.645388 38.691895,5.970039 38.957367,6.154676 
	C40.706001,7.370831 42.307953,8.797895 43.926006,10.857852 
	C43.932499,12.056519 43.970715,12.553522 44.008926,13.050527 
	C44.008926,13.050527 43.991020,12.998491 43.688087,13.026646 
	C42.579525,13.400999 41.773895,13.747196 40.630066,14.040691 
	C39.836552,13.979384 39.381233,13.970780 38.719257,14.083082 
	C38.335636,14.618932 38.158669,15.033875 37.819801,15.374270 
	C37.470413,15.145729 37.320213,14.961348 37.163795,14.435506 
	C36.789524,13.368889 36.458752,12.613345 35.978462,11.611353 
	C35.508934,10.888391 35.188915,10.411876 34.868900,9.935360 
z"/>
<path fill="#FDF6AB" opacity="1.000000" stroke="none" 
	d="
M43.776524,40.833923 
	C42.456127,42.788326 41.135731,44.742725 39.021099,47.872730 
	C37.594151,45.932842 36.405819,44.317345 35.104675,42.114059 
	C35.019665,41.149864 35.047466,40.773457 35.390659,40.253109 
	C36.135544,39.352039 36.565033,38.594910 37.287651,37.905441 
	C38.708794,37.945820 39.836807,37.918533 41.259262,38.039825 
	C42.374046,38.464314 43.194401,38.740227 44.005772,39.006485 
	C43.996792,38.996826 43.987789,38.972034 43.927948,39.278931 
	C43.837578,40.001858 43.807049,40.417892 43.776524,40.833923 
z"/>
<path fill="#D1AD5A" opacity="1.000000" stroke="none" 
	d="
M42.836029,25.014471 
	C42.893158,27.019608 42.950287,29.024744 42.985294,31.691912 
	C42.963173,32.353943 42.909576,32.825356 42.581718,32.915874 
	C40.849663,33.736382 39.445473,34.466373 37.689102,35.163616 
	C36.489872,35.436314 35.642815,35.741760 34.628647,36.040394 
	C34.461536,36.033585 34.127491,36.016228 33.852169,36.007927 
	C33.393360,36.006943 33.209873,36.014259 32.699471,36.005367 
	C31.937071,36.015121 31.501585,36.041080 30.841501,35.835533 
	C30.467737,35.450096 30.318571,35.296158 30.369034,35.000359 
	C30.829140,34.641216 30.999722,34.367836 31.504833,34.022934 
	C33.579731,33.983978 35.416759,34.402012 36.825665,33.806744 
	C38.110680,33.263817 39.034286,31.687979 39.855843,30.400614 
	C39.992565,30.186365 38.793957,29.119949 38.172668,28.455395 
	C38.132931,28.463467 38.076172,28.521389 38.562065,28.737804 
	C39.311123,27.700390 39.574287,26.446560 39.859043,25.046543 
	C39.880638,24.900358 39.605457,24.792557 39.814575,24.644079 
	C40.310776,24.312727 40.597855,24.129852 41.142899,23.976452 
	C41.573246,24.021713 41.745621,24.037498 42.023941,24.255173 
	C42.312748,24.709419 42.548126,24.895224 42.836029,25.014471 
z"/>
<path fill="#FEF7AD" opacity="1.000000" stroke="none" 
	d="
M48.154175,34.170765 
	C48.772346,35.885059 49.390514,37.599354 50.068882,39.480591 
	C49.000645,39.815639 48.105309,40.096458 46.731567,40.669769 
	C45.854935,40.968204 45.456703,40.974152 45.058468,40.980095 
	C45.058468,40.980095 44.999680,40.993530 45.068810,40.659969 
	C44.754555,39.874950 44.371170,39.423492 43.987789,38.972034 
	C43.987789,38.972034 43.996792,38.996826 44.085884,38.751114 
	C44.395599,38.023464 44.616226,37.541531 45.048222,36.828148 
	C45.844662,36.391140 46.429733,36.185581 47.247860,35.826416 
	C47.705338,35.172131 47.929756,34.671448 48.154175,34.170765 
z"/>
<path fill="#D98B07" opacity="1.000000" stroke="none" 
	d="
M30.682148,16.015120 
	C30.793812,14.967532 30.905476,13.919945 31.278843,12.323887 
	C31.764614,11.501202 31.988682,11.226986 32.212749,10.952769 
	C32.212749,10.952769 32.429863,10.961645 32.754150,11.108793 
	C33.078434,11.255940 33.520714,11.473755 33.496262,11.785772 
	C33.495514,12.722383 33.519222,13.346975 33.410202,14.188152 
	C33.170979,14.906654 33.064480,15.408570 32.700905,15.968231 
	C32.273735,16.069805 32.103638,16.113636 31.623558,16.096672 
	C31.103100,16.028959 30.892624,16.022039 30.682148,16.015120 
z"/>
<path fill="#F7E57E" opacity="1.000000" stroke="none" 
	d="
M47.014805,35.980022 
	C46.429733,36.185581 45.844662,36.391140 44.765388,36.810173 
	C43.891605,37.019569 43.512028,37.015491 43.090393,36.721310 
	C42.995033,36.243187 42.941734,36.055168 42.924156,35.683258 
	C42.959881,35.499367 43.044319,35.134342 43.306950,34.961189 
	C43.811626,34.217621 44.053673,33.647209 44.295723,33.076794 
	C44.967873,33.341187 45.640026,33.605576 46.589470,34.336029 
	C46.916107,35.194733 46.965458,35.587379 47.014805,35.980022 
z"/>
<path fill="#DB8D07" opacity="1.000000" stroke="none" 
	d="
M31.066101,36.067039 
	C31.501585,36.041080 31.937071,36.015121 32.709023,36.272392 
	C33.222889,37.047306 33.400280,37.538986 33.585136,38.193687 
	C33.592602,38.356716 33.685291,38.669674 33.476112,38.912788 
	C33.064060,39.757736 32.861183,40.359566 32.658306,40.961395 
	C32.658306,40.961395 32.436447,41.030872 32.171013,40.820412 
	C31.637053,40.380348 31.368526,40.150745 31.100000,39.921139 
	C31.069138,39.211338 31.038275,38.501541 31.002632,37.184799 
	C31.020599,36.407585 31.043350,36.237312 31.066101,36.067039 
z"/>
<path fill="#965C2E" opacity="1.000000" stroke="none" 
	d="
M44.874458,19.946316 
	C44.874458,22.898554 44.874458,25.850792 44.874458,28.803030 
	C44.587055,28.804684 44.299656,28.806339 44.012253,28.807993 
	C44.012253,26.221851 44.012253,23.635710 44.006306,20.527712 
	C44.000359,20.005856 43.981640,19.828920 44.202019,19.879749 
	C44.422398,19.930576 44.874458,19.946316 44.874458,19.946316 
z"/>
<path fill="#F4DE6E" opacity="1.000000" stroke="none" 
	d="
M33.542931,13.971567 
	C33.519222,13.346975 33.495514,12.722383 33.638729,11.465156 
	C33.863525,10.608479 33.921394,10.384436 33.979267,10.160394 
	C33.979267,10.160394 34.416653,10.015840 34.642776,9.975600 
	C35.188915,10.411876 35.508934,10.888391 35.722973,11.862074 
	C35.427322,13.264755 35.237652,14.170268 34.973248,15.295992 
	C34.898514,15.516203 34.707714,15.940355 34.578949,15.958591 
	C34.450180,15.976829 34.189644,16.022564 34.108284,15.671575 
	C33.865589,14.870913 33.704258,14.421240 33.542931,13.971567 
z"/>
<path fill="#F5DD69" opacity="1.000000" stroke="none" 
	d="
M40.968266,14.093393 
	C41.773895,13.747196 42.579525,13.400999 43.715591,13.027311 
	C44.046032,12.999822 44.052898,13.427372 44.036552,14.027857 
	C44.019970,15.400270 44.019733,16.172201 43.793594,16.942862 
	C43.567696,16.941593 43.120384,16.878033 43.039772,16.587437 
	C42.295525,15.562360 41.631897,14.827876 40.968266,14.093393 
z"/>
<path fill="#EDB51E" opacity="1.000000" stroke="none" 
	d="
M43.120384,16.878033 
	C43.120384,16.878033 43.567696,16.941593 43.979271,17.175879 
	C44.603264,17.965117 44.815674,18.520071 45.028088,19.075024 
	C45.028088,19.075024 44.990788,19.028477 44.800247,19.094376 
	C44.339867,19.326340 44.130512,19.549221 43.981640,19.828920 
	C43.981640,19.828920 44.000359,20.005856 44.015453,20.094345 
	C43.862846,20.136429 43.695148,20.090025 43.321316,19.974474 
	C43.115177,19.905325 43.082588,19.776796 43.052971,19.587231 
	C43.023357,19.397663 42.974476,19.014961 42.872490,18.748981 
	C42.545315,17.960079 42.320126,17.437159 42.351532,16.911945 
	C42.778881,16.899111 42.949631,16.888571 43.120384,16.878033 
z"/>
<path fill="#F4E072" opacity="1.000000" stroke="none" 
	d="
M33.685287,38.669674 
	C33.685291,38.669674 33.592602,38.356716 33.731445,37.874763 
	C33.956024,36.933949 34.041756,36.475090 34.127491,36.016228 
	C34.127491,36.016228 34.461536,36.033585 34.705284,36.255680 
	C34.949032,36.477776 35.037945,36.924850 35.023796,37.354813 
	C35.031521,38.655529 35.053394,39.526291 35.075272,40.397049 
	C35.047466,40.773457 35.019665,41.149864 34.955376,41.806702 
	C34.918884,42.087128 34.444572,41.987579 34.208633,41.517113 
	C33.876896,40.254322 33.781094,39.461998 33.685287,38.669674 
z"/>
<path fill="#F7E57E" opacity="1.000000" stroke="none" 
	d="
M45.266422,18.997704 
	C44.815674,18.520071 44.603264,17.965117 44.205173,17.177147 
	C44.019733,16.172201 44.019970,15.400270 44.026688,14.241430 
	C44.501308,14.520545 44.969452,15.186569 45.717514,16.333174 
	C46.013744,17.245148 46.030056,17.676544 46.046371,18.107941 
	C45.865833,18.378754 45.685295,18.649569 45.266422,18.997704 
z"/>
<path fill="#A76F28" opacity="1.000000" stroke="none" 
	d="
M42.894485,24.599295 
	C42.548126,24.895224 42.312748,24.709419 42.058868,23.872295 
	C42.352757,22.117283 42.717670,20.947039 43.082588,19.776794 
	C43.082588,19.776796 43.115177,19.905325 43.062004,19.944820 
	C42.990204,21.384251 42.971573,22.784184 42.894485,24.599295 
z"/>
<path fill="#F5DD69" opacity="1.000000" stroke="none" 
	d="
M44.350349,13.011988 
	C43.970715,12.553522 43.932499,12.056519 43.943542,11.186758 
	C44.601059,11.170825 45.209316,11.527649 45.817570,11.884474 
	C45.442303,12.247466 45.067036,12.610458 44.350349,13.011988 
z"/>
<path fill="#F2CF4D" opacity="1.000000" stroke="none" 
	d="
M33.476112,38.912788 
	C33.781094,39.461998 33.876896,40.254322 33.977699,41.443699 
	C33.655510,41.701046 33.328316,41.561337 32.829712,41.191513 
	C32.861183,40.359566 33.064060,39.757736 33.476112,38.912788 
z"/>
<path fill="#EAB426" opacity="1.000000" stroke="none" 
	d="
M44.142914,32.819637 
	C44.053673,33.647209 43.811626,34.217621 43.288616,34.576157 
	C42.974960,33.851307 42.942268,33.338329 42.909576,32.825356 
	C42.909576,32.825356 42.963173,32.353943 43.000740,32.119720 
	C43.355572,32.111160 43.672836,32.336819 44.142914,32.819637 
z"/>
<path fill="#F5D959" opacity="1.000000" stroke="none" 
	d="
M46.389088,18.030155 
	C46.030056,17.676544 46.013744,17.245148 45.994629,16.490175 
	C46.598576,16.329767 47.205334,16.492937 47.688988,17.024715 
	C47.565887,17.393322 47.395813,17.721899 47.395813,17.721899 
	C47.174480,17.798723 46.953144,17.875547 46.389088,18.030155 
z"/>
<path fill="#EFB91E" opacity="1.000000" stroke="none" 
	d="
M32.081108,10.738083 
	C31.988682,11.226986 31.764614,11.501202 31.322105,11.930197 
	C31.068434,11.614867 31.033203,11.144760 31.065769,10.327269 
	C31.405531,10.161055 31.677498,10.342225 32.081108,10.738083 
z"/>
<path fill="#F5DE6B" opacity="1.000000" stroke="none" 
	d="
M43.927948,39.278931 
	C44.371170,39.423492 44.754555,39.874950 45.079674,40.631844 
	C44.813263,40.932697 44.605114,40.928116 44.086742,40.878727 
	C43.807049,40.417892 43.837578,40.001858 43.927948,39.278931 
z"/>
<path fill="#EFB91E" opacity="1.000000" stroke="none" 
	d="
M31.041975,40.271221 
	C31.368526,40.150745 31.637053,40.380348 32.055107,40.829262 
	C32.000694,41.311680 31.796749,41.574787 31.361179,41.931057 
	C31.081020,41.556580 31.032484,41.088943 31.041975,40.271221 
z"/>
<path fill="#F5D959" opacity="1.000000" stroke="none" 
	d="
M47.247860,35.826416 
	C46.965458,35.587379 46.916107,35.194733 46.822853,34.507614 
	C47.007072,34.177811 47.235199,34.142487 47.808750,34.138966 
	C47.929756,34.671448 47.705338,35.172131 47.247860,35.826416 
z"/>
<path fill="#F5DE6B" opacity="1.000000" stroke="none" 
	d="
M45.139252,41.260925 
	C45.456703,40.974152 45.854935,40.968204 46.552345,40.993504 
	C46.307693,41.197083 45.763866,41.369419 45.139252,41.260925 
z"/>
<path fill="#F2CF4D" opacity="1.000000" stroke="none" 
	d="
M33.694412,10.185203 
	C33.921394,10.384436 33.863525,10.608479 33.663185,11.153137 
	C33.520714,11.473755 33.078434,11.255940 32.853569,11.152617 
	C32.888988,10.769533 33.149273,10.489773 33.694412,10.185203 
z"/>
<path fill="#F7E57E" opacity="1.000000" stroke="none" 
	d="
M47.507225,17.722687 
	C47.395813,17.721899 47.565887,17.393322 47.655777,17.365570 
	C47.745667,17.337816 47.618637,17.723473 47.507225,17.722687 
z"/>
<path fill="#F4D650" opacity="1.000000" stroke="none" 
	d="
M44.202019,19.879749 
	C44.130512,19.549221 44.339867,19.326340 44.828423,19.084599 
	C45.047142,19.008921 44.990166,19.482384 44.932312,19.714350 
	C44.874458,19.946316 44.422398,19.930576 44.202019,19.879749 
z"/>
<path fill="#FEF7AE" opacity="1.000000" stroke="none" 
	d="
M7.896883,17.066029 
	C8.340631,15.679070 8.888857,14.314628 9.194199,12.897840 
	C9.427423,11.815681 9.353149,10.667251 9.419534,9.478972 
	C11.632908,8.807623 14.147038,6.019915 16.555012,10.244876 
	C16.485041,11.072021 16.228081,11.515926 15.761902,12.166882 
	C15.379357,12.932725 15.206030,13.491519 14.744433,14.057806 
	C13.982423,14.330471 13.508682,14.595643 12.660480,14.808434 
	C10.822973,15.526043 9.359928,16.296036 7.896883,17.066029 
z"/>
<path fill="#EAAE1E" opacity="1.000000" stroke="none" 
	d="
M7.935830,17.058163 
	C9.359928,16.296036 10.822973,15.526043 12.593731,15.100264 
	C12.922137,15.641929 12.942832,15.839380 12.987488,16.244732 
	C13.011448,16.452631 13.074699,16.866867 12.744248,16.938999 
	C11.274098,17.977610 10.134400,18.944090 8.736965,19.980373 
	C8.312654,20.112968 8.146080,20.175756 7.979506,20.238543 
	C7.979506,20.238543 7.824834,19.914675 7.906830,19.310509 
	C7.982687,18.127878 7.976546,17.549414 7.970406,16.970951 
	C7.970406,16.970951 7.974777,17.050297 7.935830,17.058163 
z"/>
<path fill="#F6E275" opacity="1.000000" stroke="none" 
	d="
M15.971119,11.959833 
	C16.228081,11.515926 16.485041,11.072021 16.851234,10.394937 
	C17.174854,10.122520 17.389240,10.083282 17.967682,10.382332 
	C18.391918,10.919504 18.452099,11.118390 18.620106,11.497202 
	C19.045647,11.936456 19.363358,12.195786 19.704832,12.520544 
	C19.728596,12.585973 19.829409,12.681991 19.726562,12.992438 
	C19.568024,13.511834 19.512333,13.720782 19.180897,13.986708 
	C18.530087,14.667593 18.155022,15.291501 17.629362,15.904234 
	C17.478769,15.893059 17.179373,15.853383 17.134914,15.502506 
	C16.717342,14.087698 16.344231,13.023766 15.971119,11.959833 
z"/>
<path fill="#F5D851" opacity="1.000000" stroke="none" 
	d="
M6.164296,28.017101 
	C6.164296,25.918392 6.164296,23.819681 6.164296,21.720972 
	C6.297572,21.699942 6.430847,21.678911 6.564122,21.657881 
	C6.840569,23.011732 7.117016,24.365585 7.731539,26.143105 
	C8.069615,26.566774 8.033452,27.013519 7.762691,27.078245 
	C7.273530,27.435318 7.055129,27.727665 6.668626,28.017849 
	C6.500525,28.015686 6.164296,28.017101 6.164296,28.017101 
z"/>
<path fill="#E59E08" opacity="1.000000" stroke="none" 
	d="
M19.681068,12.455114 
	C19.363358,12.195786 19.045647,11.936456 18.777756,11.292675 
	C18.878353,10.569370 18.929129,10.230517 18.979904,9.891665 
	C18.995602,9.509422 19.011297,9.127179 19.035915,8.458312 
	C19.647474,9.191552 20.250113,10.211417 20.516014,11.665092 
	C20.013208,12.217642 19.847139,12.336379 19.681068,12.455114 
z"/>
<path fill="#F2D356" opacity="1.000000" stroke="none" 
	d="
M7.607887,16.978085 
	C7.976546,17.549414 7.982687,18.127878 7.963635,19.140282 
	C6.701062,19.060249 5.463680,18.546276 4.226298,18.032301 
	C4.297455,17.777052 4.368611,17.521801 4.439768,17.266550 
	C5.374969,17.172773 6.310169,17.078995 7.607887,16.978085 
z"/>
<path fill="#F4DC68" opacity="1.000000" stroke="none" 
	d="
M6.401895,35.092422 
	C5.840139,34.809387 5.597177,34.526253 5.120960,34.088017 
	C5.488424,33.444557 6.089140,32.956196 6.845606,32.239876 
	C7.001355,32.011913 6.944051,32.004333 7.192397,31.987431 
	C7.440742,31.970528 7.938313,31.954176 8.001188,32.281334 
	C8.254950,33.468876 8.445835,34.329262 8.636722,35.189644 
	C7.998043,35.157204 7.359365,35.124763 6.401895,35.092422 
z"/>
<path fill="#79421A" opacity="1.000000" stroke="none" 
	d="
M8.033452,27.013519 
	C8.033452,27.013519 8.069615,26.566774 8.052065,26.344021 
	C8.015249,24.438406 7.995982,22.755547 7.978111,20.655613 
	C8.146080,20.175756 8.312654,20.112968 8.739344,20.423712 
	C9.030639,22.562691 9.061817,24.328138 8.986900,26.323914 
	C8.579127,26.688702 8.277451,26.823162 7.979037,26.983341 
	C7.982300,27.009058 8.033452,27.013519 8.033452,27.013519 
z"/>
<path fill="#FDF3A4" opacity="1.000000" stroke="none" 
	d="
M6.097906,28.378143 
	C6.164296,28.017101 6.500525,28.015686 6.736098,28.412502 
	C6.962464,29.874323 6.953258,30.939329 6.944052,32.004333 
	C6.944051,32.004333 7.001355,32.011913 7.004610,31.983662 
	C6.682415,30.883335 6.356965,29.811262 6.097906,28.378143 
z"/>
<path fill="#F3D350" opacity="1.000000" stroke="none" 
	d="
M18.791780,9.920807 
	C18.929129,10.230517 18.878353,10.569370 18.669928,11.112750 
	C18.452099,11.118390 18.391918,10.919504 18.293289,10.411580 
	C18.254839,10.102541 18.603657,9.949949 18.791780,9.920807 
z"/>
<path fill="#FEF6AC" opacity="1.000000" stroke="none" 
	d="
M10.352759,37.952724 
	C10.352759,37.952724 10.590619,37.993801 11.134912,38.031509 
	C12.799644,38.025116 13.920083,37.981007 15.119591,38.258385 
	C15.833780,39.085899 16.468903,39.591930 17.328884,40.122528 
	C17.861324,40.185616 18.157301,40.143192 18.532883,40.294640 
	C18.742729,40.721710 18.861370,40.873978 18.959129,41.271751 
	C18.938248,41.517262 18.816473,41.994774 18.816473,41.994774 
	C16.119154,41.698273 14.595503,45.648220 10.811517,43.327000 
	C8.257601,41.760349 9.885102,41.025860 10.031113,39.163715 
	C10.184431,38.324001 10.268595,38.138363 10.352759,37.952724 
z"/>
<path fill="#E3960B" opacity="1.000000" stroke="none" 
	d="
M18.883472,42.295265 
	C18.816473,41.994774 18.938248,41.517262 19.214527,41.260010 
	C19.661270,41.006096 19.831738,41.009426 20.202227,41.058723 
	C20.402250,41.104698 20.811689,41.133850 20.811689,41.133850 
	C20.412083,41.998379 20.012476,42.862907 19.320244,43.775871 
	C19.001904,43.414791 18.976187,43.005276 18.883472,42.295265 
z"/>
<path fill="#F9EA8C" opacity="1.000000" stroke="none" 
	d="
M8.187798,39.762352 
	C8.075868,39.426041 8.283831,39.236507 8.767153,39.067535 
	C8.795868,39.286736 8.617595,39.560421 8.187798,39.762352 
z"/>
<path fill="#F4DC68" opacity="1.000000" stroke="none" 
	d="
M10.043074,38.019043 
	C10.268595,38.138363 10.184431,38.324001 10.011165,38.801968 
	C9.922062,39.094296 9.459304,39.031620 9.225799,39.040169 
	C9.239325,38.727600 9.486356,38.406479 10.043074,38.019043 
z"/>
<path fill="#7B653F" opacity="1.000000" stroke="none" 
	d="
M29.103777,16.109442 
	C29.103777,16.109442 29.274317,16.276695 29.507385,16.463932 
	C29.740454,16.651167 30.014751,16.981518 29.584415,17.057716 
	C27.409315,17.008226 25.664549,16.882536 23.960640,16.511740 
	C24.001499,16.266634 24.069429,15.774323 24.484415,15.826136 
	C26.300859,15.955112 27.702318,16.032278 29.103777,16.109442 
z"/>
<path fill="#A78144" opacity="1.000000" stroke="none" 
	d="
M24.069429,15.774323 
	C24.069429,15.774323 24.001499,16.266634 23.603916,16.577541 
	C22.484659,16.859301 21.762987,16.830149 21.008610,16.591049 
	C20.975906,16.381102 20.911161,15.961104 20.915709,15.767109 
	C20.920256,15.573114 20.871420,15.187564 20.929842,15.131112 
	C20.988264,15.074660 21.074923,14.937221 21.333424,14.951514 
	C21.750814,14.898390 21.909700,14.830971 22.068588,14.763554 
	C23.099306,14.559535 24.130024,14.355516 25.239317,14.631390 
	C24.901737,15.332295 24.485582,15.553308 24.069429,15.774323 
z"/>
<path fill="#F0D575" opacity="1.000000" stroke="none" 
	d="
M24.484415,15.826135 
	C24.485582,15.553308 24.901737,15.332295 25.999359,14.862337 
	C27.394390,14.958470 28.107950,15.303547 28.962645,15.879032 
	C27.702318,16.032278 26.300859,15.955112 24.484415,15.826135 
z"/>
<path fill="#F0D575" opacity="1.000000" stroke="none" 
	d="
M30.014751,16.981518 
	C30.014751,16.981518 29.740454,16.651167 29.626720,16.468811 
	C29.700563,16.208773 29.888144,16.131094 30.378933,16.034267 
	C30.892624,16.022039 31.103100,16.028959 31.639256,16.312607 
	C31.964931,16.589336 31.998667,17.021517 31.668377,17.003496 
	C30.896976,16.984158 30.455864,16.982838 30.014751,16.981518 
z"/>
<path fill="#F5E48A" opacity="1.000000" stroke="none" 
	d="
M22.032661,14.520462 
	C21.909700,14.830971 21.750814,14.898390 21.293592,14.713324 
	C20.995258,14.460839 20.891657,13.989603 20.918163,13.745447 
	C20.944668,13.501290 20.863710,13.016827 20.980108,13.016441 
	C21.096506,13.016057 21.327684,12.988639 21.327684,12.988639 
	C21.550701,13.418216 21.773720,13.847794 22.032661,14.520462 
z"/>
<path fill="#F1C635" opacity="1.000000" stroke="none" 
	d="
M19.704832,12.520544 
	C19.847139,12.336379 20.013208,12.217642 20.465612,11.991461 
	C20.858870,12.062394 20.965792,12.240771 21.200199,12.703894 
	C21.327684,12.988639 21.096506,13.016057 20.714067,12.955706 
	C20.164223,12.824232 19.996815,12.753111 19.829409,12.681991 
	C19.829409,12.681991 19.728596,12.585973 19.704832,12.520544 
z"/>
<path fill="#C29A4D" opacity="1.000000" stroke="none" 
	d="
M28.941961,36.833736 
	C27.231895,37.244648 25.521828,37.655560 23.403454,37.844887 
	C22.995148,37.623302 22.970070,37.294266 22.909683,37.039352 
	C22.663183,36.501110 22.477070,36.217785 22.346966,35.817795 
	C22.402973,35.701130 22.356958,35.446438 22.722721,35.454575 
	C24.986712,35.389942 26.884939,35.317173 28.835449,35.640480 
	C28.905806,36.302284 28.923883,36.568008 28.941961,36.833736 
z"/>
<path fill="#F5E48A" opacity="1.000000" stroke="none" 
	d="
M22.970070,37.294266 
	C22.970070,37.294266 22.995148,37.623302 23.019680,37.786201 
	C22.612068,38.206741 22.179926,38.464390 21.438995,38.864632 
	C21.130205,39.007229 20.932089,39.016979 20.983582,38.685616 
	C21.041098,38.130833 21.047121,37.907413 21.063570,37.506256 
	C21.073997,37.328518 21.052891,36.973061 21.229931,36.800148 
	C21.406973,36.627235 21.892321,36.530254 22.141018,36.750511 
	C22.583168,37.078602 22.776619,37.186436 22.970070,37.294266 
z"/>
<path fill="#D1AD5A" opacity="1.000000" stroke="none" 
	d="
M29.270187,36.879341 
	C28.923883,36.568008 28.905806,36.302284 29.059677,35.562004 
	C29.231625,35.087456 29.704489,35.046886 29.704489,35.046886 
	C29.704489,35.046886 30.169407,35.142223 30.169407,35.142223 
	C30.318571,35.296158 30.467737,35.450096 30.841501,35.835533 
	C31.043350,36.237312 31.020599,36.407585 30.954647,36.831985 
	C30.473764,37.032391 30.036089,36.978668 29.270187,36.879341 
z"/>
<path fill="#F1C635" opacity="1.000000" stroke="none" 
	d="
M20.927114,40.786491 
	C20.811689,41.133850 20.402250,41.104698 20.187689,40.675102 
	C19.963148,39.989880 19.953169,39.734245 19.880323,39.446693 
	C19.817457,39.414776 19.866123,39.282433 20.128845,39.200935 
	C20.571743,39.085289 20.751915,39.051136 20.932089,39.016979 
	C20.932089,39.016979 21.130205,39.007229 21.229671,39.006798 
	C21.233606,39.483955 21.138073,39.961548 20.927114,40.786491 
z"/>
<path fill="#EBB322" opacity="1.000000" stroke="none" 
	d="
M8.802458,35.460266 
	C8.445835,34.329262 8.254950,33.468876 8.009034,32.301437 
	C7.954005,31.994383 7.916249,31.973953 8.179505,32.007801 
	C8.618414,32.062515 8.794067,32.083382 9.081223,32.309601 
	C9.405917,32.750515 9.660220,32.926765 10.119084,33.317230 
	C11.181673,34.068226 12.080812,34.545685 12.989839,35.264076 
	C12.999728,35.505013 12.988384,35.987156 12.711248,36.148537 
	C11.892497,36.665478 11.350881,37.021034 10.809265,37.376595 
	C10.195575,36.828026 9.581883,36.279457 8.802458,35.460266 
z"/>
<path fill="#F6E06F" opacity="1.000000" stroke="none" 
	d="
M10.810839,37.540909 
	C11.350881,37.021034 11.892497,36.665478 12.971317,36.251595 
	C13.991110,36.471107 14.473699,36.748947 14.982553,37.253830 
	C15.008819,37.480877 15.040522,37.936901 15.040522,37.936901 
	C13.920083,37.981007 12.799644,38.025116 11.253962,38.051338 
	C10.828719,38.033459 10.812412,37.705219 10.810839,37.540909 
z"/>
<path fill="#F1C73A" opacity="1.000000" stroke="none" 
	d="
M43.039772,16.587437 
	C42.949631,16.888571 42.778881,16.899111 42.097412,16.686193 
	C40.701252,16.286358 39.815819,16.109978 38.950619,15.605304 
	C38.955872,14.838732 38.940895,14.400455 38.925915,13.962177 
	C39.381233,13.970780 39.836552,13.979384 40.630066,14.040691 
	C41.631897,14.827876 42.295525,15.562360 43.039772,16.587437 
z"/>
<path fill="#F5D858" opacity="1.000000" stroke="none" 
	d="
M35.047981,15.075782 
	C35.237652,14.170268 35.427322,13.264755 35.872482,12.108521 
	C36.458752,12.613345 36.789524,13.368889 36.805431,14.510489 
	C36.009701,14.956290 35.528843,15.016036 35.047981,15.075782 
z"/>
<path fill="#E8AF24" opacity="1.000000" stroke="none" 
	d="
M34.973248,15.295992 
	C35.528843,15.016036 36.009701,14.956290 36.848930,14.821562 
	C37.320213,14.961348 37.470413,15.145729 37.822159,15.578098 
	C37.986423,15.856475 37.988678,16.259052 38.016190,16.412470 
	C38.043705,16.565887 38.076031,16.877869 37.711315,16.886805 
	C36.466972,16.577278 35.587341,16.258816 34.707714,15.940355 
	C34.707714,15.940355 34.898514,15.516203 34.973248,15.295992 
z"/>
<path fill="#F7E379" opacity="1.000000" stroke="none" 
	d="
M38.719257,14.083082 
	C38.940895,14.400455 38.955872,14.838732 38.711651,15.676048 
	C38.452450,16.075087 37.988678,16.259052 37.988678,16.259052 
	C37.988678,16.259052 37.986423,15.856475 37.984062,15.652647 
	C38.158669,15.033875 38.335636,14.618932 38.719257,14.083082 
z"/>
<path fill="#F1C638" opacity="1.000000" stroke="none" 
	d="
M42.888435,35.867149 
	C42.941734,36.055168 42.995033,36.243187 42.785767,36.748276 
	C42.003742,37.340649 41.484283,37.615948 40.964825,37.891243 
	C39.836807,37.918533 38.708794,37.945820 37.302097,37.620502 
	C37.025818,37.077259 37.028221,36.886616 37.158112,36.493431 
	C37.501545,36.041313 37.743839,35.820656 38.025604,35.709396 
	C38.038719,35.789886 37.979973,35.942036 38.053520,36.095665 
	C38.127071,36.249290 38.528091,36.420429 38.528091,36.420429 
	C38.528091,36.420429 38.879715,36.095135 39.281590,36.068714 
	C40.751789,35.983913 41.820110,35.925533 42.888435,35.867149 
z"/>
<path fill="#F5DE6B" opacity="1.000000" stroke="none" 
	d="
M41.259262,38.039822 
	C41.484283,37.615948 42.003742,37.340649 42.827824,37.038383 
	C43.512028,37.015491 43.891605,37.019569 44.554020,37.041626 
	C44.616226,37.541531 44.395599,38.023464 44.094864,38.760769 
	C43.194401,38.740227 42.374046,38.464314 41.259262,38.039822 
z"/>
<path fill="#F4D85C" opacity="1.000000" stroke="none" 
	d="
M37.030624,36.695972 
	C37.028221,36.886616 37.025818,37.077259 37.008972,37.552841 
	C36.565033,38.594910 36.135544,39.352039 35.390663,40.253109 
	C35.053394,39.526291 35.031521,38.655529 35.360157,37.369068 
	C36.150654,36.867569 36.590637,36.781773 37.030624,36.695972 
z"/>
<path fill="#1D1C1C" opacity="1.000000" stroke="none" 
	d="
M30.369034,35.000359 
	C30.169407,35.142223 29.704489,35.046886 29.704489,35.046886 
	C29.704489,35.046886 29.231625,35.087456 29.007397,35.165932 
	C26.884939,35.317173 24.986712,35.389942 22.344440,35.280022 
	C21.053053,35.086662 20.505709,35.075996 19.667120,35.061996 
	C19.186298,35.100212 18.996719,35.141762 18.649292,35.144417 
	C18.491442,35.105526 18.196712,35.242825 17.915031,35.154060 
	C17.437851,35.041901 17.242355,35.018509 16.878380,34.652687 
	C14.792155,33.560932 12.874410,32.811604 11.027704,32.051231 
	C11.098745,32.040184 11.090389,31.896563 11.058533,31.480928 
	C10.931607,29.674511 10.836540,28.283730 10.777807,26.468359 
	C10.872840,18.811615 10.900681,18.816957 17.881409,17.915388 
	C18.964619,17.775490 19.989473,17.183775 21.041315,16.800997 
	C21.762987,16.830149 22.484659,16.859301 23.563057,16.822647 
	C25.664549,16.882536 27.409315,17.008226 29.584415,17.057716 
	C30.455864,16.982838 30.896976,16.984158 31.817739,17.270889 
	C32.867130,17.769350 33.436874,17.982399 34.136684,18.536312 
	C36.998444,19.989670 39.688797,21.139467 39.605457,24.792557 
	C39.605457,24.792557 39.880638,24.900358 39.367126,24.990791 
	C38.196754,25.068150 37.539894,25.055073 36.571999,25.032269 
	C35.850700,25.069426 35.440441,25.116310 34.695122,25.093103 
	C33.908638,24.969110 33.457218,24.915209 33.003380,24.685667 
	C33.000961,24.510027 33.016991,24.159081 33.339386,23.958103 
	C32.743053,23.212732 31.824326,22.668337 30.507854,22.090633 
	C29.062628,21.956465 28.015146,21.855602 26.953262,21.451500 
	C26.180080,20.633545 25.421297,20.118832 24.662516,19.604118 
	C24.420225,20.329868 24.177935,21.055618 23.560658,21.787008 
	C22.446249,21.849072 21.706829,21.905495 20.798542,21.677118 
	C19.430824,22.241392 18.231972,23.090466 16.989021,24.217953 
	C17.104715,24.982693 17.264509,25.469019 17.604101,26.296659 
	C17.947735,27.126017 18.111570,27.614056 18.077641,28.436270 
	C17.266361,29.234337 16.652843,29.698231 15.222742,30.779562 
	C18.557348,30.779562 20.786024,30.779562 23.249069,30.882515 
	C23.653982,30.987595 23.824526,30.989721 24.393623,31.067593 
	C25.869453,31.229614 26.946726,31.315889 28.116358,31.684195 
	C29.165945,32.656937 30.123175,33.347649 31.080404,34.038361 
	C30.999722,34.367836 30.829140,34.641216 30.369034,35.000359 
M14.441108,24.490410 
	C14.441108,24.490410 14.531892,24.443880 14.441108,24.490410 
z"/>
<path fill="#171619" opacity="1.000000" stroke="none" 
	d="
M31.504833,34.022934 
	C30.123175,33.347649 29.165945,32.656937 28.146454,31.577763 
	C28.084192,31.189302 27.993994,30.987320 28.237228,30.981438 
	C28.480461,30.975555 28.953167,30.860050 29.360891,30.914864 
	C31.849941,30.856979 33.931267,30.744284 36.244034,30.771696 
	C36.720924,30.316231 36.966377,29.720655 37.450798,28.939144 
	C37.863976,28.651247 38.038189,28.549284 38.212406,28.447323 
	C38.793957,29.119949 39.992565,30.186365 39.855843,30.400614 
	C39.034286,31.687979 38.110680,33.263817 36.825665,33.806744 
	C35.416759,34.402012 33.579731,33.983978 31.504833,34.022934 
z"/>
<path fill="#9E8851" opacity="1.000000" stroke="none" 
	d="
M38.172668,28.455395 
	C38.038189,28.549284 37.863976,28.651247 37.226639,29.169380 
	C36.513206,29.934231 36.262901,30.282909 36.012592,30.631588 
	C33.931267,30.744284 31.849941,30.856979 29.367815,30.625809 
	C28.943359,29.897186 28.919704,29.512428 29.262917,29.090405 
	C30.480000,28.681664 31.330214,28.310188 32.326527,27.944130 
	C32.472626,27.949543 32.759396,28.006666 32.974937,27.939693 
	C33.314133,27.788889 33.555264,27.662277 33.542789,27.628021 
	C33.446251,27.362940 33.300705,27.115705 33.109528,26.671677 
	C33.048717,26.480410 33.011196,26.080763 33.338058,26.037811 
	C34.102192,26.012220 34.539471,26.029583 35.027832,26.263966 
	C35.363895,26.945665 35.648869,27.410343 36.465317,28.050220 
	C37.356586,28.324078 37.716377,28.422733 38.076172,28.521389 
	C38.076172,28.521389 38.132931,28.463467 38.172668,28.455395 
z"/>
<path fill="#171619" opacity="1.000000" stroke="none" 
	d="
M39.814575,24.644079 
	C39.688797,21.139467 36.998444,19.989670 34.540237,18.460648 
	C36.180309,18.041546 37.546906,18.038971 39.080223,18.356754 
	C39.792942,20.433733 40.338940,22.190355 40.884933,23.946978 
	C40.597855,24.129852 40.310776,24.312727 39.814575,24.644079 
z"/>
<path fill="#DC961B" opacity="1.000000" stroke="none" 
	d="
M42.924156,35.683258 
	C41.820110,35.925533 40.751789,35.983913 39.058605,36.020325 
	C38.433746,35.998352 37.979973,35.942036 37.979973,35.942036 
	C37.979973,35.942036 38.038719,35.789886 38.031086,35.602695 
	C38.023453,35.415504 38.041279,35.196362 38.041279,35.196362 
	C39.445473,34.466373 40.849663,33.736382 42.581718,32.915874 
	C42.942268,33.338329 42.974960,33.851307 43.025986,34.749313 
	C43.044319,35.134342 42.959881,35.499367 42.924156,35.683258 
z"/>
<path fill="#BC9147" opacity="1.000000" stroke="none" 
	d="
M41.142899,23.976452 
	C40.338940,22.190355 39.792942,20.433733 39.334839,18.305548 
	C39.594910,17.916653 39.767090,17.899323 40.236519,18.026281 
	C41.347340,18.452036 42.160908,18.733498 42.974476,19.014961 
	C42.974476,19.014961 43.023357,19.397663 43.052971,19.587229 
	C42.717670,20.947039 42.352757,22.117283 41.952919,23.670406 
	C41.745621,24.037498 41.573246,24.021713 41.142899,23.976452 
z"/>
<path fill="#171619" opacity="1.000000" stroke="none" 
	d="
M38.562065,28.737804 
	C37.716377,28.422733 37.356586,28.324078 36.564426,27.681591 
	C36.382385,26.439171 36.632710,25.740583 36.883034,25.041996 
	C37.539894,25.055073 38.196754,25.068150 39.345531,25.136978 
	C39.574287,26.446560 39.311123,27.700390 38.562065,28.737804 
z"/>
<path fill="#E6A718" opacity="1.000000" stroke="none" 
	d="
M37.689102,35.163616 
	C38.041279,35.196362 38.023453,35.415504 38.017971,35.522209 
	C37.743839,35.820656 37.501545,36.041313 37.158112,36.493431 
	C36.590637,36.781773 36.150654,36.867569 35.374306,36.939110 
	C35.037945,36.924850 34.949032,36.477776 34.872395,36.262489 
	C35.642815,35.741760 36.489872,35.436314 37.689102,35.163616 
z"/>
<path fill="#EFB91E" opacity="1.000000" stroke="none" 
	d="
M33.852169,36.007927 
	C34.041756,36.475090 33.956024,36.933949 33.723984,37.711739 
	C33.400280,37.538986 33.222889,37.047306 33.035942,36.288605 
	C33.209873,36.014259 33.393360,36.006943 33.852169,36.007927 
z"/>
<path fill="#E0BC60" opacity="1.000000" stroke="none" 
	d="
M39.939270,17.881990 
	C39.767090,17.899323 39.594910,17.916653 39.168114,17.985191 
	C37.546906,18.038971 36.180309,18.041546 34.410164,18.119783 
	C33.436874,17.982399 32.867130,17.769350 32.148029,17.288910 
	C31.998667,17.021517 31.964931,16.589336 31.949234,16.373402 
	C32.103638,16.113636 32.273735,16.069805 33.007927,16.006599 
	C33.777897,15.999004 33.983768,16.010784 34.189644,16.022564 
	C34.189644,16.022564 34.450180,15.976829 34.578949,15.958591 
	C35.587341,16.258816 36.466972,16.577278 37.971867,16.970695 
	C39.044514,17.324429 39.491890,17.603210 39.939270,17.881990 
z"/>
<path fill="#EFB91E" opacity="1.000000" stroke="none" 
	d="
M34.108284,15.671575 
	C33.983768,16.010784 33.777897,15.999004 33.265003,15.948855 
	C33.064480,15.408570 33.170979,14.906654 33.410202,14.188152 
	C33.704258,14.421240 33.865589,14.870913 34.108284,15.671575 
z"/>
<path fill="#DB9314" opacity="1.000000" stroke="none" 
	d="
M40.236519,18.026281 
	C39.491890,17.603210 39.044514,17.324429 38.336582,16.961758 
	C38.076031,16.877869 38.043705,16.565887 38.016190,16.412470 
	C37.988678,16.259052 38.452450,16.075087 38.691418,16.004343 
	C39.815819,16.109978 40.701252,16.286358 41.840809,16.688488 
	C42.320126,17.437159 42.545315,17.960079 42.872490,18.748981 
	C42.160908,18.733498 41.347340,18.452036 40.236519,18.026281 
z"/>
<path fill="#F3D24B" opacity="1.000000" stroke="none" 
	d="
M15.761902,12.166882 
	C16.344231,13.023766 16.717342,14.087698 16.837626,15.438015 
	C16.032738,15.474131 15.480678,15.223861 14.960464,14.743429 
	C14.992309,14.513266 15.032702,14.050313 15.032703,14.050313 
	C15.206030,13.491519 15.379357,12.932725 15.761902,12.166882 
z"/>
<path fill="#F6E06F" opacity="1.000000" stroke="none" 
	d="
M14.744432,14.057806 
	C15.032702,14.050313 14.992309,14.513266 14.716034,14.876897 
	C13.947682,15.505962 13.455605,15.771397 12.963527,16.036831 
	C12.942832,15.839380 12.922137,15.641929 12.968191,15.152645 
	C13.508682,14.595643 13.982423,14.330471 14.744432,14.057806 
z"/>
<path fill="#9F6626" opacity="1.000000" stroke="none" 
	d="
M21.008610,16.591049 
	C19.989473,17.183775 18.964619,17.775490 17.881409,17.915388 
	C10.900681,18.816957 10.872840,18.811615 10.616222,26.472179 
	C10.418304,26.900589 10.095745,26.870607 9.962112,26.696098 
	C9.654093,26.257267 9.408932,26.114599 9.092997,26.093584 
	C9.061817,24.328138 9.030639,22.562691 8.997081,20.353907 
	C10.134400,18.944090 11.274098,17.977610 13.149260,16.988171 
	C15.222399,16.749439 16.560076,16.533665 18.099403,16.338795 
	C18.569462,16.279068 18.792685,16.130487 19.294498,15.928935 
	C20.049238,15.949641 20.480200,15.955373 20.911161,15.961104 
	C20.911161,15.961104 20.975906,16.381102 21.008610,16.591049 
z"/>
<path fill="#F1D152" opacity="1.000000" stroke="none" 
	d="
M17.897753,16.317890 
	C16.560076,16.533665 15.222399,16.749439 13.479711,16.916040 
	C13.074699,16.866867 13.011448,16.452631 12.987488,16.244732 
	C13.455605,15.771397 13.947682,15.505962 14.684189,15.107059 
	C15.480678,15.223861 16.032738,15.474131 16.882084,15.788891 
	C17.179373,15.853383 17.478769,15.893059 17.667048,16.002773 
	C17.855326,16.112488 17.897753,16.317890 17.897753,16.317890 
z"/>
<path fill="#EEB922" opacity="1.000000" stroke="none" 
	d="
M18.099403,16.338797 
	C17.897753,16.317890 17.855326,16.112488 17.817640,16.013948 
	C18.155022,15.291501 18.530087,14.667593 19.540276,14.003286 
	C20.414154,13.971793 20.652905,13.980698 20.891657,13.989603 
	C20.891657,13.989603 20.995258,14.460839 21.035091,14.699030 
	C21.074923,14.937221 20.988264,15.074660 20.660650,15.090348 
	C19.878931,15.375344 19.424828,15.644652 18.970722,15.913960 
	C18.792685,16.130487 18.569462,16.279068 18.099403,16.338797 
z"/>
<path fill="#DA9110" opacity="1.000000" stroke="none" 
	d="
M20.918163,13.745447 
	C20.652905,13.980698 20.414154,13.971793 19.816021,13.946310 
	C19.512333,13.720782 19.568024,13.511834 19.726562,12.992438 
	C19.996815,12.753111 20.164223,12.824232 20.597670,12.956090 
	C20.863710,13.016827 20.944668,13.501290 20.918163,13.745447 
z"/>
<path fill="#47704C" opacity="1.000000" stroke="none" 
	d="
M7.192397,31.987431 
	C6.953258,30.939329 6.962464,29.874323 6.904199,28.414665 
	C7.055129,27.727665 7.273530,27.435318 7.762691,27.078245 
	C8.033452,27.013519 7.982300,27.009058 7.993425,27.269218 
	C8.053820,27.713745 8.103088,27.898109 8.100636,28.468065 
	C8.004693,29.893755 7.960471,30.933855 7.916249,31.973953 
	C7.916249,31.973953 7.954005,31.994383 7.946159,31.974279 
	C7.938313,31.954176 7.440742,31.970528 7.192397,31.987431 
z"/>
<path fill="#D5BA71" opacity="1.000000" stroke="none" 
	d="
M8.152358,28.082474 
	C8.103088,27.898109 8.053820,27.713745 7.990162,27.243502 
	C8.277451,26.823162 8.579127,26.688702 8.986900,26.323914 
	C9.408932,26.114599 9.654093,26.257267 9.918274,26.990662 
	C9.964922,27.652420 9.921775,27.845104 9.590607,28.021488 
	C8.919176,28.030949 8.535768,28.056711 8.152358,28.082474 
z"/>
<path fill="#F6E173" opacity="1.000000" stroke="none" 
	d="
M17.046860,34.995113 
	C17.242355,35.018509 17.437851,35.041901 17.901974,35.473999 
	C18.598869,36.262169 19.027140,36.641636 19.721462,37.016327 
	C20.342642,36.998722 20.697765,36.985889 21.052891,36.973061 
	C21.052891,36.973061 21.073997,37.328518 20.733479,37.653687 
	C20.217348,38.413383 20.041737,38.847908 19.866123,39.282433 
	C19.866123,39.282433 19.817457,39.414776 19.501530,39.573948 
	C18.937628,39.828690 18.689653,39.924263 18.441677,40.019833 
	C18.157301,40.143192 17.861324,40.185616 17.293720,39.715759 
	C17.020990,38.203594 17.008287,37.122761 17.009892,35.799889 
	C17.024199,35.557850 17.001532,35.074432 17.028175,35.063293 
	C17.054817,35.052151 17.046860,34.995113 17.046860,34.995113 
z"/>
<path fill="#F2D04A" opacity="1.000000" stroke="none" 
	d="
M16.995584,36.041931 
	C17.008287,37.122761 17.020990,38.203594 17.068859,39.691193 
	C16.468903,39.591930 15.833780,39.085899 15.119591,38.258385 
	C15.040522,37.936901 15.008819,37.480877 15.018147,37.222504 
	C15.027476,36.964134 15.094193,36.898857 15.339791,36.813023 
	C16.055454,36.498768 16.525518,36.270351 16.995584,36.041931 
z"/>
<path fill="#EEB81B" opacity="1.000000" stroke="none" 
	d="
M18.532883,40.294640 
	C18.689653,39.924263 18.937628,39.828690 19.564396,39.605865 
	C19.953169,39.734245 19.963148,39.989880 19.987665,40.629131 
	C19.831738,41.009426 19.661270,41.006096 19.235409,41.014503 
	C18.861370,40.873978 18.742729,40.721710 18.532883,40.294640 
z"/>
<path fill="#DA9110" opacity="1.000000" stroke="none" 
	d="
M19.294498,15.928935 
	C19.424828,15.644652 19.878931,15.375344 20.602228,15.146800 
	C20.871420,15.187564 20.920256,15.573114 20.915709,15.767109 
	C20.480200,15.955373 20.049238,15.949641 19.294498,15.928935 
z"/>
<path fill="#835825" opacity="1.000000" stroke="none" 
	d="
M21.229931,36.800148 
	C20.697765,36.985889 20.342642,36.998722 19.747719,36.791489 
	C19.507919,36.571423 19.469507,36.120312 19.609375,35.977264 
	C19.907265,35.602024 19.976973,35.345726 19.958364,35.065327 
	C20.505709,35.075996 21.053053,35.086662 21.978678,35.271885 
	C22.356958,35.446438 22.402973,35.701130 22.209465,35.943455 
	C22.015959,36.185780 21.892321,36.530254 21.892321,36.530254 
	C21.892321,36.530254 21.406973,36.627235 21.229931,36.800148 
z"/>
<path fill="#AB7832" opacity="1.000000" stroke="none" 
	d="
M22.141018,36.750511 
	C21.892321,36.530254 22.015959,36.185780 22.153458,36.060120 
	C22.477070,36.217785 22.663183,36.501110 22.909683,37.039352 
	C22.776619,37.186436 22.583168,37.078602 22.141018,36.750511 
z"/>
<path fill="#EEB81B" opacity="1.000000" stroke="none" 
	d="
M20.128847,39.200935 
	C20.041737,38.847908 20.217348,38.413383 20.723053,37.831425 
	C21.047121,37.907413 21.041098,38.130833 20.983582,38.685616 
	C20.751915,39.051136 20.571743,39.085289 20.128847,39.200935 
z"/>
<path fill="#E0BE64" opacity="1.000000" stroke="none" 
	d="
M10.956663,32.062275 
	C12.874410,32.811604 14.792155,33.560932 16.878380,34.652687 
	C17.046860,34.995113 17.054817,35.052151 16.711081,35.046513 
	C15.945257,35.053005 15.523170,35.065136 14.748070,35.056572 
	C13.923354,35.031635 13.451652,35.027390 12.979949,35.023144 
	C12.080812,34.545685 11.181673,34.068226 10.319006,33.189461 
	C10.603045,32.585258 10.803439,32.343300 10.956663,32.062275 
z"/>
<path fill="#EFEDAE" opacity="1.000000" stroke="none" 
	d="
M8.100636,28.468065 
	C8.535768,28.056711 8.919176,28.030949 9.639318,28.343342 
	C9.937817,29.111261 9.899583,29.541023 9.664766,30.192530 
	C9.302029,30.977600 9.135874,31.540926 8.969719,32.104252 
	C8.794067,32.083382 8.618414,32.062515 8.179505,32.007801 
	C7.960471,30.933855 8.004693,29.893755 8.100636,28.468065 
z"/>
<path fill="#F5E48A" opacity="1.000000" stroke="none" 
	d="
M9.081223,32.309601 
	C9.135874,31.540926 9.302029,30.977600 9.736423,30.499226 
	C10.366571,31.021641 10.728480,31.459101 11.090389,31.896563 
	C11.090389,31.896563 11.098745,32.040184 11.027704,32.051231 
	C10.803439,32.343300 10.603045,32.585258 10.155556,32.915924 
	C9.660220,32.926765 9.405917,32.750515 9.081223,32.309601 
z"/>
<path fill="#F1D152" opacity="1.000000" stroke="none" 
	d="
M12.989839,35.264076 
	C13.451652,35.027390 13.923354,35.031635 14.721632,35.359581 
	C15.063536,36.088478 15.078864,36.493668 15.094193,36.898857 
	C15.094193,36.898857 15.027476,36.964134 14.991882,36.995461 
	C14.473699,36.748947 13.991110,36.471107 13.248452,36.090210 
	C12.988384,35.987156 12.999728,35.505013 12.989839,35.264076 
z"/>
<path fill="#F5E277" opacity="1.000000" stroke="none" 
	d="
M38.053520,36.095665 
	C37.979973,35.942036 38.433746,35.998352 38.656731,36.046745 
	C38.879715,36.095135 38.528091,36.420429 38.528091,36.420429 
	C38.528091,36.420429 38.127071,36.249290 38.053520,36.095665 
z"/>
<path fill="#272423" opacity="1.000000" stroke="none" 
	d="
M33.016991,24.159081 
	C33.016991,24.159081 33.000961,24.510027 32.708866,24.818304 
	C32.292595,25.302422 32.168423,25.478264 31.814034,25.714977 
	C31.583815,25.775850 31.118793,25.672987 30.914387,25.372204 
	C30.470165,25.041389 30.230354,25.011356 29.644955,24.935291 
	C28.842377,24.966095 28.385386,25.042931 27.563778,25.055679 
	C25.839424,25.623423 24.479689,26.255255 23.018055,26.668762 
	C22.765511,26.143215 22.526600,25.939510 22.036543,25.657047 
	C21.585033,25.275850 21.271029,25.220387 20.721745,25.226284 
	C20.511843,25.144186 20.073847,25.037624 20.074165,24.739504 
	C20.349600,23.953577 20.624720,23.465773 21.244987,23.294628 
	C23.398535,23.488583 25.206934,23.365877 27.233444,23.502169 
	C28.558016,23.728111 29.664476,23.695055 31.130884,23.801790 
	C31.999552,24.014080 32.508270,24.086580 33.016991,24.159081 
z"/>
<path fill="#C3A45E" opacity="1.000000" stroke="none" 
	d="
M23.014700,30.779562 
	C20.786024,30.779562 18.557348,30.779562 15.222742,30.779562 
	C16.652843,29.698231 17.266361,29.234337 18.196152,28.435429 
	C18.512426,28.100414 18.746508,28.060703 18.802200,28.357239 
	C20.243393,29.134903 21.628893,29.616034 23.015480,30.267761 
	C23.016569,30.438362 23.014700,30.779562 23.014700,30.779562 
z"/>
<path fill="#8D8965" opacity="1.000000" stroke="none" 
	d="
M20.899839,22.977966 
	C20.624720,23.465773 20.349600,23.953577 19.886421,24.793686 
	C19.698359,25.145987 19.333624,25.283253 19.257172,25.217096 
	C19.180719,25.150940 19.029230,25.017008 18.940380,24.704206 
	C18.245394,24.240784 17.639256,24.090160 17.033119,23.939539 
	C18.231972,23.090466 19.430824,22.241392 20.816284,21.933399 
	C20.968540,22.642309 20.934189,22.810137 20.899839,22.977966 
z"/>
<path fill="#464238" opacity="1.000000" stroke="none" 
	d="
M28.054096,31.295734 
	C26.946726,31.315889 25.869453,31.229614 24.442970,30.828804 
	C24.093763,30.514269 24.086142,30.026436 24.059095,30.012531 
	C24.032049,29.998627 24.015772,30.057508 24.302982,30.031448 
	C24.723778,29.674877 24.857361,29.344368 24.996330,28.792946 
	C25.001717,28.572031 25.001347,28.130074 25.327085,28.070002 
	C26.090469,28.052219 26.528114,28.094511 26.975872,28.365622 
	C26.985985,28.594442 27.051289,29.047852 27.062519,29.326757 
	C27.380499,30.066216 27.687246,30.526768 27.993994,30.987320 
	C27.993994,30.987320 28.084192,31.189302 28.054096,31.295734 
z"/>
<path fill="#D8D8D8" opacity="1.000000" stroke="none" 
	d="
M30.770935,23.662001 
	C29.664476,23.695055 28.558016,23.728111 27.234001,23.272148 
	C27.016445,22.783131 27.068247,22.326387 27.153870,22.163986 
	C27.239492,22.001585 26.967663,21.754744 26.967663,21.754742 
	C28.015146,21.855602 29.062628,21.956465 30.506748,22.349625 
	C30.859236,22.981949 30.815086,23.321974 30.770935,23.662001 
z"/>
<path fill="#5D584E" opacity="1.000000" stroke="none" 
	d="
M23.935644,21.781368 
	C24.177935,21.055618 24.420225,20.329868 24.662516,19.604118 
	C25.421297,20.118832 26.180080,20.633545 26.953262,21.451500 
	C26.967663,21.754744 27.239492,22.001585 26.787308,21.992525 
	C25.535295,21.916100 24.735470,21.848734 23.935644,21.781368 
z"/>
<path fill="#DFDFDF" opacity="1.000000" stroke="none" 
	d="
M23.560658,21.787008 
	C24.735470,21.848734 25.535295,21.916100 26.701683,22.154926 
	C27.068247,22.326387 27.016445,22.783131 27.015890,23.013151 
	C25.206934,23.365877 23.398535,23.488583 21.244987,23.294628 
	C20.934189,22.810137 20.968540,22.642309 20.985149,22.218199 
	C21.706829,21.905495 22.446249,21.849072 23.560658,21.787008 
z"/>
<path fill="#E8E8E8" opacity="1.000000" stroke="none" 
	d="
M36.571999,25.032269 
	C36.632710,25.740583 36.382385,26.439171 36.032951,27.506390 
	C35.648869,27.410343 35.363895,26.945665 35.040504,26.042492 
	C35.002087,25.603994 35.030178,25.163195 35.030178,25.163195 
	C35.440441,25.116310 35.850700,25.069426 36.571999,25.032269 
z"/>
<path fill="#7E7D7E" opacity="1.000000" stroke="none" 
	d="
M31.130882,23.801790 
	C30.815086,23.321974 30.859236,22.981949 30.904491,22.382931 
	C31.824326,22.668337 32.743053,23.212732 33.339386,23.958103 
	C32.508270,24.086580 31.999552,24.014080 31.130882,23.801790 
z"/>
<path fill="#8D8965" opacity="1.000000" stroke="none" 
	d="
M18.746508,28.060703 
	C18.746508,28.060703 18.512426,28.100414 18.393915,28.101255 
	C18.111570,27.614056 17.947735,27.126017 17.830486,26.073147 
	C18.261124,25.344547 18.645178,25.180779 19.029230,25.017008 
	C19.029230,25.017008 19.180719,25.150940 19.298450,25.468061 
	C19.972147,26.488840 20.528109,27.192497 20.696514,27.932640 
	C19.788143,27.999651 19.267324,28.030176 18.746508,28.060703 
z"/>
<path fill="#81683E" opacity="1.000000" stroke="none" 
	d="
M11.058533,31.480928 
	C10.728480,31.459101 10.366571,31.021641 9.933006,30.277481 
	C9.899583,29.541023 9.937817,29.111261 9.927340,28.359646 
	C9.921775,27.845104 9.964922,27.652420 10.051907,27.165173 
	C10.095745,26.870607 10.418304,26.900589 10.579889,26.896767 
	C10.836540,28.283730 10.931607,29.674511 11.058533,31.480928 
z"/>
<path fill="#383534" opacity="1.000000" stroke="none" 
	d="
M18.940380,24.704206 
	C18.645178,25.180779 18.261124,25.344547 17.650686,25.731831 
	C17.264509,25.469019 17.104715,24.982693 16.989021,24.217953 
	C17.639256,24.090160 18.245394,24.240784 18.940380,24.704206 
z"/>
<path fill="#CBCACA" opacity="1.000000" stroke="none" 
	d="
M34.695122,25.093103 
	C35.030178,25.163195 35.002087,25.603994 34.989418,25.825470 
	C34.539471,26.029583 34.102192,26.012220 33.161011,26.002140 
	C32.405518,25.972578 32.201233,25.854139 32.044254,25.654104 
	C32.168423,25.478264 32.292595,25.302422 32.711281,24.993944 
	C33.457218,24.915209 33.908638,24.969110 34.695122,25.093103 
z"/>
<path fill="#EEB81B" opacity="1.000000" stroke="none" 
	d="
M19.469507,36.120312 
	C19.469507,36.120312 19.507919,36.571423 19.481663,36.796261 
	C19.027140,36.641636 18.598869,36.262169 18.183657,35.562767 
	C18.196712,35.242825 18.491442,35.105526 18.784157,35.401001 
	C19.207750,35.837753 19.338629,35.979034 19.469507,36.120312 
z"/>
<path fill="#383534" opacity="1.000000" stroke="none" 
	d="
M14.486500,24.467144 
	C14.531892,24.443880 14.441108,24.490410 14.486500,24.467144 
z"/>
<path fill="#C29344" opacity="1.000000" stroke="none" 
	d="
M19.609375,35.977264 
	C19.338629,35.979034 19.207750,35.837753 18.942005,35.439892 
	C18.996719,35.141762 19.186298,35.100212 19.667120,35.061996 
	C19.976973,35.345726 19.907265,35.602024 19.609375,35.977264 
z"/>
<path fill="#CCAE62" opacity="1.000000" stroke="none" 
	d="
M24.086142,30.026436 
	C24.086142,30.026436 24.093763,30.514269 24.044416,30.753057 
	C23.824526,30.989721 23.653982,30.987595 23.249069,30.882515 
	C23.014700,30.779562 23.016569,30.438362 23.279186,30.184811 
	C23.723249,29.962984 23.904696,29.994711 24.086142,30.026436 
z"/>
<path fill="#CCAE62" opacity="1.000000" stroke="none" 
	d="
M28.237228,30.981438 
	C27.687246,30.526768 27.380499,30.066216 27.370724,29.298929 
	C28.077148,29.037354 28.486597,29.082514 28.896048,29.127672 
	C28.919704,29.512428 28.943359,29.897186 28.960091,30.570995 
	C28.953167,30.860050 28.480461,30.975555 28.237228,30.981438 
z"/>
<path fill="#695F48" opacity="1.000000" stroke="none" 
	d="
M36.244034,30.771696 
	C36.262901,30.282909 36.513206,29.934231 36.987671,29.355316 
	C36.966377,29.720655 36.720924,30.316231 36.244034,30.771696 
z"/>
<path fill="#6B6453" opacity="1.000000" stroke="none" 
	d="
M29.262917,29.090405 
	C28.486597,29.082514 28.077148,29.037354 27.359493,29.020023 
	C27.051289,29.047852 26.985985,28.594442 27.176823,28.260849 
	C27.367659,27.927258 27.804153,27.805025 28.132679,27.841736 
	C28.681391,27.869116 28.901575,27.859789 29.389965,27.766159 
	C30.131241,27.388540 30.604311,27.095224 31.306715,26.940411 
	C31.750841,27.365515 31.965633,27.652113 32.180428,27.938713 
	C31.330214,28.310188 30.480000,28.681664 29.262917,29.090405 
z"/>
<path fill="#F5F5F4" opacity="1.000000" stroke="none" 
	d="
M32.326527,27.944128 
	C31.965633,27.652113 31.750841,27.365515 31.330841,26.696703 
	C31.125633,26.314491 31.078733,25.826965 31.122156,25.797163 
	C31.165579,25.767361 31.118793,25.672987 31.118793,25.672987 
	C31.118793,25.672987 31.583815,25.775850 31.814034,25.714977 
	C32.201233,25.854139 32.405518,25.972578 32.834152,26.045092 
	C33.011196,26.080763 33.048717,26.480410 33.022591,26.964249 
	C32.917442,27.634283 32.838417,27.820475 32.759396,28.006666 
	C32.759396,28.006666 32.472626,27.949543 32.326527,27.944128 
z"/>
<path fill="#695F48" opacity="1.000000" stroke="none" 
	d="
M32.974937,27.939693 
	C32.838417,27.820475 32.917442,27.634283 33.083405,27.155518 
	C33.300705,27.115705 33.446251,27.362940 33.542789,27.628021 
	C33.555264,27.662277 33.314133,27.788889 32.974937,27.939693 
z"/>
<path fill="#E7B22D" opacity="1.000000" stroke="none" 
	d="
M15.339791,36.813023 
	C15.078864,36.493668 15.063536,36.088478 15.074645,35.380280 
	C15.523170,35.065136 15.945257,35.053005 16.684437,35.057655 
	C17.001532,35.074432 17.024199,35.557850 17.009892,35.799889 
	C16.525518,36.270351 16.055454,36.498768 15.339791,36.813023 
z"/>
<path fill="#D2D1D1" opacity="1.000000" stroke="none" 
	d="
M27.804153,27.805025 
	C27.804153,27.805025 27.367659,27.927258 27.166710,28.032028 
	C26.528114,28.094511 26.090469,28.052219 24.963417,28.002914 
	C23.533875,27.974045 22.793741,27.952192 22.134840,27.677517 
	C22.517366,27.245493 22.818661,27.066290 23.119953,26.887087 
	C24.479689,26.255255 25.839424,25.623423 27.520329,25.390671 
	C27.829050,26.461508 27.816603,27.133266 27.804153,27.805025 
z"/>
<path fill="#969595" opacity="1.000000" stroke="none" 
	d="
M23.018057,26.668762 
	C22.818661,27.066290 22.517366,27.245493 21.892038,27.682198 
	C21.568005,27.939701 21.084070,27.896156 21.084070,27.896156 
	C20.528109,27.192497 19.972147,26.488840 19.374905,25.534218 
	C19.333624,25.283253 19.698359,25.145987 19.886103,25.091805 
	C20.073847,25.037624 20.511843,25.144186 20.900902,25.383263 
	C21.569107,25.795374 21.872261,25.867701 22.199427,25.839321 
	C22.526600,25.939510 22.765511,26.143215 23.018057,26.668762 
z"/>
<path fill="#908F90" opacity="1.000000" stroke="none" 
	d="
M28.132681,27.841736 
	C27.816603,27.133266 27.829050,26.461508 27.884949,25.454758 
	C28.385386,25.042931 28.842377,24.966095 29.453505,25.157986 
	C29.530182,25.606524 29.452721,25.786337 29.273548,26.182508 
	C29.155144,26.882730 29.138451,27.366596 29.121758,27.850460 
	C28.901575,27.859789 28.681391,27.869116 28.132681,27.841736 
z"/>
<path fill="#8D8965" opacity="1.000000" stroke="none" 
	d="
M22.036543,25.657047 
	C21.872261,25.867701 21.569107,25.795374 21.110804,25.465363 
	C21.271029,25.220387 21.585033,25.275850 22.036543,25.657047 
z"/>
<path fill="#D2D1D1" opacity="1.000000" stroke="none" 
	d="
M29.375259,25.966150 
	C29.452721,25.786337 29.530182,25.606524 29.799093,25.204018 
	C30.230354,25.011356 30.470165,25.041389 30.914387,25.372204 
	C31.118793,25.672987 31.165579,25.767361 30.697594,25.847914 
	C29.944826,25.941029 29.660044,25.953590 29.375259,25.966150 
z"/>
<path fill="#796A4B" opacity="1.000000" stroke="none" 
	d="
M20.696514,27.932640 
	C21.084070,27.896156 21.568005,27.939701 21.810806,27.935020 
	C22.793741,27.952192 23.533875,27.974045 24.637676,28.062986 
	C25.001347,28.130074 25.001717,28.572031 24.729172,28.856815 
	C24.309675,29.446901 24.162724,29.752205 24.015772,30.057508 
	C24.015772,30.057508 24.032049,29.998627 24.059095,30.012531 
	C23.904696,29.994711 23.723249,29.962984 23.278097,30.014210 
	C21.628893,29.616034 20.243393,29.134903 18.802200,28.357237 
	C19.267324,28.030176 19.788143,27.999651 20.696514,27.932640 
z"/>
<path fill="#CCAE62" opacity="1.000000" stroke="none" 
	d="
M24.302982,30.031448 
	C24.162724,29.752205 24.309675,29.446901 24.723785,29.077728 
	C24.857361,29.344368 24.723778,29.674877 24.302982,30.031448 
z"/>
<path fill="#CBCACA" opacity="1.000000" stroke="none" 
	d="
M29.273548,26.182508 
	C29.660044,25.953590 29.944826,25.941029 30.654171,25.877716 
	C31.078733,25.826965 31.125633,26.314491 31.101509,26.558201 
	C30.604311,27.095224 30.131241,27.388540 29.389963,27.766159 
	C29.138451,27.366596 29.155144,26.882730 29.273548,26.182508 
z"/>
</svg>