<?xml version="1.0" encoding="UTF-8"?>
<!DOCTYPE svg PUBLIC "-//W3C//DTD SVG 1.1//EN" "http://www.w3.org/Graphics/SVG/1.1/DTD/svg11.dtd">
<svg xmlns="http://www.w3.org/2000/svg" version="1.1" width="55px" height="55px" style="shape-rendering:geometricPrecision; text-rendering:geometricPrecision; image-rendering:optimizeQuality; fill-rule:evenodd; clip-rule:evenodd" xmlns:xlink="http://www.w3.org/1999/xlink">
<g><path style="opacity:0.008" fill="#fbfaa9" d="M 23.5,-0.5 C 23.8333,-0.5 24.1667,-0.5 24.5,-0.5C 24.3147,0.170143 23.9813,0.170143 23.5,-0.5 Z"/></g>
<g><path style="opacity:0.004" fill="#fbf5a9" d="M 28.5,-0.5 C 28.8333,-0.5 29.1667,-0.5 29.5,-0.5C 29.3147,0.170143 28.9813,0.170143 28.5,-0.5 Z"/></g>
<g><path style="opacity:0.953" fill="#f9eea1" d="M 25.5,-0.5 C 26.1667,-0.5 26.8333,-0.5 27.5,-0.5C 27.6596,1.15298 28.3263,2.48631 29.5,3.5C 32.3129,4.08184 34.9796,5.08184 37.5,6.5C 36.8333,6.5 36.1667,6.5 35.5,6.5C 34.5084,6.32842 33.8417,6.66175 33.5,7.5C 32.3054,7.86562 31.6387,8.69895 31.5,10C 31.5567,12.1211 31.89,14.2878 32.5,16.5C 31.5,16.5 30.5,16.5 29.5,16.5C 27.5,16.5 25.5,16.5 23.5,16.5C 24.4293,15.6851 25.4293,14.8518 26.5,14C 24.7184,13.8782 23.0518,14.3782 21.5,15.5C 21.6633,13.1432 21.4966,10.8098 21,8.5C 20.2917,7.61947 19.4584,6.9528 18.5,6.5C 18.1667,6.5 17.8333,6.5 17.5,6.5C 19.1561,4.93971 21.1561,3.93971 23.5,3.5C 24.6737,2.48631 25.3404,1.15298 25.5,-0.5 Z"/></g>
<g><path style="opacity:0.016" fill="#fcf7ab" d="M 23.5,3.5 C 17.1468,3.54745 16.9801,2.88078 23,1.5C 23.4643,2.09442 23.631,2.76109 23.5,3.5 Z"/></g>
<g><path style="opacity:0.016" fill="#fcf7ab" d="M 29.5,3.5 C 29.369,2.76109 29.5357,2.09442 30,1.5C 36.0199,2.88078 35.8532,3.54745 29.5,3.5 Z"/></g>
<g><path style="opacity:0.004" fill="#fbf5a9" d="M 14.5,4.5 C 13.8333,3.16667 13.8333,3.16667 14.5,4.5 Z"/></g>
<g><path style="opacity:0.008" fill="#fbfaa9" d="M 39.5,3.5 C 40.8333,4.16667 40.8333,4.16667 39.5,3.5 Z"/></g>
<g><path style="opacity:0.004" fill="#fcf6aa" d="M 42.5,6.5 C 42.8966,5.47498 43.5632,5.30831 44.5,6C 43.9056,6.46434 43.2389,6.63101 42.5,6.5 Z"/></g>
<g><path style="opacity:0.008" fill="#fcf7aa" d="M 11.5,7.5 C 8.99908,7.48908 8.83242,6.82241 11,5.5C 11.4643,6.09442 11.631,6.76109 11.5,7.5 Z"/></g>
<g><path style="opacity:0.855" fill="#fbf09d" d="M 14.5,4.5 C 15.5,5.16667 16.5,5.83333 17.5,6.5C 17.5,7.5 17.5,8.5 17.5,9.5C 16.2745,10.937 15.2745,12.6036 14.5,14.5C 13.5832,13.8728 12.5832,13.5394 11.5,13.5C 10.209,13.7373 9.20895,13.404 8.5,12.5C 9.65268,11.6868 9.65268,10.6868 8.5,9.5C 9.60164,8.82434 10.6016,8.15767 11.5,7.5C 12.5,6.5 13.5,5.5 14.5,4.5 Z"/></g>
<g><path style="opacity:0.842" fill="#fcf5a9" d="M 39.5,5.5 C 41.4469,6.47344 43.4469,7.47344 45.5,8.5C 45.1373,9.18346 44.8039,9.85013 44.5,10.5C 43.1667,11.1667 43.1667,11.8333 44.5,12.5C 42.7354,13.4614 40.7354,13.7947 38.5,13.5C 38.67,12.1779 38.3366,11.0113 37.5,10C 39.1066,8.95101 39.7733,7.45101 39.5,5.5 Z"/></g>
<g><path style="opacity:0.404" fill="#9e5519" d="M 35.5,6.5 C 34.8902,7.39105 34.5569,8.39105 34.5,9.5C 34.5,9.83333 34.5,10.1667 34.5,10.5C 33.596,9.79105 33.2627,8.79105 33.5,7.5C 33.8417,6.66175 34.5084,6.32842 35.5,6.5 Z"/></g>
<g><path style="opacity:0.008" fill="#fbfaa9" d="M 48.5,7.5 C 49.8333,8.16667 49.8333,8.16667 48.5,7.5 Z"/></g>
<g><path style="opacity:0.004" fill="#fbec92" d="M 5.5,9.5 C 5.55999,8.95691 5.89333,8.62358 6.5,8.5C 7.77329,9.2565 7.77329,9.92317 6.5,10.5C 6.5,9.83333 6.16667,9.5 5.5,9.5 Z"/></g>
<g><path style="opacity:0.008" fill="#f2d044" d="M 46.5,8.5 C 47.8333,9.16667 47.8333,9.16667 46.5,8.5 Z"/></g>
<g><path style="opacity:0.004" fill="#fbf5a9" d="M 51.5,9.5 C 52.8333,10.1667 52.8333,10.1667 51.5,9.5 Z"/></g>
<g><path style="opacity:0.771" fill="#fcf2a1" d="M 5.5,9.5 C 5.5,9.83333 5.5,10.1667 5.5,10.5C 6.14952,12.4352 6.48285,14.4352 6.5,16.5C 4.51676,16.1568 3.18342,16.8235 2.5,18.5C 1.83333,17.1667 1.16667,15.8333 0.5,14.5C 0.350549,13.448 0.517215,12.448 1,11.5C 1.33333,11.8333 1.66667,12.1667 2,12.5C 2.75891,10.9371 3.92558,9.93709 5.5,9.5 Z"/></g>
<g><path style="opacity:0.969" fill="#e3a320" d="M 33.5,7.5 C 33.2627,8.79105 33.596,9.79105 34.5,10.5C 34.5191,12.0603 34.8524,13.5603 35.5,15C 35.1639,16.0299 34.4972,16.5299 33.5,16.5C 33.1667,16.5 32.8333,16.5 32.5,16.5C 31.89,14.2878 31.5567,12.1211 31.5,10C 31.6387,8.69895 32.3054,7.86562 33.5,7.5 Z"/></g>
<g><path style="opacity:0.943" fill="#fcf4a5" d="M 53.5,13.5 C 52.8333,13.5 52.5,13.8333 52.5,14.5C 51.1667,14.8333 51.1667,15.1667 52.5,15.5C 52.5,16.8333 51.8333,17.5 50.5,17.5C 49.791,16.596 48.791,16.2627 47.5,16.5C 47.67,15.1779 47.3366,14.0113 46.5,13C 47.756,12.5831 48.4226,11.7498 48.5,10.5C 48.56,9.95691 48.8933,9.62358 49.5,9.5C 51.2004,10.6099 52.5337,11.9432 53.5,13.5 Z"/></g>
<g><path style="opacity:0.996" fill="#efcb52" d="M 39.5,5.5 C 39.7733,7.45101 39.1066,8.95101 37.5,10C 38.3366,11.0113 38.67,12.1779 38.5,13.5C 40.7354,13.7947 42.7354,13.4614 44.5,12.5C 45.1667,12.5 45.5,12.1667 45.5,11.5C 46.391,10.8902 47.391,10.5569 48.5,10.5C 48.4226,11.7498 47.756,12.5831 46.5,13C 47.3366,14.0113 47.67,15.1779 47.5,16.5C 48.791,16.2627 49.791,16.596 50.5,17.5C 49.3412,18.7403 48.3412,20.0736 47.5,21.5C 47.6106,19.3523 46.944,19.019 45.5,20.5C 41.686,18.3282 37.686,16.9949 33.5,16.5C 34.4972,16.5299 35.1639,16.0299 35.5,15C 34.8524,13.5603 34.5191,12.0603 34.5,10.5C 34.5,10.1667 34.5,9.83333 34.5,9.5C 35.8333,8.83333 36.8333,7.83333 37.5,6.5C 38.1667,6.16667 38.8333,5.83333 39.5,5.5 Z M 44.5,10.5 C 44.5,11.1667 44.8333,11.5 45.5,11.5C 45.5,12.1667 45.1667,12.5 44.5,12.5C 43.1667,11.8333 43.1667,11.1667 44.5,10.5 Z"/></g>
<g><path style="opacity:0.004" fill="#fbf5a9" d="M 53.5,13.5 C 53.8333,13.5 54.1667,13.5 54.5,13.5C 54.5,13.8333 54.5,14.1667 54.5,14.5C 54.1667,14.1667 53.8333,13.8333 53.5,13.5 Z"/></g>
<g><path style="opacity:0.004" fill="#fcf6aa" d="M -0.5,14.5 C -0.166667,14.5 0.166667,14.5 0.5,14.5C 0.737305,15.791 0.403972,16.791 -0.5,17.5C -0.5,16.5 -0.5,15.5 -0.5,14.5 Z"/></g>
<g><path style="opacity:1" fill="#eec240" d="M 18.5,6.5 C 19.4584,6.9528 20.2917,7.61947 21,8.5C 21.4966,10.8098 21.6633,13.1432 21.5,15.5C 17.8872,16.4861 14.2205,17.3195 10.5,18C 9.30943,18.6979 8.30943,19.5313 7.5,20.5C 7.16667,20.5 6.83333,20.5 6.5,20.5C 6.5,19.8333 6.16667,19.5 5.5,19.5C 7.5,17.5 9.5,15.5 11.5,13.5C 12.5832,13.5394 13.5832,13.8728 14.5,14.5C 15.2745,12.6036 16.2745,10.937 17.5,9.5C 18.3635,10.463 19.0302,10.463 19.5,9.5C 18.8728,8.58317 18.5394,7.58317 18.5,6.5 Z"/></g>
<g><path style="opacity:0.016" fill="#fdf7ad" d="M 52.5,14.5 C 52.8333,14.5 53.1667,14.5 53.5,14.5C 53.3147,15.1701 52.9813,15.1701 52.5,14.5 Z"/></g>
<g><path style="opacity:0.941" fill="#f5de6e" d="M 5.5,10.5 C 5.83333,10.5 6.16667,10.5 6.5,10.5C 6.83333,11.5 7.5,12.1667 8.5,12.5C 9.20895,13.404 10.209,13.7373 11.5,13.5C 9.5,15.5 7.5,17.5 5.5,19.5C 4.83333,19.5 4.5,19.8333 4.5,20.5C 3.76109,20.631 3.09442,20.4643 2.5,20C 3.73834,19.31 3.73834,18.81 2.5,18.5C 3.18342,16.8235 4.51676,16.1568 6.5,16.5C 6.48285,14.4352 6.14952,12.4352 5.5,10.5 Z"/></g>
<g><path style="opacity:0.008" fill="#f2d044" d="M 49.5,19.5 C 50.8333,20.1667 50.8333,20.1667 49.5,19.5 Z"/></g>
<g><path style="opacity:1" fill="#926128" d="M 23.5,16.5 C 19.381,17.9758 15.2143,19.3092 11,20.5C 10.501,24.8206 10.3343,29.1539 10.5,33.5C 9.68618,31.369 9.18618,29.0356 9,26.5C 8.61742,27.056 8.11742,27.3893 7.5,27.5C 7.5,25.1667 7.5,22.8333 7.5,20.5C 8.30943,19.5313 9.30943,18.6979 10.5,18C 14.2205,17.3195 17.8872,16.4861 21.5,15.5C 23.0518,14.3782 24.7184,13.8782 26.5,14C 25.4293,14.8518 24.4293,15.6851 23.5,16.5 Z"/></g>
<g><path style="opacity:1" fill="#282422" d="M 36.5,18.5 C 38.8863,18.2587 40.8863,18.9254 42.5,20.5C 42.7693,24.9315 42.436,29.2648 41.5,33.5C 38.992,35.2371 35.992,36.0704 32.5,36C 31.944,36.3826 31.6107,36.8826 31.5,37.5C 28.1667,37.5 24.8333,37.5 21.5,37.5C 20.5,36.8333 19.5,36.1667 18.5,35.5C 20.153,35.3404 21.4863,34.6737 22.5,33.5C 25.7693,32.958 29.2693,32.958 33,33.5C 34.6811,33.3917 35.8478,32.7251 36.5,31.5C 38.2246,34.188 39.558,33.8547 40.5,30.5C 38.9547,29.5481 37.288,29.2148 35.5,29.5C 35.3894,27.3523 36.056,27.019 37.5,28.5C 40.3476,26.7402 40.0143,25.7402 36.5,25.5C 34.0525,26.6005 31.5525,26.6005 29,25.5C 26.761,26.0911 24.5943,26.7578 22.5,27.5C 22.1583,26.6618 21.4916,26.3284 20.5,26.5C 20.3505,25.448 20.5172,24.448 21,23.5C 25.7817,24.8023 30.615,24.8023 35.5,23.5C 34.3112,22.5713 32.9778,22.238 31.5,22.5C 31.5,22.1667 31.5,21.8333 31.5,21.5C 34.456,20.8629 37.456,20.3629 40.5,20C 38.9419,19.79 37.6085,19.29 36.5,18.5 Z"/></g>
<g><path style="opacity:0.012" fill="#a87735" d="M 4.5,20.5 C 5.16667,20.5 5.83333,20.5 6.5,20.5C 6.5,23.1667 6.5,25.8333 6.5,28.5C 6.16667,28.5 5.83333,28.5 5.5,28.5C 5.72137,25.7212 5.38803,23.0545 4.5,20.5 Z"/></g>
<g><path style="opacity:1" fill="#221f1e" d="M 23.5,16.5 C 25.5,16.5 27.5,16.5 29.5,16.5C 31.5145,17.9238 33.8478,18.5905 36.5,18.5C 37.6085,19.29 38.9419,19.79 40.5,20C 37.456,20.3629 34.456,20.8629 31.5,21.5C 29.7231,21.2137 28.0564,20.5471 26.5,19.5C 24.8405,20.1716 23.5072,21.1716 22.5,22.5C 20.6208,21.6586 18.6208,21.3253 16.5,21.5C 16.5,22.5 16.5,23.5 16.5,24.5C 18.1788,24.2852 19.1788,24.9519 19.5,26.5C 18.7611,26.369 18.0944,26.5357 17.5,27C 18.2524,27.6708 18.5858,28.5041 18.5,29.5C 17.5084,29.6716 16.8417,29.3382 16.5,28.5C 16.5,27.5 16.5,26.5 16.5,25.5C 15.325,25.281 14.325,25.6143 13.5,26.5C 13.6236,27.1067 13.9569,27.44 14.5,27.5C 13.4975,29.0109 12.8308,30.6776 12.5,32.5C 13.5,32.5 14.5,32.5 15.5,32.5C 17.7203,32.4632 20.0536,32.7965 22.5,33.5C 21.4863,34.6737 20.153,35.3404 18.5,35.5C 15.4669,35.8685 12.8002,35.2018 10.5,33.5C 10.3343,29.1539 10.501,24.8206 11,20.5C 15.2143,19.3092 19.381,17.9758 23.5,16.5 Z"/></g>
<g><path style="opacity:1" fill="#60594c" d="M 31.5,21.5 C 31.5,21.8333 31.5,22.1667 31.5,22.5C 28.5,22.5 25.5,22.5 22.5,22.5C 23.5072,21.1716 24.8405,20.1716 26.5,19.5C 28.0564,20.5471 29.7231,21.2137 31.5,21.5 Z"/></g>
<g><path style="opacity:1" fill="#b1b1b0" d="M 22.5,22.5 C 25.5,22.5 28.5,22.5 31.5,22.5C 32.9778,22.238 34.3112,22.5713 35.5,23.5C 30.615,24.8023 25.7817,24.8023 21,23.5C 20.5172,24.448 20.3505,25.448 20.5,26.5C 20.1667,26.5 19.8333,26.5 19.5,26.5C 19.1788,24.9519 18.1788,24.2852 16.5,24.5C 16.5,23.5 16.5,22.5 16.5,21.5C 18.6208,21.3253 20.6208,21.6586 22.5,22.5 Z"/></g>
<g><path style="opacity:0.008" fill="#f6d85e" d="M 46.5,24.5 C 46.8333,24.5 47.1667,24.5 47.5,24.5C 47.2641,27.6085 47.5975,30.6085 48.5,33.5C 47.8333,33.5 47.1667,33.5 46.5,33.5C 46.7845,31.5853 46.4511,29.9187 45.5,28.5C 45.5,28.1667 45.5,27.8333 45.5,27.5C 46.8333,27.1667 46.8333,26.8333 45.5,26.5C 45.5,26.1667 45.5,25.8333 45.5,25.5C 46.1667,25.5 46.5,25.1667 46.5,24.5 Z"/></g>
<g><path style="opacity:1" fill="#b3b2b2" d="M 16.5,28.5 C 15.8333,28.1667 15.1667,27.8333 14.5,27.5C 13.9569,27.44 13.6236,27.1067 13.5,26.5C 14.325,25.6143 15.325,25.281 16.5,25.5C 16.5,26.5 16.5,27.5 16.5,28.5 Z"/></g>
<g><path style="opacity:1" fill="#685b3c" d="M 42.5,20.5 C 43.1627,22.4726 43.4961,24.6392 43.5,27C 43.4668,29.6103 42.8001,31.777 41.5,33.5C 42.436,29.2648 42.7693,24.9315 42.5,20.5 Z"/></g>
<g><path style="opacity:1" fill="#a4a3a4" d="M 35.5,29.5 C 30.9526,29.2095 26.2859,29.2095 21.5,29.5C 21.3284,28.5084 21.6618,27.8417 22.5,27.5C 24.5943,26.7578 26.761,26.0911 29,25.5C 31.5525,26.6005 34.0525,26.6005 36.5,25.5C 40.0143,25.7402 40.3476,26.7402 37.5,28.5C 36.056,27.019 35.3894,27.3523 35.5,29.5 Z"/></g>
<g><path style="opacity:1" fill="#6c5f45" d="M 14.5,27.5 C 15.1667,27.8333 15.8333,28.1667 16.5,28.5C 16.8417,29.3382 17.5084,29.6716 18.5,29.5C 17.0998,30.1001 16.0998,31.1001 15.5,32.5C 14.5,32.5 13.5,32.5 12.5,32.5C 12.8308,30.6776 13.4975,29.0109 14.5,27.5 Z"/></g>
<g><path style="opacity:1" fill="#776742" d="M 35.5,29.5 C 37.288,29.2148 38.9547,29.5481 40.5,30.5C 39.558,33.8547 38.2246,34.188 36.5,31.5C 33.4355,30.1816 30.2688,30.1816 27,31.5C 24.595,30.7256 22.095,30.2256 19.5,30C 20.0944,29.5357 20.7611,29.369 21.5,29.5C 26.2859,29.2095 30.9526,29.2095 35.5,29.5 Z"/></g>
<g><path style="opacity:0.341" fill="#dec679" d="M 10.5,33.5 C 12.8002,35.2018 15.4669,35.8685 18.5,35.5C 19.5,36.1667 20.5,36.8333 21.5,37.5C 16.2489,37.7923 11.5822,36.4589 7.5,33.5C 7.16667,30.8333 6.83333,30.8333 6.5,33.5C 5.76109,33.631 5.09442,33.4643 4.5,33C 5.38017,31.6439 5.71351,30.1439 5.5,28.5C 5.83333,28.5 6.16667,28.5 6.5,28.5C 7.11034,30.8503 7.44367,30.517 7.5,27.5C 8.11742,27.3893 8.61742,27.056 9,26.5C 9.18618,29.0356 9.68618,31.369 10.5,33.5 Z"/></g>
<g><path style="opacity:0.996" fill="#a18a54" d="M 19.5,26.5 C 19.8333,26.5 20.1667,26.5 20.5,26.5C 21.4916,26.3284 22.1583,26.6618 22.5,27.5C 21.6618,27.8417 21.3284,28.5084 21.5,29.5C 20.7611,29.369 20.0944,29.5357 19.5,30C 22.095,30.2256 24.595,30.7256 27,31.5C 30.2688,30.1816 33.4355,30.1816 36.5,31.5C 35.8478,32.7251 34.6811,33.3917 33,33.5C 29.2693,32.958 25.7693,32.958 22.5,33.5C 20.0536,32.7965 17.7203,32.4632 15.5,32.5C 16.0998,31.1001 17.0998,30.1001 18.5,29.5C 18.5858,28.5041 18.2524,27.6708 17.5,27C 18.0944,26.5357 18.7611,26.369 19.5,26.5 Z"/></g>
<g><path style="opacity:0.008" fill="#f7dc69" d="M 48.5,34.5 C 48.5,34.1667 48.5,33.8333 48.5,33.5C 51.1667,33.8333 51.1667,34.1667 48.5,34.5 Z"/></g>
<g><path style="opacity:1" fill="#c49f55" d="M 29.5,16.5 C 30.5,16.5 31.5,16.5 32.5,16.5C 32.8333,16.5 33.1667,16.5 33.5,16.5C 37.686,16.9949 41.686,18.3282 45.5,20.5C 46.944,19.019 47.6106,19.3523 47.5,21.5C 47.5,22.5 47.5,23.5 47.5,24.5C 47.1667,24.5 46.8333,24.5 46.5,24.5C 45.8333,24.5 45.5,24.8333 45.5,25.5C 45.5,25.8333 45.5,26.1667 45.5,26.5C 45.5,26.8333 45.5,27.1667 45.5,27.5C 45.5,27.8333 45.5,28.1667 45.5,28.5C 45.5,30.1667 45.5,31.8333 45.5,33.5C 42.8639,35.7619 39.8639,37.0952 36.5,37.5C 35.8333,37.5 35.1667,37.5 34.5,37.5C 33.5,37.5 32.5,37.5 31.5,37.5C 31.6107,36.8826 31.944,36.3826 32.5,36C 35.992,36.0704 38.992,35.2371 41.5,33.5C 42.8001,31.777 43.4668,29.6103 43.5,27C 43.4961,24.6392 43.1627,22.4726 42.5,20.5C 40.8863,18.9254 38.8863,18.2587 36.5,18.5C 33.8478,18.5905 31.5145,17.9238 29.5,16.5 Z"/></g>
<g><path style="opacity:0.004" fill="#fcf6aa" d="M -0.5,36.5 C 0.403972,37.209 0.737305,38.209 0.5,39.5C 0.166667,39.5 -0.166667,39.5 -0.5,39.5C -0.5,38.5 -0.5,37.5 -0.5,36.5 Z"/></g>
<g><path style="opacity:0.821" fill="#fcf29f" d="M 2.5,35.5 C 3.33507,36.9432 4.6684,37.9432 6.5,38.5C 7.12723,39.4168 7.46056,40.4168 7.5,41.5C 7.16667,42.1667 6.83333,42.8333 6.5,43.5C 5.83333,43.5 5.5,43.8333 5.5,44.5C 2.20334,44.3683 0.536677,42.7016 0.5,39.5C 1.16667,38.1667 1.83333,36.8333 2.5,35.5 Z"/></g>
<g><path style="opacity:0.996" fill="#e3a927" d="M 45.5,33.5 C 45.8333,33.5 46.1667,33.5 46.5,33.5C 46.5,33.8333 46.5,34.1667 46.5,34.5C 45.9245,38.4735 43.7579,39.4735 40,37.5C 38.8604,40.0176 37.6937,40.0176 36.5,37.5C 39.8639,37.0952 42.8639,35.7619 45.5,33.5 Z"/></g>
<g><path style="opacity:1" fill="#edc448" d="M 6.5,33.5 C 6.83333,33.5 7.16667,33.5 7.5,33.5C 11.5822,36.4589 16.2489,37.7923 21.5,37.5C 21.5,37.8333 21.5,38.1667 21.5,38.5C 21.6633,40.8568 21.4966,43.1902 21,45.5C 20.2917,46.3805 19.4584,47.0472 18.5,47.5C 18.5,46.8333 18.5,46.1667 18.5,45.5C 17.5084,45.3284 16.8417,45.6618 16.5,46.5C 15.8333,46.5 15.5,46.8333 15.5,47.5C 15.1667,47.5 14.8333,47.5 14.5,47.5C 14.3601,45.8762 15.0267,44.7096 16.5,44C 15.9103,42.4905 15.2436,40.9905 14.5,39.5C 12.3432,40.0505 10.3432,40.7171 8.5,41.5C 8.16667,41.5 7.83333,41.5 7.5,41.5C 7.46056,40.4168 7.12723,39.4168 6.5,38.5C 4.6684,37.9432 3.33507,36.9432 2.5,35.5C 4.15298,35.3404 5.48631,34.6737 6.5,33.5 Z M 16.5,46.5 C 16.8417,45.6618 17.5084,45.3284 18.5,45.5C 18.5,46.1667 18.5,46.8333 18.5,47.5C 18.1667,47.5 17.8333,47.5 17.5,47.5C 17.5,46.8333 17.1667,46.5 16.5,46.5 Z"/></g>
<g><path style="opacity:0.996" fill="#ca8d2a" d="M 21.5,38.5 C 21.5,38.1667 21.5,37.8333 21.5,37.5C 24.8333,37.5 28.1667,37.5 31.5,37.5C 32.5,37.5 33.5,37.5 34.5,37.5C 33.5381,39.453 33.2047,41.2863 33.5,43C 34.0442,43.7172 34.7109,44.2172 35.5,44.5C 35.5,44.8333 35.5,45.1667 35.5,45.5C 34.1667,45.8333 34.1667,46.1667 35.5,46.5C 35.5,47.1667 35.5,47.8333 35.5,48.5C 34.2058,47.7101 33.0391,46.7101 32,45.5C 32.9881,43.0801 32.6548,40.7467 31,38.5C 27.839,41.0858 24.6724,41.0858 21.5,38.5 Z"/></g>
<g><path style="opacity:0.95" fill="#faf2a5" d="M 51.5,36.5 C 52.7736,37.1894 52.7736,38.0228 51.5,39C 52.0442,39.7172 52.7109,40.2172 53.5,40.5C 51.6386,42.111 50.1386,44.111 49,46.5C 48.0053,45.9341 47.172,45.2674 46.5,44.5C 47.4916,44.6716 48.1583,44.3382 48.5,43.5C 48.4226,42.2502 47.756,41.4169 46.5,41C 47.3366,39.9887 47.67,38.8221 47.5,37.5C 49.099,37.7678 50.4324,37.4345 51.5,36.5 Z"/></g>
<g><path style="opacity:0.004" fill="#fbf5a9" d="M 54.5,39.5 C 54.5,39.8333 54.5,40.1667 54.5,40.5C 53.8299,40.0187 53.8299,39.6853 54.5,39.5 Z"/></g>
<g><path style="opacity:0.813" fill="#fcf4a7" d="M 14.5,47.5 C 14.5,47.8333 14.5,48.1667 14.5,48.5C 13.2502,48.4226 12.4169,47.756 12,46.5C 11.6667,47.1667 11.3333,47.8333 11,48.5C 10.1482,47.4293 9.31491,46.4293 8.5,45.5C 9.3543,43.965 9.3543,42.6316 8.5,41.5C 10.3432,40.7171 12.3432,40.0505 14.5,39.5C 15.2436,40.9905 15.9103,42.4905 16.5,44C 15.0267,44.7096 14.3601,45.8762 14.5,47.5 Z"/></g>
<g><path style="opacity:0.906" fill="#fbf4a8" d="M 21.5,38.5 C 24.6724,41.0858 27.839,41.0858 31,38.5C 32.6548,40.7467 32.9881,43.0801 32,45.5C 33.0391,46.7101 34.2058,47.7101 35.5,48.5C 33.5,49.1667 31.5,49.8333 29.5,50.5C 28.3263,51.5137 27.6596,52.847 27.5,54.5C 26.8333,54.5 26.1667,54.5 25.5,54.5C 25.2914,53.0783 24.7914,51.745 24,50.5C 23.6667,51.1667 23.3333,51.8333 23,52.5C 21.6012,51.7734 20.1012,51.2734 18.5,51C 19.8333,50.6667 21.1667,50.3333 22.5,50C 20.256,49.9504 18.5893,49.1171 17.5,47.5C 17.8333,47.5 18.1667,47.5 18.5,47.5C 19.4584,47.0472 20.2917,46.3805 21,45.5C 21.4966,43.1902 21.6633,40.8568 21.5,38.5 Z"/></g>
<g><path style="opacity:0.996" fill="#f3d65b" d="M 46.5,34.5 C 47.1667,34.5 47.8333,34.5 48.5,34.5C 49.2905,35.4013 50.2905,36.0679 51.5,36.5C 50.4324,37.4345 49.099,37.7678 47.5,37.5C 47.67,38.8221 47.3366,39.9887 46.5,41C 47.756,41.4169 48.4226,42.2502 48.5,43.5C 47.8333,43.5 47.1667,43.5 46.5,43.5C 46.5,42.8333 46.1667,42.5 45.5,42.5C 45.5,41.8333 45.1667,41.5 44.5,41.5C 42.7354,40.5386 40.7354,40.2053 38.5,40.5C 38.5323,42.6188 37.5323,43.9522 35.5,44.5C 34.7109,44.2172 34.0442,43.7172 33.5,43C 33.2047,41.2863 33.5381,39.453 34.5,37.5C 35.1667,37.5 35.8333,37.5 36.5,37.5C 37.6937,40.0176 38.8604,40.0176 40,37.5C 43.7579,39.4735 45.9245,38.4735 46.5,34.5 Z"/></g>
<g><path style="opacity:0.869" fill="#faed98" d="M 44.5,41.5 C 45.1667,41.5 45.5,41.8333 45.5,42.5C 46.1667,42.5 46.5,42.8333 46.5,43.5C 46.5,43.8333 46.5,44.1667 46.5,44.5C 45.1696,45.8321 43.5029,46.6655 41.5,47C 42.5,47.3333 43.5,47.6667 44.5,48C 42.5273,48.4955 40.5273,48.6621 38.5,48.5C 38.0269,47.0937 37.0269,46.427 35.5,46.5C 35.5,46.1667 35.5,45.8333 35.5,45.5C 35.5,45.1667 35.5,44.8333 35.5,44.5C 37.5323,43.9522 38.5323,42.6188 38.5,40.5C 40.7354,40.2053 42.7354,40.5386 44.5,41.5 Z"/></g>
<g><path style="opacity:0.008" fill="#fbfaa9" d="M 51.5,43.5 C 52.8333,44.1667 52.8333,44.1667 51.5,43.5 Z"/></g>
<g><path style="opacity:0.004" fill="#e5cd79" d="M 6.5,43.5 C 7.33825,43.8417 7.67158,44.5084 7.5,45.5C 6.50838,45.6716 5.84171,45.3382 5.5,44.5C 6.16667,44.5 6.5,44.1667 6.5,43.5 Z"/></g>
<g><path style="opacity:0.004" fill="#fbf5a9" d="M 7.5,45.5 C 7.83333,45.5 8.16667,45.5 8.5,45.5C 8.31468,46.1701 7.98135,46.1701 7.5,45.5 Z"/></g>
<g><path style="opacity:0.008" fill="#f2d044" d="M 15.5,47.5 C 16.8333,48.1667 16.8333,48.1667 15.5,47.5 Z"/></g>
<g><path style="opacity:0.008" fill="#f2d044" d="M 14.5,48.5 C 14.8333,48.5 15.1667,48.5 15.5,48.5C 15.3147,49.1701 14.9813,49.1701 14.5,48.5 Z"/></g>
<g><path style="opacity:0.004" fill="#fbf5a9" d="M 38.5,48.5 C 37.8333,49.1667 37.8333,49.1667 38.5,48.5 Z"/></g>
<g><path style="opacity:0.004" fill="#fbf5a9" d="M 14.5,49.5 C 13.8333,50.1667 13.8333,50.1667 14.5,49.5 Z"/></g>
<g><path style="opacity:0.008" fill="#fbfaa9" d="M 39.5,49.5 C 40.8333,50.1667 40.8333,50.1667 39.5,49.5 Z"/></g>
<g><path style="opacity:0.004" fill="#fcf6ab" d="M 29.5,50.5 C 35.8532,50.4526 36.0199,51.1192 30,52.5C 29.5357,51.9056 29.369,51.2389 29.5,50.5 Z"/></g>
<g><path style="opacity:0.008" fill="#fbfaa9" d="M 24.5,54.5 C 23.8333,53.1667 23.8333,53.1667 24.5,54.5 Z"/></g>
<g><path style="opacity:0.004" fill="#fbf5a9" d="M 29.5,54.5 C 28.8333,53.1667 28.8333,53.1667 29.5,54.5 Z"/></g>
</svg>
